%TF.GenerationSoftware,KiCad,Pcbnew,9.0.7-9.0.7~ubuntu24.04.1*%
%TF.CreationDate,2026-02-14T17:14:55-05:00*%
%TF.ProjectId,BeatMesh,42656174-4d65-4736-982e-6b696361645f,rev?*%
%TF.SameCoordinates,Original*%
%TF.FileFunction,Legend,Top*%
%TF.FilePolarity,Positive*%
%FSLAX46Y46*%
G04 Gerber Fmt 4.6, Leading zero omitted, Abs format (unit mm)*
G04 Created by KiCad (PCBNEW 9.0.7-9.0.7~ubuntu24.04.1) date 2026-02-14 17:14:55*
%MOMM*%
%LPD*%
G01*
G04 APERTURE LIST*
%ADD10C,0.300000*%
%ADD11C,0.187500*%
%ADD12C,0.400000*%
%ADD13C,0.125000*%
%ADD14C,0.150000*%
%ADD15C,0.200000*%
%ADD16C,0.250000*%
%ADD17C,0.120000*%
%ADD18C,0.127000*%
G04 APERTURE END LIST*
D10*
G36*
X138629616Y-80510459D02*
G01*
X138935316Y-80564815D01*
X139167658Y-80645425D01*
X139341403Y-80747155D01*
X139486037Y-80887895D01*
X139592038Y-81065779D01*
X139659793Y-81289054D01*
X139684320Y-81569520D01*
X139669469Y-81764877D01*
X139627316Y-81932303D01*
X139560001Y-82076569D01*
X139465093Y-82202874D01*
X139344667Y-82305705D01*
X139195102Y-82386513D01*
X139385184Y-82471565D01*
X139541169Y-82591787D01*
X139667712Y-82749946D01*
X139757992Y-82933486D01*
X139814558Y-83148067D01*
X139834529Y-83400365D01*
X139809218Y-83692448D01*
X139738715Y-83929711D01*
X139627570Y-84123037D01*
X139475248Y-84280127D01*
X139291084Y-84397634D01*
X139055850Y-84488226D01*
X138757996Y-84547926D01*
X138383727Y-84569800D01*
X136812513Y-84569800D01*
X136812513Y-83853924D01*
X137760663Y-83853924D01*
X138315339Y-83853924D01*
X138502179Y-83836817D01*
X138641936Y-83790723D01*
X138745695Y-83720079D01*
X138822122Y-83621485D01*
X138871067Y-83490099D01*
X138889065Y-83315612D01*
X138871149Y-83144827D01*
X138822292Y-83015676D01*
X138745695Y-82918229D01*
X138642038Y-82848279D01*
X138502287Y-82802577D01*
X138315339Y-82785606D01*
X137760663Y-82785606D01*
X137760663Y-83853924D01*
X136812513Y-83853924D01*
X136812513Y-82069485D01*
X137760663Y-82069485D01*
X138282610Y-82069485D01*
X138428053Y-82055721D01*
X138538712Y-82018298D01*
X138622596Y-81960309D01*
X138684875Y-81880076D01*
X138724423Y-81775136D01*
X138738856Y-81637908D01*
X138724510Y-81502319D01*
X138685032Y-81397650D01*
X138622596Y-81316729D01*
X138538592Y-81257901D01*
X138427928Y-81220010D01*
X138282610Y-81206087D01*
X137760663Y-81206087D01*
X137760663Y-82069485D01*
X136812513Y-82069485D01*
X136812513Y-80490211D01*
X138233273Y-80490211D01*
X138629616Y-80510459D01*
G37*
G36*
X140650056Y-80490211D02*
G01*
X143204837Y-80490211D01*
X143204837Y-81285466D01*
X141598207Y-81285466D01*
X141598207Y-82045061D01*
X143109093Y-82045061D01*
X143109093Y-82840072D01*
X141598207Y-82840072D01*
X141598207Y-83774545D01*
X143259547Y-83774545D01*
X143259547Y-84569800D01*
X140650056Y-84569800D01*
X140650056Y-80490211D01*
G37*
G36*
X147501801Y-84569800D02*
G01*
X146548033Y-84569800D01*
X146318689Y-83826569D01*
X144837600Y-83826569D01*
X144602638Y-84569800D01*
X143651801Y-84569800D01*
X144152147Y-83069660D01*
X145072562Y-83069660D01*
X146078109Y-83069660D01*
X145578144Y-81446666D01*
X145072562Y-83069660D01*
X144152147Y-83069660D01*
X145012478Y-80490211D01*
X146141124Y-80490211D01*
X147501801Y-84569800D01*
G37*
G36*
X147114188Y-80490211D02*
G01*
X150496951Y-80490211D01*
X150496951Y-81285466D01*
X149280866Y-81285466D01*
X149280866Y-84569800D01*
X148332715Y-84569800D01*
X148332715Y-81285466D01*
X147114188Y-81285466D01*
X147114188Y-80490211D01*
G37*
G36*
X150986414Y-80490211D02*
G01*
X152191264Y-80490211D01*
X153027551Y-82673498D01*
X153869212Y-80490211D01*
X155071375Y-80490211D01*
X155071375Y-84569800D01*
X154175248Y-84569800D01*
X154175248Y-81585885D01*
X153330901Y-83785536D01*
X152729575Y-83785536D01*
X151885227Y-81585885D01*
X151885227Y-84569800D01*
X150986414Y-84569800D01*
X150986414Y-80490211D01*
G37*
G36*
X156000231Y-80490211D02*
G01*
X158555011Y-80490211D01*
X158555011Y-81285466D01*
X156948382Y-81285466D01*
X156948382Y-82045061D01*
X158459268Y-82045061D01*
X158459268Y-82840072D01*
X156948382Y-82840072D01*
X156948382Y-83774545D01*
X158609721Y-83774545D01*
X158609721Y-84569800D01*
X156000231Y-84569800D01*
X156000231Y-80490211D01*
G37*
G36*
X161993950Y-80618683D02*
G01*
X161993950Y-81482081D01*
X161691965Y-81348609D01*
X161405081Y-81255424D01*
X161119573Y-81197191D01*
X160859931Y-81178732D01*
X160634611Y-81192800D01*
X160472438Y-81229550D01*
X160358500Y-81282779D01*
X160269207Y-81363508D01*
X160215316Y-81468315D01*
X160196079Y-81605180D01*
X160208992Y-81709356D01*
X160245444Y-81792895D01*
X160305255Y-81860658D01*
X160440756Y-81937895D01*
X160704348Y-82017706D01*
X161105883Y-82107832D01*
X161418754Y-82194310D01*
X161660200Y-82294145D01*
X161842917Y-82404301D01*
X161977586Y-82523289D01*
X162085108Y-82668859D01*
X162165076Y-82845027D01*
X162216200Y-83057998D01*
X162234529Y-83315612D01*
X162208535Y-83653545D01*
X162136705Y-83925607D01*
X162025070Y-84144455D01*
X161875004Y-84319695D01*
X161688162Y-84454523D01*
X161450689Y-84557217D01*
X161151088Y-84624398D01*
X160775178Y-84648934D01*
X160426137Y-84630607D01*
X160074201Y-84575173D01*
X159725452Y-84484448D01*
X159370782Y-84356575D01*
X159370782Y-83468509D01*
X159724618Y-83654183D01*
X160050998Y-83781628D01*
X160378144Y-83861157D01*
X160685053Y-83886652D01*
X160888537Y-83871810D01*
X161043028Y-83831925D01*
X161159128Y-83771858D01*
X161250905Y-83684533D01*
X161305403Y-83577440D01*
X161324481Y-83444084D01*
X161310859Y-83321384D01*
X161273009Y-83225062D01*
X161212373Y-83149039D01*
X161068012Y-83060659D01*
X160764432Y-82963170D01*
X160398312Y-82873044D01*
X160122732Y-82790720D01*
X159902329Y-82692270D01*
X159728338Y-82580023D01*
X159593532Y-82454901D01*
X159485332Y-82305175D01*
X159405883Y-82129850D01*
X159355792Y-81924063D01*
X159338054Y-81681628D01*
X159362824Y-81379392D01*
X159432341Y-81128402D01*
X159542433Y-80919111D01*
X159693183Y-80744468D01*
X159878783Y-80607425D01*
X160104277Y-80505322D01*
X160377826Y-80439930D01*
X160709721Y-80416450D01*
X161014679Y-80428889D01*
X161332785Y-80467008D01*
X161653905Y-80529284D01*
X161993950Y-80618683D01*
G37*
G36*
X163065688Y-80490211D02*
G01*
X164013839Y-80490211D01*
X164013839Y-82045061D01*
X165410175Y-82045061D01*
X165410175Y-80490211D01*
X166355395Y-80490211D01*
X166355395Y-84569800D01*
X165410175Y-84569800D01*
X165410175Y-82840072D01*
X164013839Y-82840072D01*
X164013839Y-84569800D01*
X163065688Y-84569800D01*
X163065688Y-80490211D01*
G37*
D11*
X162816862Y-138656478D02*
X163316862Y-140156478D01*
X163316862Y-140156478D02*
X163816862Y-138656478D01*
X165174004Y-140013621D02*
X165102576Y-140085050D01*
X165102576Y-140085050D02*
X164888290Y-140156478D01*
X164888290Y-140156478D02*
X164745433Y-140156478D01*
X164745433Y-140156478D02*
X164531147Y-140085050D01*
X164531147Y-140085050D02*
X164388290Y-139942192D01*
X164388290Y-139942192D02*
X164316861Y-139799335D01*
X164316861Y-139799335D02*
X164245433Y-139513621D01*
X164245433Y-139513621D02*
X164245433Y-139299335D01*
X164245433Y-139299335D02*
X164316861Y-139013621D01*
X164316861Y-139013621D02*
X164388290Y-138870764D01*
X164388290Y-138870764D02*
X164531147Y-138727907D01*
X164531147Y-138727907D02*
X164745433Y-138656478D01*
X164745433Y-138656478D02*
X164888290Y-138656478D01*
X164888290Y-138656478D02*
X165102576Y-138727907D01*
X165102576Y-138727907D02*
X165174004Y-138799335D01*
X166674004Y-140013621D02*
X166602576Y-140085050D01*
X166602576Y-140085050D02*
X166388290Y-140156478D01*
X166388290Y-140156478D02*
X166245433Y-140156478D01*
X166245433Y-140156478D02*
X166031147Y-140085050D01*
X166031147Y-140085050D02*
X165888290Y-139942192D01*
X165888290Y-139942192D02*
X165816861Y-139799335D01*
X165816861Y-139799335D02*
X165745433Y-139513621D01*
X165745433Y-139513621D02*
X165745433Y-139299335D01*
X165745433Y-139299335D02*
X165816861Y-139013621D01*
X165816861Y-139013621D02*
X165888290Y-138870764D01*
X165888290Y-138870764D02*
X166031147Y-138727907D01*
X166031147Y-138727907D02*
X166245433Y-138656478D01*
X166245433Y-138656478D02*
X166388290Y-138656478D01*
X166388290Y-138656478D02*
X166602576Y-138727907D01*
X166602576Y-138727907D02*
X166674004Y-138799335D01*
X167388290Y-140085050D02*
X167388290Y-140156478D01*
X167388290Y-140156478D02*
X167316861Y-140299335D01*
X167316861Y-140299335D02*
X167245433Y-140370764D01*
X167816862Y-138656478D02*
X168674005Y-138656478D01*
X168245433Y-140156478D02*
X168245433Y-138656478D01*
X169031147Y-138656478D02*
X170031147Y-140156478D01*
X170031147Y-138656478D02*
X169031147Y-140156478D01*
X170674004Y-140085050D02*
X170674004Y-140156478D01*
X170674004Y-140156478D02*
X170602575Y-140299335D01*
X170602575Y-140299335D02*
X170531147Y-140370764D01*
X172174004Y-140156478D02*
X171674004Y-139442192D01*
X171316861Y-140156478D02*
X171316861Y-138656478D01*
X171316861Y-138656478D02*
X171888290Y-138656478D01*
X171888290Y-138656478D02*
X172031147Y-138727907D01*
X172031147Y-138727907D02*
X172102576Y-138799335D01*
X172102576Y-138799335D02*
X172174004Y-138942192D01*
X172174004Y-138942192D02*
X172174004Y-139156478D01*
X172174004Y-139156478D02*
X172102576Y-139299335D01*
X172102576Y-139299335D02*
X172031147Y-139370764D01*
X172031147Y-139370764D02*
X171888290Y-139442192D01*
X171888290Y-139442192D02*
X171316861Y-139442192D01*
X172674004Y-138656478D02*
X173674004Y-140156478D01*
X173674004Y-138656478D02*
X172674004Y-140156478D01*
X174316861Y-140085050D02*
X174316861Y-140156478D01*
X174316861Y-140156478D02*
X174245432Y-140299335D01*
X174245432Y-140299335D02*
X174174004Y-140370764D01*
X175745433Y-138727907D02*
X175602576Y-138656478D01*
X175602576Y-138656478D02*
X175388290Y-138656478D01*
X175388290Y-138656478D02*
X175174004Y-138727907D01*
X175174004Y-138727907D02*
X175031147Y-138870764D01*
X175031147Y-138870764D02*
X174959718Y-139013621D01*
X174959718Y-139013621D02*
X174888290Y-139299335D01*
X174888290Y-139299335D02*
X174888290Y-139513621D01*
X174888290Y-139513621D02*
X174959718Y-139799335D01*
X174959718Y-139799335D02*
X175031147Y-139942192D01*
X175031147Y-139942192D02*
X175174004Y-140085050D01*
X175174004Y-140085050D02*
X175388290Y-140156478D01*
X175388290Y-140156478D02*
X175531147Y-140156478D01*
X175531147Y-140156478D02*
X175745433Y-140085050D01*
X175745433Y-140085050D02*
X175816861Y-140013621D01*
X175816861Y-140013621D02*
X175816861Y-139513621D01*
X175816861Y-139513621D02*
X175531147Y-139513621D01*
X176459718Y-140156478D02*
X176459718Y-138656478D01*
X176459718Y-138656478D02*
X177316861Y-140156478D01*
X177316861Y-140156478D02*
X177316861Y-138656478D01*
X178031147Y-140156478D02*
X178031147Y-138656478D01*
X178031147Y-138656478D02*
X178388290Y-138656478D01*
X178388290Y-138656478D02*
X178602576Y-138727907D01*
X178602576Y-138727907D02*
X178745433Y-138870764D01*
X178745433Y-138870764D02*
X178816862Y-139013621D01*
X178816862Y-139013621D02*
X178888290Y-139299335D01*
X178888290Y-139299335D02*
X178888290Y-139513621D01*
X178888290Y-139513621D02*
X178816862Y-139799335D01*
X178816862Y-139799335D02*
X178745433Y-139942192D01*
X178745433Y-139942192D02*
X178602576Y-140085050D01*
X178602576Y-140085050D02*
X178388290Y-140156478D01*
X178388290Y-140156478D02*
X178031147Y-140156478D01*
D12*
X160099521Y-144850904D02*
X160480473Y-146184238D01*
X160480473Y-146184238D02*
X160861426Y-145231857D01*
X160861426Y-145231857D02*
X161242378Y-146184238D01*
X161242378Y-146184238D02*
X161623330Y-144850904D01*
X162670949Y-146184238D02*
X162480473Y-146089000D01*
X162480473Y-146089000D02*
X162385235Y-145993761D01*
X162385235Y-145993761D02*
X162289997Y-145803285D01*
X162289997Y-145803285D02*
X162289997Y-145231857D01*
X162289997Y-145231857D02*
X162385235Y-145041380D01*
X162385235Y-145041380D02*
X162480473Y-144946142D01*
X162480473Y-144946142D02*
X162670949Y-144850904D01*
X162670949Y-144850904D02*
X162956664Y-144850904D01*
X162956664Y-144850904D02*
X163147140Y-144946142D01*
X163147140Y-144946142D02*
X163242378Y-145041380D01*
X163242378Y-145041380D02*
X163337616Y-145231857D01*
X163337616Y-145231857D02*
X163337616Y-145803285D01*
X163337616Y-145803285D02*
X163242378Y-145993761D01*
X163242378Y-145993761D02*
X163147140Y-146089000D01*
X163147140Y-146089000D02*
X162956664Y-146184238D01*
X162956664Y-146184238D02*
X162670949Y-146184238D01*
X164194759Y-146184238D02*
X164194759Y-144850904D01*
X164194759Y-145231857D02*
X164289997Y-145041380D01*
X164289997Y-145041380D02*
X164385235Y-144946142D01*
X164385235Y-144946142D02*
X164575711Y-144850904D01*
X164575711Y-144850904D02*
X164766188Y-144850904D01*
X165432854Y-146184238D02*
X165432854Y-144184238D01*
X165623330Y-145422333D02*
X166194759Y-146184238D01*
X166194759Y-144850904D02*
X165432854Y-145612809D01*
X167051902Y-146184238D02*
X167051902Y-144850904D01*
X167051902Y-144184238D02*
X166956664Y-144279476D01*
X166956664Y-144279476D02*
X167051902Y-144374714D01*
X167051902Y-144374714D02*
X167147140Y-144279476D01*
X167147140Y-144279476D02*
X167051902Y-144184238D01*
X167051902Y-144184238D02*
X167051902Y-144374714D01*
X168004283Y-144850904D02*
X168004283Y-146184238D01*
X168004283Y-145041380D02*
X168099521Y-144946142D01*
X168099521Y-144946142D02*
X168289997Y-144850904D01*
X168289997Y-144850904D02*
X168575712Y-144850904D01*
X168575712Y-144850904D02*
X168766188Y-144946142D01*
X168766188Y-144946142D02*
X168861426Y-145136619D01*
X168861426Y-145136619D02*
X168861426Y-146184238D01*
X169813807Y-144850904D02*
X169813807Y-146850904D01*
X169813807Y-144946142D02*
X170004283Y-144850904D01*
X170004283Y-144850904D02*
X170385236Y-144850904D01*
X170385236Y-144850904D02*
X170575712Y-144946142D01*
X170575712Y-144946142D02*
X170670950Y-145041380D01*
X170670950Y-145041380D02*
X170766188Y-145231857D01*
X170766188Y-145231857D02*
X170766188Y-145803285D01*
X170766188Y-145803285D02*
X170670950Y-145993761D01*
X170670950Y-145993761D02*
X170575712Y-146089000D01*
X170575712Y-146089000D02*
X170385236Y-146184238D01*
X170385236Y-146184238D02*
X170004283Y-146184238D01*
X170004283Y-146184238D02*
X169813807Y-146089000D01*
X171623331Y-146184238D02*
X171623331Y-144850904D01*
X171623331Y-145231857D02*
X171718569Y-145041380D01*
X171718569Y-145041380D02*
X171813807Y-144946142D01*
X171813807Y-144946142D02*
X172004283Y-144850904D01*
X172004283Y-144850904D02*
X172194760Y-144850904D01*
X173147140Y-146184238D02*
X172956664Y-146089000D01*
X172956664Y-146089000D02*
X172861426Y-145993761D01*
X172861426Y-145993761D02*
X172766188Y-145803285D01*
X172766188Y-145803285D02*
X172766188Y-145231857D01*
X172766188Y-145231857D02*
X172861426Y-145041380D01*
X172861426Y-145041380D02*
X172956664Y-144946142D01*
X172956664Y-144946142D02*
X173147140Y-144850904D01*
X173147140Y-144850904D02*
X173432855Y-144850904D01*
X173432855Y-144850904D02*
X173623331Y-144946142D01*
X173623331Y-144946142D02*
X173718569Y-145041380D01*
X173718569Y-145041380D02*
X173813807Y-145231857D01*
X173813807Y-145231857D02*
X173813807Y-145803285D01*
X173813807Y-145803285D02*
X173718569Y-145993761D01*
X173718569Y-145993761D02*
X173623331Y-146089000D01*
X173623331Y-146089000D02*
X173432855Y-146184238D01*
X173432855Y-146184238D02*
X173147140Y-146184238D01*
X175528093Y-144850904D02*
X175528093Y-146469952D01*
X175528093Y-146469952D02*
X175432855Y-146660428D01*
X175432855Y-146660428D02*
X175337617Y-146755666D01*
X175337617Y-146755666D02*
X175147140Y-146850904D01*
X175147140Y-146850904D02*
X174861426Y-146850904D01*
X174861426Y-146850904D02*
X174670950Y-146755666D01*
X175528093Y-146089000D02*
X175337617Y-146184238D01*
X175337617Y-146184238D02*
X174956664Y-146184238D01*
X174956664Y-146184238D02*
X174766188Y-146089000D01*
X174766188Y-146089000D02*
X174670950Y-145993761D01*
X174670950Y-145993761D02*
X174575712Y-145803285D01*
X174575712Y-145803285D02*
X174575712Y-145231857D01*
X174575712Y-145231857D02*
X174670950Y-145041380D01*
X174670950Y-145041380D02*
X174766188Y-144946142D01*
X174766188Y-144946142D02*
X174956664Y-144850904D01*
X174956664Y-144850904D02*
X175337617Y-144850904D01*
X175337617Y-144850904D02*
X175528093Y-144946142D01*
X176480474Y-146184238D02*
X176480474Y-144850904D01*
X176480474Y-145231857D02*
X176575712Y-145041380D01*
X176575712Y-145041380D02*
X176670950Y-144946142D01*
X176670950Y-144946142D02*
X176861426Y-144850904D01*
X176861426Y-144850904D02*
X177051903Y-144850904D01*
X178480474Y-146089000D02*
X178289998Y-146184238D01*
X178289998Y-146184238D02*
X177909045Y-146184238D01*
X177909045Y-146184238D02*
X177718569Y-146089000D01*
X177718569Y-146089000D02*
X177623331Y-145898523D01*
X177623331Y-145898523D02*
X177623331Y-145136619D01*
X177623331Y-145136619D02*
X177718569Y-144946142D01*
X177718569Y-144946142D02*
X177909045Y-144850904D01*
X177909045Y-144850904D02*
X178289998Y-144850904D01*
X178289998Y-144850904D02*
X178480474Y-144946142D01*
X178480474Y-144946142D02*
X178575712Y-145136619D01*
X178575712Y-145136619D02*
X178575712Y-145327095D01*
X178575712Y-145327095D02*
X177623331Y-145517571D01*
X179337617Y-146089000D02*
X179528093Y-146184238D01*
X179528093Y-146184238D02*
X179909045Y-146184238D01*
X179909045Y-146184238D02*
X180099522Y-146089000D01*
X180099522Y-146089000D02*
X180194760Y-145898523D01*
X180194760Y-145898523D02*
X180194760Y-145803285D01*
X180194760Y-145803285D02*
X180099522Y-145612809D01*
X180099522Y-145612809D02*
X179909045Y-145517571D01*
X179909045Y-145517571D02*
X179623331Y-145517571D01*
X179623331Y-145517571D02*
X179432855Y-145422333D01*
X179432855Y-145422333D02*
X179337617Y-145231857D01*
X179337617Y-145231857D02*
X179337617Y-145136619D01*
X179337617Y-145136619D02*
X179432855Y-144946142D01*
X179432855Y-144946142D02*
X179623331Y-144850904D01*
X179623331Y-144850904D02*
X179909045Y-144850904D01*
X179909045Y-144850904D02*
X180099522Y-144946142D01*
X180956665Y-146089000D02*
X181147141Y-146184238D01*
X181147141Y-146184238D02*
X181528093Y-146184238D01*
X181528093Y-146184238D02*
X181718570Y-146089000D01*
X181718570Y-146089000D02*
X181813808Y-145898523D01*
X181813808Y-145898523D02*
X181813808Y-145803285D01*
X181813808Y-145803285D02*
X181718570Y-145612809D01*
X181718570Y-145612809D02*
X181528093Y-145517571D01*
X181528093Y-145517571D02*
X181242379Y-145517571D01*
X181242379Y-145517571D02*
X181051903Y-145422333D01*
X181051903Y-145422333D02*
X180956665Y-145231857D01*
X180956665Y-145231857D02*
X180956665Y-145136619D01*
X180956665Y-145136619D02*
X181051903Y-144946142D01*
X181051903Y-144946142D02*
X181242379Y-144850904D01*
X181242379Y-144850904D02*
X181528093Y-144850904D01*
X181528093Y-144850904D02*
X181718570Y-144946142D01*
X182670951Y-145993761D02*
X182766189Y-146089000D01*
X182766189Y-146089000D02*
X182670951Y-146184238D01*
X182670951Y-146184238D02*
X182575713Y-146089000D01*
X182575713Y-146089000D02*
X182670951Y-145993761D01*
X182670951Y-145993761D02*
X182670951Y-146184238D01*
X184480475Y-146089000D02*
X184289999Y-146184238D01*
X184289999Y-146184238D02*
X183909046Y-146184238D01*
X183909046Y-146184238D02*
X183718570Y-146089000D01*
X183718570Y-146089000D02*
X183623332Y-145993761D01*
X183623332Y-145993761D02*
X183528094Y-145803285D01*
X183528094Y-145803285D02*
X183528094Y-145231857D01*
X183528094Y-145231857D02*
X183623332Y-145041380D01*
X183623332Y-145041380D02*
X183718570Y-144946142D01*
X183718570Y-144946142D02*
X183909046Y-144850904D01*
X183909046Y-144850904D02*
X184289999Y-144850904D01*
X184289999Y-144850904D02*
X184480475Y-144946142D01*
X186194761Y-146184238D02*
X186194761Y-145136619D01*
X186194761Y-145136619D02*
X186099523Y-144946142D01*
X186099523Y-144946142D02*
X185909047Y-144850904D01*
X185909047Y-144850904D02*
X185528094Y-144850904D01*
X185528094Y-144850904D02*
X185337618Y-144946142D01*
X186194761Y-146089000D02*
X186004285Y-146184238D01*
X186004285Y-146184238D02*
X185528094Y-146184238D01*
X185528094Y-146184238D02*
X185337618Y-146089000D01*
X185337618Y-146089000D02*
X185242380Y-145898523D01*
X185242380Y-145898523D02*
X185242380Y-145708047D01*
X185242380Y-145708047D02*
X185337618Y-145517571D01*
X185337618Y-145517571D02*
X185528094Y-145422333D01*
X185528094Y-145422333D02*
X186004285Y-145422333D01*
X186004285Y-145422333D02*
X186194761Y-145327095D01*
D13*
X175175743Y-147254252D02*
X175413838Y-147920919D01*
X175413838Y-147920919D02*
X175651933Y-147254252D01*
X176556695Y-147920919D02*
X175985267Y-147920919D01*
X176270981Y-147920919D02*
X176270981Y-146920919D01*
X176270981Y-146920919D02*
X176175743Y-147063776D01*
X176175743Y-147063776D02*
X176080505Y-147159014D01*
X176080505Y-147159014D02*
X175985267Y-147206633D01*
X177747172Y-147539966D02*
X178509077Y-147539966D01*
X179937648Y-146920919D02*
X180032886Y-146920919D01*
X180032886Y-146920919D02*
X180128124Y-146968538D01*
X180128124Y-146968538D02*
X180175743Y-147016157D01*
X180175743Y-147016157D02*
X180223362Y-147111395D01*
X180223362Y-147111395D02*
X180270981Y-147301871D01*
X180270981Y-147301871D02*
X180270981Y-147539966D01*
X180270981Y-147539966D02*
X180223362Y-147730442D01*
X180223362Y-147730442D02*
X180175743Y-147825680D01*
X180175743Y-147825680D02*
X180128124Y-147873300D01*
X180128124Y-147873300D02*
X180032886Y-147920919D01*
X180032886Y-147920919D02*
X179937648Y-147920919D01*
X179937648Y-147920919D02*
X179842410Y-147873300D01*
X179842410Y-147873300D02*
X179794791Y-147825680D01*
X179794791Y-147825680D02*
X179747172Y-147730442D01*
X179747172Y-147730442D02*
X179699553Y-147539966D01*
X179699553Y-147539966D02*
X179699553Y-147301871D01*
X179699553Y-147301871D02*
X179747172Y-147111395D01*
X179747172Y-147111395D02*
X179794791Y-147016157D01*
X179794791Y-147016157D02*
X179842410Y-146968538D01*
X179842410Y-146968538D02*
X179937648Y-146920919D01*
X180651934Y-147016157D02*
X180699553Y-146968538D01*
X180699553Y-146968538D02*
X180794791Y-146920919D01*
X180794791Y-146920919D02*
X181032886Y-146920919D01*
X181032886Y-146920919D02*
X181128124Y-146968538D01*
X181128124Y-146968538D02*
X181175743Y-147016157D01*
X181175743Y-147016157D02*
X181223362Y-147111395D01*
X181223362Y-147111395D02*
X181223362Y-147206633D01*
X181223362Y-147206633D02*
X181175743Y-147349490D01*
X181175743Y-147349490D02*
X180604315Y-147920919D01*
X180604315Y-147920919D02*
X181223362Y-147920919D01*
X182366219Y-146873300D02*
X181509077Y-148159014D01*
X182651934Y-147016157D02*
X182699553Y-146968538D01*
X182699553Y-146968538D02*
X182794791Y-146920919D01*
X182794791Y-146920919D02*
X183032886Y-146920919D01*
X183032886Y-146920919D02*
X183128124Y-146968538D01*
X183128124Y-146968538D02*
X183175743Y-147016157D01*
X183175743Y-147016157D02*
X183223362Y-147111395D01*
X183223362Y-147111395D02*
X183223362Y-147206633D01*
X183223362Y-147206633D02*
X183175743Y-147349490D01*
X183175743Y-147349490D02*
X182604315Y-147920919D01*
X182604315Y-147920919D02*
X183223362Y-147920919D01*
X183842410Y-146920919D02*
X183937648Y-146920919D01*
X183937648Y-146920919D02*
X184032886Y-146968538D01*
X184032886Y-146968538D02*
X184080505Y-147016157D01*
X184080505Y-147016157D02*
X184128124Y-147111395D01*
X184128124Y-147111395D02*
X184175743Y-147301871D01*
X184175743Y-147301871D02*
X184175743Y-147539966D01*
X184175743Y-147539966D02*
X184128124Y-147730442D01*
X184128124Y-147730442D02*
X184080505Y-147825680D01*
X184080505Y-147825680D02*
X184032886Y-147873300D01*
X184032886Y-147873300D02*
X183937648Y-147920919D01*
X183937648Y-147920919D02*
X183842410Y-147920919D01*
X183842410Y-147920919D02*
X183747172Y-147873300D01*
X183747172Y-147873300D02*
X183699553Y-147825680D01*
X183699553Y-147825680D02*
X183651934Y-147730442D01*
X183651934Y-147730442D02*
X183604315Y-147539966D01*
X183604315Y-147539966D02*
X183604315Y-147301871D01*
X183604315Y-147301871D02*
X183651934Y-147111395D01*
X183651934Y-147111395D02*
X183699553Y-147016157D01*
X183699553Y-147016157D02*
X183747172Y-146968538D01*
X183747172Y-146968538D02*
X183842410Y-146920919D01*
X184556696Y-147016157D02*
X184604315Y-146968538D01*
X184604315Y-146968538D02*
X184699553Y-146920919D01*
X184699553Y-146920919D02*
X184937648Y-146920919D01*
X184937648Y-146920919D02*
X185032886Y-146968538D01*
X185032886Y-146968538D02*
X185080505Y-147016157D01*
X185080505Y-147016157D02*
X185128124Y-147111395D01*
X185128124Y-147111395D02*
X185128124Y-147206633D01*
X185128124Y-147206633D02*
X185080505Y-147349490D01*
X185080505Y-147349490D02*
X184509077Y-147920919D01*
X184509077Y-147920919D02*
X185128124Y-147920919D01*
X185985267Y-146920919D02*
X185794791Y-146920919D01*
X185794791Y-146920919D02*
X185699553Y-146968538D01*
X185699553Y-146968538D02*
X185651934Y-147016157D01*
X185651934Y-147016157D02*
X185556696Y-147159014D01*
X185556696Y-147159014D02*
X185509077Y-147349490D01*
X185509077Y-147349490D02*
X185509077Y-147730442D01*
X185509077Y-147730442D02*
X185556696Y-147825680D01*
X185556696Y-147825680D02*
X185604315Y-147873300D01*
X185604315Y-147873300D02*
X185699553Y-147920919D01*
X185699553Y-147920919D02*
X185890029Y-147920919D01*
X185890029Y-147920919D02*
X185985267Y-147873300D01*
X185985267Y-147873300D02*
X186032886Y-147825680D01*
X186032886Y-147825680D02*
X186080505Y-147730442D01*
X186080505Y-147730442D02*
X186080505Y-147492347D01*
X186080505Y-147492347D02*
X186032886Y-147397109D01*
X186032886Y-147397109D02*
X185985267Y-147349490D01*
X185985267Y-147349490D02*
X185890029Y-147301871D01*
X185890029Y-147301871D02*
X185699553Y-147301871D01*
X185699553Y-147301871D02*
X185604315Y-147349490D01*
X185604315Y-147349490D02*
X185556696Y-147397109D01*
X185556696Y-147397109D02*
X185509077Y-147492347D01*
D10*
X166290875Y-72150628D02*
X166790875Y-73650628D01*
X166790875Y-73650628D02*
X167290875Y-72150628D01*
X168648017Y-73507771D02*
X168576589Y-73579200D01*
X168576589Y-73579200D02*
X168362303Y-73650628D01*
X168362303Y-73650628D02*
X168219446Y-73650628D01*
X168219446Y-73650628D02*
X168005160Y-73579200D01*
X168005160Y-73579200D02*
X167862303Y-73436342D01*
X167862303Y-73436342D02*
X167790874Y-73293485D01*
X167790874Y-73293485D02*
X167719446Y-73007771D01*
X167719446Y-73007771D02*
X167719446Y-72793485D01*
X167719446Y-72793485D02*
X167790874Y-72507771D01*
X167790874Y-72507771D02*
X167862303Y-72364914D01*
X167862303Y-72364914D02*
X168005160Y-72222057D01*
X168005160Y-72222057D02*
X168219446Y-72150628D01*
X168219446Y-72150628D02*
X168362303Y-72150628D01*
X168362303Y-72150628D02*
X168576589Y-72222057D01*
X168576589Y-72222057D02*
X168648017Y-72293485D01*
X170148017Y-73507771D02*
X170076589Y-73579200D01*
X170076589Y-73579200D02*
X169862303Y-73650628D01*
X169862303Y-73650628D02*
X169719446Y-73650628D01*
X169719446Y-73650628D02*
X169505160Y-73579200D01*
X169505160Y-73579200D02*
X169362303Y-73436342D01*
X169362303Y-73436342D02*
X169290874Y-73293485D01*
X169290874Y-73293485D02*
X169219446Y-73007771D01*
X169219446Y-73007771D02*
X169219446Y-72793485D01*
X169219446Y-72793485D02*
X169290874Y-72507771D01*
X169290874Y-72507771D02*
X169362303Y-72364914D01*
X169362303Y-72364914D02*
X169505160Y-72222057D01*
X169505160Y-72222057D02*
X169719446Y-72150628D01*
X169719446Y-72150628D02*
X169862303Y-72150628D01*
X169862303Y-72150628D02*
X170076589Y-72222057D01*
X170076589Y-72222057D02*
X170148017Y-72293485D01*
X170862303Y-73579200D02*
X170862303Y-73650628D01*
X170862303Y-73650628D02*
X170790874Y-73793485D01*
X170790874Y-73793485D02*
X170719446Y-73864914D01*
X172290875Y-72222057D02*
X172148018Y-72150628D01*
X172148018Y-72150628D02*
X171933732Y-72150628D01*
X171933732Y-72150628D02*
X171719446Y-72222057D01*
X171719446Y-72222057D02*
X171576589Y-72364914D01*
X171576589Y-72364914D02*
X171505160Y-72507771D01*
X171505160Y-72507771D02*
X171433732Y-72793485D01*
X171433732Y-72793485D02*
X171433732Y-73007771D01*
X171433732Y-73007771D02*
X171505160Y-73293485D01*
X171505160Y-73293485D02*
X171576589Y-73436342D01*
X171576589Y-73436342D02*
X171719446Y-73579200D01*
X171719446Y-73579200D02*
X171933732Y-73650628D01*
X171933732Y-73650628D02*
X172076589Y-73650628D01*
X172076589Y-73650628D02*
X172290875Y-73579200D01*
X172290875Y-73579200D02*
X172362303Y-73507771D01*
X172362303Y-73507771D02*
X172362303Y-73007771D01*
X172362303Y-73007771D02*
X172076589Y-73007771D01*
X173005160Y-73650628D02*
X173005160Y-72150628D01*
X173005160Y-72150628D02*
X173862303Y-73650628D01*
X173862303Y-73650628D02*
X173862303Y-72150628D01*
X174576589Y-73650628D02*
X174576589Y-72150628D01*
X174576589Y-72150628D02*
X174933732Y-72150628D01*
X174933732Y-72150628D02*
X175148018Y-72222057D01*
X175148018Y-72222057D02*
X175290875Y-72364914D01*
X175290875Y-72364914D02*
X175362304Y-72507771D01*
X175362304Y-72507771D02*
X175433732Y-72793485D01*
X175433732Y-72793485D02*
X175433732Y-73007771D01*
X175433732Y-73007771D02*
X175362304Y-73293485D01*
X175362304Y-73293485D02*
X175290875Y-73436342D01*
X175290875Y-73436342D02*
X175148018Y-73579200D01*
X175148018Y-73579200D02*
X174933732Y-73650628D01*
X174933732Y-73650628D02*
X174576589Y-73650628D01*
X104590225Y-62300828D02*
X105447368Y-62300828D01*
X105018796Y-63800828D02*
X105018796Y-62300828D01*
X105947367Y-63800828D02*
X105947367Y-62300828D01*
X105947367Y-63015114D02*
X106804510Y-63015114D01*
X106804510Y-63800828D02*
X106804510Y-62300828D01*
X108375939Y-63800828D02*
X107875939Y-63086542D01*
X107518796Y-63800828D02*
X107518796Y-62300828D01*
X107518796Y-62300828D02*
X108090225Y-62300828D01*
X108090225Y-62300828D02*
X108233082Y-62372257D01*
X108233082Y-62372257D02*
X108304511Y-62443685D01*
X108304511Y-62443685D02*
X108375939Y-62586542D01*
X108375939Y-62586542D02*
X108375939Y-62800828D01*
X108375939Y-62800828D02*
X108304511Y-62943685D01*
X108304511Y-62943685D02*
X108233082Y-63015114D01*
X108233082Y-63015114D02*
X108090225Y-63086542D01*
X108090225Y-63086542D02*
X107518796Y-63086542D01*
X109018796Y-62300828D02*
X109018796Y-63515114D01*
X109018796Y-63515114D02*
X109090225Y-63657971D01*
X109090225Y-63657971D02*
X109161654Y-63729400D01*
X109161654Y-63729400D02*
X109304511Y-63800828D01*
X109304511Y-63800828D02*
X109590225Y-63800828D01*
X109590225Y-63800828D02*
X109733082Y-63729400D01*
X109733082Y-63729400D02*
X109804511Y-63657971D01*
X109804511Y-63657971D02*
X109875939Y-63515114D01*
X109875939Y-63515114D02*
X109875939Y-62300828D01*
X112875940Y-62800828D02*
X111733082Y-63229400D01*
X111733082Y-63229400D02*
X112875940Y-63657971D01*
X113590225Y-63229400D02*
X114733083Y-63229400D01*
X115447368Y-62800828D02*
X116590226Y-63229400D01*
X116590226Y-63229400D02*
X115447368Y-63657971D01*
X118447368Y-63800828D02*
X118447368Y-62300828D01*
X119161654Y-63800828D02*
X119161654Y-62300828D01*
X119161654Y-62300828D02*
X120018797Y-63800828D01*
X120018797Y-63800828D02*
X120018797Y-62300828D01*
X120518798Y-62300828D02*
X121375941Y-62300828D01*
X120947369Y-63800828D02*
X120947369Y-62300828D01*
D14*
X155288795Y-122412000D02*
X155431652Y-122459619D01*
X155431652Y-122459619D02*
X155669747Y-122459619D01*
X155669747Y-122459619D02*
X155764985Y-122412000D01*
X155764985Y-122412000D02*
X155812604Y-122364380D01*
X155812604Y-122364380D02*
X155860223Y-122269142D01*
X155860223Y-122269142D02*
X155860223Y-122173904D01*
X155860223Y-122173904D02*
X155812604Y-122078666D01*
X155812604Y-122078666D02*
X155764985Y-122031047D01*
X155764985Y-122031047D02*
X155669747Y-121983428D01*
X155669747Y-121983428D02*
X155479271Y-121935809D01*
X155479271Y-121935809D02*
X155384033Y-121888190D01*
X155384033Y-121888190D02*
X155336414Y-121840571D01*
X155336414Y-121840571D02*
X155288795Y-121745333D01*
X155288795Y-121745333D02*
X155288795Y-121650095D01*
X155288795Y-121650095D02*
X155336414Y-121554857D01*
X155336414Y-121554857D02*
X155384033Y-121507238D01*
X155384033Y-121507238D02*
X155479271Y-121459619D01*
X155479271Y-121459619D02*
X155717366Y-121459619D01*
X155717366Y-121459619D02*
X155860223Y-121507238D01*
X156288795Y-122459619D02*
X156288795Y-121459619D01*
X156288795Y-121459619D02*
X156669747Y-121459619D01*
X156669747Y-121459619D02*
X156764985Y-121507238D01*
X156764985Y-121507238D02*
X156812604Y-121554857D01*
X156812604Y-121554857D02*
X156860223Y-121650095D01*
X156860223Y-121650095D02*
X156860223Y-121792952D01*
X156860223Y-121792952D02*
X156812604Y-121888190D01*
X156812604Y-121888190D02*
X156764985Y-121935809D01*
X156764985Y-121935809D02*
X156669747Y-121983428D01*
X156669747Y-121983428D02*
X156288795Y-121983428D01*
X157288795Y-121935809D02*
X157622128Y-121935809D01*
X157764985Y-122459619D02*
X157288795Y-122459619D01*
X157288795Y-122459619D02*
X157288795Y-121459619D01*
X157288795Y-121459619D02*
X157764985Y-121459619D01*
X158145938Y-122173904D02*
X158622128Y-122173904D01*
X158050700Y-122459619D02*
X158384033Y-121459619D01*
X158384033Y-121459619D02*
X158717366Y-122459619D01*
X159050700Y-122459619D02*
X159050700Y-121459619D01*
X159622128Y-122459619D02*
X159193557Y-121888190D01*
X159622128Y-121459619D02*
X159050700Y-122031047D01*
X160050700Y-121935809D02*
X160384033Y-121935809D01*
X160526890Y-122459619D02*
X160050700Y-122459619D01*
X160050700Y-122459619D02*
X160050700Y-121459619D01*
X160050700Y-121459619D02*
X160526890Y-121459619D01*
X161526890Y-122459619D02*
X161193557Y-121983428D01*
X160955462Y-122459619D02*
X160955462Y-121459619D01*
X160955462Y-121459619D02*
X161336414Y-121459619D01*
X161336414Y-121459619D02*
X161431652Y-121507238D01*
X161431652Y-121507238D02*
X161479271Y-121554857D01*
X161479271Y-121554857D02*
X161526890Y-121650095D01*
X161526890Y-121650095D02*
X161526890Y-121792952D01*
X161526890Y-121792952D02*
X161479271Y-121888190D01*
X161479271Y-121888190D02*
X161431652Y-121935809D01*
X161431652Y-121935809D02*
X161336414Y-121983428D01*
X161336414Y-121983428D02*
X160955462Y-121983428D01*
X162717367Y-122459619D02*
X162717367Y-121459619D01*
X163193557Y-122459619D02*
X163193557Y-121459619D01*
X163193557Y-121459619D02*
X163764985Y-122459619D01*
X163764985Y-122459619D02*
X163764985Y-121459619D01*
X129363205Y-123979857D02*
X129410824Y-123932238D01*
X129410824Y-123932238D02*
X129506062Y-123884619D01*
X129506062Y-123884619D02*
X129744157Y-123884619D01*
X129744157Y-123884619D02*
X129839395Y-123932238D01*
X129839395Y-123932238D02*
X129887014Y-123979857D01*
X129887014Y-123979857D02*
X129934633Y-124075095D01*
X129934633Y-124075095D02*
X129934633Y-124170333D01*
X129934633Y-124170333D02*
X129887014Y-124313190D01*
X129887014Y-124313190D02*
X129315586Y-124884619D01*
X129315586Y-124884619D02*
X129934633Y-124884619D01*
X130315586Y-123979857D02*
X130363205Y-123932238D01*
X130363205Y-123932238D02*
X130458443Y-123884619D01*
X130458443Y-123884619D02*
X130696538Y-123884619D01*
X130696538Y-123884619D02*
X130791776Y-123932238D01*
X130791776Y-123932238D02*
X130839395Y-123979857D01*
X130839395Y-123979857D02*
X130887014Y-124075095D01*
X130887014Y-124075095D02*
X130887014Y-124170333D01*
X130887014Y-124170333D02*
X130839395Y-124313190D01*
X130839395Y-124313190D02*
X130267967Y-124884619D01*
X130267967Y-124884619D02*
X130887014Y-124884619D01*
X131506062Y-123884619D02*
X131601300Y-123884619D01*
X131601300Y-123884619D02*
X131696538Y-123932238D01*
X131696538Y-123932238D02*
X131744157Y-123979857D01*
X131744157Y-123979857D02*
X131791776Y-124075095D01*
X131791776Y-124075095D02*
X131839395Y-124265571D01*
X131839395Y-124265571D02*
X131839395Y-124503666D01*
X131839395Y-124503666D02*
X131791776Y-124694142D01*
X131791776Y-124694142D02*
X131744157Y-124789380D01*
X131744157Y-124789380D02*
X131696538Y-124837000D01*
X131696538Y-124837000D02*
X131601300Y-124884619D01*
X131601300Y-124884619D02*
X131506062Y-124884619D01*
X131506062Y-124884619D02*
X131410824Y-124837000D01*
X131410824Y-124837000D02*
X131363205Y-124789380D01*
X131363205Y-124789380D02*
X131315586Y-124694142D01*
X131315586Y-124694142D02*
X131267967Y-124503666D01*
X131267967Y-124503666D02*
X131267967Y-124265571D01*
X131267967Y-124265571D02*
X131315586Y-124075095D01*
X131315586Y-124075095D02*
X131363205Y-123979857D01*
X131363205Y-123979857D02*
X131410824Y-123932238D01*
X131410824Y-123932238D02*
X131506062Y-123884619D01*
X113700707Y-114687894D02*
X113653088Y-114640275D01*
X113653088Y-114640275D02*
X113605469Y-114545037D01*
X113605469Y-114545037D02*
X113605469Y-114306942D01*
X113605469Y-114306942D02*
X113653088Y-114211704D01*
X113653088Y-114211704D02*
X113700707Y-114164085D01*
X113700707Y-114164085D02*
X113795945Y-114116466D01*
X113795945Y-114116466D02*
X113891183Y-114116466D01*
X113891183Y-114116466D02*
X114034040Y-114164085D01*
X114034040Y-114164085D02*
X114605469Y-114735513D01*
X114605469Y-114735513D02*
X114605469Y-114116466D01*
X113700707Y-113735513D02*
X113653088Y-113687894D01*
X113653088Y-113687894D02*
X113605469Y-113592656D01*
X113605469Y-113592656D02*
X113605469Y-113354561D01*
X113605469Y-113354561D02*
X113653088Y-113259323D01*
X113653088Y-113259323D02*
X113700707Y-113211704D01*
X113700707Y-113211704D02*
X113795945Y-113164085D01*
X113795945Y-113164085D02*
X113891183Y-113164085D01*
X113891183Y-113164085D02*
X114034040Y-113211704D01*
X114034040Y-113211704D02*
X114605469Y-113783132D01*
X114605469Y-113783132D02*
X114605469Y-113164085D01*
X113605469Y-112545037D02*
X113605469Y-112449799D01*
X113605469Y-112449799D02*
X113653088Y-112354561D01*
X113653088Y-112354561D02*
X113700707Y-112306942D01*
X113700707Y-112306942D02*
X113795945Y-112259323D01*
X113795945Y-112259323D02*
X113986421Y-112211704D01*
X113986421Y-112211704D02*
X114224516Y-112211704D01*
X114224516Y-112211704D02*
X114414992Y-112259323D01*
X114414992Y-112259323D02*
X114510230Y-112306942D01*
X114510230Y-112306942D02*
X114557850Y-112354561D01*
X114557850Y-112354561D02*
X114605469Y-112449799D01*
X114605469Y-112449799D02*
X114605469Y-112545037D01*
X114605469Y-112545037D02*
X114557850Y-112640275D01*
X114557850Y-112640275D02*
X114510230Y-112687894D01*
X114510230Y-112687894D02*
X114414992Y-112735513D01*
X114414992Y-112735513D02*
X114224516Y-112783132D01*
X114224516Y-112783132D02*
X113986421Y-112783132D01*
X113986421Y-112783132D02*
X113795945Y-112735513D01*
X113795945Y-112735513D02*
X113700707Y-112687894D01*
X113700707Y-112687894D02*
X113653088Y-112640275D01*
X113653088Y-112640275D02*
X113605469Y-112545037D01*
X176900707Y-100988094D02*
X176853088Y-100940475D01*
X176853088Y-100940475D02*
X176805469Y-100845237D01*
X176805469Y-100845237D02*
X176805469Y-100607142D01*
X176805469Y-100607142D02*
X176853088Y-100511904D01*
X176853088Y-100511904D02*
X176900707Y-100464285D01*
X176900707Y-100464285D02*
X176995945Y-100416666D01*
X176995945Y-100416666D02*
X177091183Y-100416666D01*
X177091183Y-100416666D02*
X177234040Y-100464285D01*
X177234040Y-100464285D02*
X177805469Y-101035713D01*
X177805469Y-101035713D02*
X177805469Y-100416666D01*
X176900707Y-100035713D02*
X176853088Y-99988094D01*
X176853088Y-99988094D02*
X176805469Y-99892856D01*
X176805469Y-99892856D02*
X176805469Y-99654761D01*
X176805469Y-99654761D02*
X176853088Y-99559523D01*
X176853088Y-99559523D02*
X176900707Y-99511904D01*
X176900707Y-99511904D02*
X176995945Y-99464285D01*
X176995945Y-99464285D02*
X177091183Y-99464285D01*
X177091183Y-99464285D02*
X177234040Y-99511904D01*
X177234040Y-99511904D02*
X177805469Y-100083332D01*
X177805469Y-100083332D02*
X177805469Y-99464285D01*
X176805469Y-98845237D02*
X176805469Y-98749999D01*
X176805469Y-98749999D02*
X176853088Y-98654761D01*
X176853088Y-98654761D02*
X176900707Y-98607142D01*
X176900707Y-98607142D02*
X176995945Y-98559523D01*
X176995945Y-98559523D02*
X177186421Y-98511904D01*
X177186421Y-98511904D02*
X177424516Y-98511904D01*
X177424516Y-98511904D02*
X177614992Y-98559523D01*
X177614992Y-98559523D02*
X177710230Y-98607142D01*
X177710230Y-98607142D02*
X177757850Y-98654761D01*
X177757850Y-98654761D02*
X177805469Y-98749999D01*
X177805469Y-98749999D02*
X177805469Y-98845237D01*
X177805469Y-98845237D02*
X177757850Y-98940475D01*
X177757850Y-98940475D02*
X177710230Y-98988094D01*
X177710230Y-98988094D02*
X177614992Y-99035713D01*
X177614992Y-99035713D02*
X177424516Y-99083332D01*
X177424516Y-99083332D02*
X177186421Y-99083332D01*
X177186421Y-99083332D02*
X176995945Y-99035713D01*
X176995945Y-99035713D02*
X176900707Y-98988094D01*
X176900707Y-98988094D02*
X176853088Y-98940475D01*
X176853088Y-98940475D02*
X176805469Y-98845237D01*
X120312605Y-123979857D02*
X120360224Y-123932238D01*
X120360224Y-123932238D02*
X120455462Y-123884619D01*
X120455462Y-123884619D02*
X120693557Y-123884619D01*
X120693557Y-123884619D02*
X120788795Y-123932238D01*
X120788795Y-123932238D02*
X120836414Y-123979857D01*
X120836414Y-123979857D02*
X120884033Y-124075095D01*
X120884033Y-124075095D02*
X120884033Y-124170333D01*
X120884033Y-124170333D02*
X120836414Y-124313190D01*
X120836414Y-124313190D02*
X120264986Y-124884619D01*
X120264986Y-124884619D02*
X120884033Y-124884619D01*
X121264986Y-123979857D02*
X121312605Y-123932238D01*
X121312605Y-123932238D02*
X121407843Y-123884619D01*
X121407843Y-123884619D02*
X121645938Y-123884619D01*
X121645938Y-123884619D02*
X121741176Y-123932238D01*
X121741176Y-123932238D02*
X121788795Y-123979857D01*
X121788795Y-123979857D02*
X121836414Y-124075095D01*
X121836414Y-124075095D02*
X121836414Y-124170333D01*
X121836414Y-124170333D02*
X121788795Y-124313190D01*
X121788795Y-124313190D02*
X121217367Y-124884619D01*
X121217367Y-124884619D02*
X121836414Y-124884619D01*
X122455462Y-123884619D02*
X122550700Y-123884619D01*
X122550700Y-123884619D02*
X122645938Y-123932238D01*
X122645938Y-123932238D02*
X122693557Y-123979857D01*
X122693557Y-123979857D02*
X122741176Y-124075095D01*
X122741176Y-124075095D02*
X122788795Y-124265571D01*
X122788795Y-124265571D02*
X122788795Y-124503666D01*
X122788795Y-124503666D02*
X122741176Y-124694142D01*
X122741176Y-124694142D02*
X122693557Y-124789380D01*
X122693557Y-124789380D02*
X122645938Y-124837000D01*
X122645938Y-124837000D02*
X122550700Y-124884619D01*
X122550700Y-124884619D02*
X122455462Y-124884619D01*
X122455462Y-124884619D02*
X122360224Y-124837000D01*
X122360224Y-124837000D02*
X122312605Y-124789380D01*
X122312605Y-124789380D02*
X122264986Y-124694142D01*
X122264986Y-124694142D02*
X122217367Y-124503666D01*
X122217367Y-124503666D02*
X122217367Y-124265571D01*
X122217367Y-124265571D02*
X122264986Y-124075095D01*
X122264986Y-124075095D02*
X122312605Y-123979857D01*
X122312605Y-123979857D02*
X122360224Y-123932238D01*
X122360224Y-123932238D02*
X122455462Y-123884619D01*
X148312605Y-122819857D02*
X148360224Y-122772238D01*
X148360224Y-122772238D02*
X148455462Y-122724619D01*
X148455462Y-122724619D02*
X148693557Y-122724619D01*
X148693557Y-122724619D02*
X148788795Y-122772238D01*
X148788795Y-122772238D02*
X148836414Y-122819857D01*
X148836414Y-122819857D02*
X148884033Y-122915095D01*
X148884033Y-122915095D02*
X148884033Y-123010333D01*
X148884033Y-123010333D02*
X148836414Y-123153190D01*
X148836414Y-123153190D02*
X148264986Y-123724619D01*
X148264986Y-123724619D02*
X148884033Y-123724619D01*
X149264986Y-122819857D02*
X149312605Y-122772238D01*
X149312605Y-122772238D02*
X149407843Y-122724619D01*
X149407843Y-122724619D02*
X149645938Y-122724619D01*
X149645938Y-122724619D02*
X149741176Y-122772238D01*
X149741176Y-122772238D02*
X149788795Y-122819857D01*
X149788795Y-122819857D02*
X149836414Y-122915095D01*
X149836414Y-122915095D02*
X149836414Y-123010333D01*
X149836414Y-123010333D02*
X149788795Y-123153190D01*
X149788795Y-123153190D02*
X149217367Y-123724619D01*
X149217367Y-123724619D02*
X149836414Y-123724619D01*
X150455462Y-122724619D02*
X150550700Y-122724619D01*
X150550700Y-122724619D02*
X150645938Y-122772238D01*
X150645938Y-122772238D02*
X150693557Y-122819857D01*
X150693557Y-122819857D02*
X150741176Y-122915095D01*
X150741176Y-122915095D02*
X150788795Y-123105571D01*
X150788795Y-123105571D02*
X150788795Y-123343666D01*
X150788795Y-123343666D02*
X150741176Y-123534142D01*
X150741176Y-123534142D02*
X150693557Y-123629380D01*
X150693557Y-123629380D02*
X150645938Y-123677000D01*
X150645938Y-123677000D02*
X150550700Y-123724619D01*
X150550700Y-123724619D02*
X150455462Y-123724619D01*
X150455462Y-123724619D02*
X150360224Y-123677000D01*
X150360224Y-123677000D02*
X150312605Y-123629380D01*
X150312605Y-123629380D02*
X150264986Y-123534142D01*
X150264986Y-123534142D02*
X150217367Y-123343666D01*
X150217367Y-123343666D02*
X150217367Y-123105571D01*
X150217367Y-123105571D02*
X150264986Y-122915095D01*
X150264986Y-122915095D02*
X150312605Y-122819857D01*
X150312605Y-122819857D02*
X150360224Y-122772238D01*
X150360224Y-122772238D02*
X150455462Y-122724619D01*
X176900707Y-114887894D02*
X176853088Y-114840275D01*
X176853088Y-114840275D02*
X176805469Y-114745037D01*
X176805469Y-114745037D02*
X176805469Y-114506942D01*
X176805469Y-114506942D02*
X176853088Y-114411704D01*
X176853088Y-114411704D02*
X176900707Y-114364085D01*
X176900707Y-114364085D02*
X176995945Y-114316466D01*
X176995945Y-114316466D02*
X177091183Y-114316466D01*
X177091183Y-114316466D02*
X177234040Y-114364085D01*
X177234040Y-114364085D02*
X177805469Y-114935513D01*
X177805469Y-114935513D02*
X177805469Y-114316466D01*
X176900707Y-113935513D02*
X176853088Y-113887894D01*
X176853088Y-113887894D02*
X176805469Y-113792656D01*
X176805469Y-113792656D02*
X176805469Y-113554561D01*
X176805469Y-113554561D02*
X176853088Y-113459323D01*
X176853088Y-113459323D02*
X176900707Y-113411704D01*
X176900707Y-113411704D02*
X176995945Y-113364085D01*
X176995945Y-113364085D02*
X177091183Y-113364085D01*
X177091183Y-113364085D02*
X177234040Y-113411704D01*
X177234040Y-113411704D02*
X177805469Y-113983132D01*
X177805469Y-113983132D02*
X177805469Y-113364085D01*
X176805469Y-112745037D02*
X176805469Y-112649799D01*
X176805469Y-112649799D02*
X176853088Y-112554561D01*
X176853088Y-112554561D02*
X176900707Y-112506942D01*
X176900707Y-112506942D02*
X176995945Y-112459323D01*
X176995945Y-112459323D02*
X177186421Y-112411704D01*
X177186421Y-112411704D02*
X177424516Y-112411704D01*
X177424516Y-112411704D02*
X177614992Y-112459323D01*
X177614992Y-112459323D02*
X177710230Y-112506942D01*
X177710230Y-112506942D02*
X177757850Y-112554561D01*
X177757850Y-112554561D02*
X177805469Y-112649799D01*
X177805469Y-112649799D02*
X177805469Y-112745037D01*
X177805469Y-112745037D02*
X177757850Y-112840275D01*
X177757850Y-112840275D02*
X177710230Y-112887894D01*
X177710230Y-112887894D02*
X177614992Y-112935513D01*
X177614992Y-112935513D02*
X177424516Y-112983132D01*
X177424516Y-112983132D02*
X177186421Y-112983132D01*
X177186421Y-112983132D02*
X176995945Y-112935513D01*
X176995945Y-112935513D02*
X176900707Y-112887894D01*
X176900707Y-112887894D02*
X176853088Y-112840275D01*
X176853088Y-112840275D02*
X176805469Y-112745037D01*
X106811415Y-142554619D02*
X106811415Y-141554619D01*
X106811415Y-141554619D02*
X107144748Y-142268904D01*
X107144748Y-142268904D02*
X107478081Y-141554619D01*
X107478081Y-141554619D02*
X107478081Y-142554619D01*
X107954272Y-142554619D02*
X107954272Y-141554619D01*
X108430462Y-142554619D02*
X108430462Y-141554619D01*
X108430462Y-141554619D02*
X108668557Y-141554619D01*
X108668557Y-141554619D02*
X108811414Y-141602238D01*
X108811414Y-141602238D02*
X108906652Y-141697476D01*
X108906652Y-141697476D02*
X108954271Y-141792714D01*
X108954271Y-141792714D02*
X109001890Y-141983190D01*
X109001890Y-141983190D02*
X109001890Y-142126047D01*
X109001890Y-142126047D02*
X108954271Y-142316523D01*
X108954271Y-142316523D02*
X108906652Y-142411761D01*
X108906652Y-142411761D02*
X108811414Y-142507000D01*
X108811414Y-142507000D02*
X108668557Y-142554619D01*
X108668557Y-142554619D02*
X108430462Y-142554619D01*
X109430462Y-142554619D02*
X109430462Y-141554619D01*
X111192366Y-141602238D02*
X111097128Y-141554619D01*
X111097128Y-141554619D02*
X110954271Y-141554619D01*
X110954271Y-141554619D02*
X110811414Y-141602238D01*
X110811414Y-141602238D02*
X110716176Y-141697476D01*
X110716176Y-141697476D02*
X110668557Y-141792714D01*
X110668557Y-141792714D02*
X110620938Y-141983190D01*
X110620938Y-141983190D02*
X110620938Y-142126047D01*
X110620938Y-142126047D02*
X110668557Y-142316523D01*
X110668557Y-142316523D02*
X110716176Y-142411761D01*
X110716176Y-142411761D02*
X110811414Y-142507000D01*
X110811414Y-142507000D02*
X110954271Y-142554619D01*
X110954271Y-142554619D02*
X111049509Y-142554619D01*
X111049509Y-142554619D02*
X111192366Y-142507000D01*
X111192366Y-142507000D02*
X111239985Y-142459380D01*
X111239985Y-142459380D02*
X111239985Y-142126047D01*
X111239985Y-142126047D02*
X111049509Y-142126047D01*
X111668557Y-142554619D02*
X111668557Y-141554619D01*
X111668557Y-141554619D02*
X112239985Y-142554619D01*
X112239985Y-142554619D02*
X112239985Y-141554619D01*
X112716176Y-142554619D02*
X112716176Y-141554619D01*
X112716176Y-141554619D02*
X112954271Y-141554619D01*
X112954271Y-141554619D02*
X113097128Y-141602238D01*
X113097128Y-141602238D02*
X113192366Y-141697476D01*
X113192366Y-141697476D02*
X113239985Y-141792714D01*
X113239985Y-141792714D02*
X113287604Y-141983190D01*
X113287604Y-141983190D02*
X113287604Y-142126047D01*
X113287604Y-142126047D02*
X113239985Y-142316523D01*
X113239985Y-142316523D02*
X113192366Y-142411761D01*
X113192366Y-142411761D02*
X113097128Y-142507000D01*
X113097128Y-142507000D02*
X112954271Y-142554619D01*
X112954271Y-142554619D02*
X112716176Y-142554619D01*
X113700707Y-86687894D02*
X113653088Y-86640275D01*
X113653088Y-86640275D02*
X113605469Y-86545037D01*
X113605469Y-86545037D02*
X113605469Y-86306942D01*
X113605469Y-86306942D02*
X113653088Y-86211704D01*
X113653088Y-86211704D02*
X113700707Y-86164085D01*
X113700707Y-86164085D02*
X113795945Y-86116466D01*
X113795945Y-86116466D02*
X113891183Y-86116466D01*
X113891183Y-86116466D02*
X114034040Y-86164085D01*
X114034040Y-86164085D02*
X114605469Y-86735513D01*
X114605469Y-86735513D02*
X114605469Y-86116466D01*
X113700707Y-85735513D02*
X113653088Y-85687894D01*
X113653088Y-85687894D02*
X113605469Y-85592656D01*
X113605469Y-85592656D02*
X113605469Y-85354561D01*
X113605469Y-85354561D02*
X113653088Y-85259323D01*
X113653088Y-85259323D02*
X113700707Y-85211704D01*
X113700707Y-85211704D02*
X113795945Y-85164085D01*
X113795945Y-85164085D02*
X113891183Y-85164085D01*
X113891183Y-85164085D02*
X114034040Y-85211704D01*
X114034040Y-85211704D02*
X114605469Y-85783132D01*
X114605469Y-85783132D02*
X114605469Y-85164085D01*
X113605469Y-84545037D02*
X113605469Y-84449799D01*
X113605469Y-84449799D02*
X113653088Y-84354561D01*
X113653088Y-84354561D02*
X113700707Y-84306942D01*
X113700707Y-84306942D02*
X113795945Y-84259323D01*
X113795945Y-84259323D02*
X113986421Y-84211704D01*
X113986421Y-84211704D02*
X114224516Y-84211704D01*
X114224516Y-84211704D02*
X114414992Y-84259323D01*
X114414992Y-84259323D02*
X114510230Y-84306942D01*
X114510230Y-84306942D02*
X114557850Y-84354561D01*
X114557850Y-84354561D02*
X114605469Y-84449799D01*
X114605469Y-84449799D02*
X114605469Y-84545037D01*
X114605469Y-84545037D02*
X114557850Y-84640275D01*
X114557850Y-84640275D02*
X114510230Y-84687894D01*
X114510230Y-84687894D02*
X114414992Y-84735513D01*
X114414992Y-84735513D02*
X114224516Y-84783132D01*
X114224516Y-84783132D02*
X113986421Y-84783132D01*
X113986421Y-84783132D02*
X113795945Y-84735513D01*
X113795945Y-84735513D02*
X113700707Y-84687894D01*
X113700707Y-84687894D02*
X113653088Y-84640275D01*
X113653088Y-84640275D02*
X113605469Y-84545037D01*
X135169986Y-91834819D02*
X135836652Y-91834819D01*
X135836652Y-91834819D02*
X135408081Y-92834819D01*
X136646176Y-92168152D02*
X136646176Y-92834819D01*
X136408081Y-91787200D02*
X136169986Y-92501485D01*
X136169986Y-92501485D02*
X136789033Y-92501485D01*
X137169986Y-92834819D02*
X137169986Y-91834819D01*
X137169986Y-92311009D02*
X137741414Y-92311009D01*
X137741414Y-92834819D02*
X137741414Y-91834819D01*
X138789033Y-92739580D02*
X138741414Y-92787200D01*
X138741414Y-92787200D02*
X138598557Y-92834819D01*
X138598557Y-92834819D02*
X138503319Y-92834819D01*
X138503319Y-92834819D02*
X138360462Y-92787200D01*
X138360462Y-92787200D02*
X138265224Y-92691961D01*
X138265224Y-92691961D02*
X138217605Y-92596723D01*
X138217605Y-92596723D02*
X138169986Y-92406247D01*
X138169986Y-92406247D02*
X138169986Y-92263390D01*
X138169986Y-92263390D02*
X138217605Y-92072914D01*
X138217605Y-92072914D02*
X138265224Y-91977676D01*
X138265224Y-91977676D02*
X138360462Y-91882438D01*
X138360462Y-91882438D02*
X138503319Y-91834819D01*
X138503319Y-91834819D02*
X138598557Y-91834819D01*
X138598557Y-91834819D02*
X138741414Y-91882438D01*
X138741414Y-91882438D02*
X138789033Y-91930057D01*
X139741414Y-92834819D02*
X139169986Y-92834819D01*
X139455700Y-92834819D02*
X139455700Y-91834819D01*
X139455700Y-91834819D02*
X139360462Y-91977676D01*
X139360462Y-91977676D02*
X139265224Y-92072914D01*
X139265224Y-92072914D02*
X139169986Y-92120533D01*
X140598557Y-92168152D02*
X140598557Y-92834819D01*
X140360462Y-91787200D02*
X140122367Y-92501485D01*
X140122367Y-92501485D02*
X140741414Y-92501485D01*
X122929221Y-82204819D02*
X122357793Y-82204819D01*
X122643507Y-82204819D02*
X122643507Y-81204819D01*
X122643507Y-81204819D02*
X122548269Y-81347676D01*
X122548269Y-81347676D02*
X122453031Y-81442914D01*
X122453031Y-81442914D02*
X122357793Y-81490533D01*
X123548269Y-81204819D02*
X123643507Y-81204819D01*
X123643507Y-81204819D02*
X123738745Y-81252438D01*
X123738745Y-81252438D02*
X123786364Y-81300057D01*
X123786364Y-81300057D02*
X123833983Y-81395295D01*
X123833983Y-81395295D02*
X123881602Y-81585771D01*
X123881602Y-81585771D02*
X123881602Y-81823866D01*
X123881602Y-81823866D02*
X123833983Y-82014342D01*
X123833983Y-82014342D02*
X123786364Y-82109580D01*
X123786364Y-82109580D02*
X123738745Y-82157200D01*
X123738745Y-82157200D02*
X123643507Y-82204819D01*
X123643507Y-82204819D02*
X123548269Y-82204819D01*
X123548269Y-82204819D02*
X123453031Y-82157200D01*
X123453031Y-82157200D02*
X123405412Y-82109580D01*
X123405412Y-82109580D02*
X123357793Y-82014342D01*
X123357793Y-82014342D02*
X123310174Y-81823866D01*
X123310174Y-81823866D02*
X123310174Y-81585771D01*
X123310174Y-81585771D02*
X123357793Y-81395295D01*
X123357793Y-81395295D02*
X123405412Y-81300057D01*
X123405412Y-81300057D02*
X123453031Y-81252438D01*
X123453031Y-81252438D02*
X123548269Y-81204819D01*
X124500650Y-81204819D02*
X124595888Y-81204819D01*
X124595888Y-81204819D02*
X124691126Y-81252438D01*
X124691126Y-81252438D02*
X124738745Y-81300057D01*
X124738745Y-81300057D02*
X124786364Y-81395295D01*
X124786364Y-81395295D02*
X124833983Y-81585771D01*
X124833983Y-81585771D02*
X124833983Y-81823866D01*
X124833983Y-81823866D02*
X124786364Y-82014342D01*
X124786364Y-82014342D02*
X124738745Y-82109580D01*
X124738745Y-82109580D02*
X124691126Y-82157200D01*
X124691126Y-82157200D02*
X124595888Y-82204819D01*
X124595888Y-82204819D02*
X124500650Y-82204819D01*
X124500650Y-82204819D02*
X124405412Y-82157200D01*
X124405412Y-82157200D02*
X124357793Y-82109580D01*
X124357793Y-82109580D02*
X124310174Y-82014342D01*
X124310174Y-82014342D02*
X124262555Y-81823866D01*
X124262555Y-81823866D02*
X124262555Y-81585771D01*
X124262555Y-81585771D02*
X124310174Y-81395295D01*
X124310174Y-81395295D02*
X124357793Y-81300057D01*
X124357793Y-81300057D02*
X124405412Y-81252438D01*
X124405412Y-81252438D02*
X124500650Y-81204819D01*
X125262555Y-82204819D02*
X125262555Y-81204819D01*
X125357793Y-81823866D02*
X125643507Y-82204819D01*
X125643507Y-81538152D02*
X125262555Y-81919104D01*
D15*
X125479221Y-64606780D02*
X125431602Y-64654400D01*
X125431602Y-64654400D02*
X125288745Y-64702019D01*
X125288745Y-64702019D02*
X125193507Y-64702019D01*
X125193507Y-64702019D02*
X125050650Y-64654400D01*
X125050650Y-64654400D02*
X124955412Y-64559161D01*
X124955412Y-64559161D02*
X124907793Y-64463923D01*
X124907793Y-64463923D02*
X124860174Y-64273447D01*
X124860174Y-64273447D02*
X124860174Y-64130590D01*
X124860174Y-64130590D02*
X124907793Y-63940114D01*
X124907793Y-63940114D02*
X124955412Y-63844876D01*
X124955412Y-63844876D02*
X125050650Y-63749638D01*
X125050650Y-63749638D02*
X125193507Y-63702019D01*
X125193507Y-63702019D02*
X125288745Y-63702019D01*
X125288745Y-63702019D02*
X125431602Y-63749638D01*
X125431602Y-63749638D02*
X125479221Y-63797257D01*
X125764936Y-63702019D02*
X126098269Y-64702019D01*
X126098269Y-64702019D02*
X126431602Y-63702019D01*
X128098269Y-64606780D02*
X128050650Y-64654400D01*
X128050650Y-64654400D02*
X127907793Y-64702019D01*
X127907793Y-64702019D02*
X127812555Y-64702019D01*
X127812555Y-64702019D02*
X127669698Y-64654400D01*
X127669698Y-64654400D02*
X127574460Y-64559161D01*
X127574460Y-64559161D02*
X127526841Y-64463923D01*
X127526841Y-64463923D02*
X127479222Y-64273447D01*
X127479222Y-64273447D02*
X127479222Y-64130590D01*
X127479222Y-64130590D02*
X127526841Y-63940114D01*
X127526841Y-63940114D02*
X127574460Y-63844876D01*
X127574460Y-63844876D02*
X127669698Y-63749638D01*
X127669698Y-63749638D02*
X127812555Y-63702019D01*
X127812555Y-63702019D02*
X127907793Y-63702019D01*
X127907793Y-63702019D02*
X128050650Y-63749638D01*
X128050650Y-63749638D02*
X128098269Y-63797257D01*
X129003031Y-64702019D02*
X128526841Y-64702019D01*
X128526841Y-64702019D02*
X128526841Y-63702019D01*
X129526841Y-63702019D02*
X129717317Y-63702019D01*
X129717317Y-63702019D02*
X129812555Y-63749638D01*
X129812555Y-63749638D02*
X129907793Y-63844876D01*
X129907793Y-63844876D02*
X129955412Y-64035352D01*
X129955412Y-64035352D02*
X129955412Y-64368685D01*
X129955412Y-64368685D02*
X129907793Y-64559161D01*
X129907793Y-64559161D02*
X129812555Y-64654400D01*
X129812555Y-64654400D02*
X129717317Y-64702019D01*
X129717317Y-64702019D02*
X129526841Y-64702019D01*
X129526841Y-64702019D02*
X129431603Y-64654400D01*
X129431603Y-64654400D02*
X129336365Y-64559161D01*
X129336365Y-64559161D02*
X129288746Y-64368685D01*
X129288746Y-64368685D02*
X129288746Y-64035352D01*
X129288746Y-64035352D02*
X129336365Y-63844876D01*
X129336365Y-63844876D02*
X129431603Y-63749638D01*
X129431603Y-63749638D02*
X129526841Y-63702019D01*
X130955412Y-64606780D02*
X130907793Y-64654400D01*
X130907793Y-64654400D02*
X130764936Y-64702019D01*
X130764936Y-64702019D02*
X130669698Y-64702019D01*
X130669698Y-64702019D02*
X130526841Y-64654400D01*
X130526841Y-64654400D02*
X130431603Y-64559161D01*
X130431603Y-64559161D02*
X130383984Y-64463923D01*
X130383984Y-64463923D02*
X130336365Y-64273447D01*
X130336365Y-64273447D02*
X130336365Y-64130590D01*
X130336365Y-64130590D02*
X130383984Y-63940114D01*
X130383984Y-63940114D02*
X130431603Y-63844876D01*
X130431603Y-63844876D02*
X130526841Y-63749638D01*
X130526841Y-63749638D02*
X130669698Y-63702019D01*
X130669698Y-63702019D02*
X130764936Y-63702019D01*
X130764936Y-63702019D02*
X130907793Y-63749638D01*
X130907793Y-63749638D02*
X130955412Y-63797257D01*
X131383984Y-64702019D02*
X131383984Y-63702019D01*
X131955412Y-64702019D02*
X131526841Y-64130590D01*
X131955412Y-63702019D02*
X131383984Y-64273447D01*
X133145889Y-64702019D02*
X133145889Y-63702019D01*
X133622079Y-64702019D02*
X133622079Y-63702019D01*
X133622079Y-63702019D02*
X134193507Y-64702019D01*
X134193507Y-64702019D02*
X134193507Y-63702019D01*
D14*
X170485519Y-116214085D02*
X170485519Y-116785513D01*
X170485519Y-116499799D02*
X169485519Y-116499799D01*
X169485519Y-116499799D02*
X169628376Y-116595037D01*
X169628376Y-116595037D02*
X169723614Y-116690275D01*
X169723614Y-116690275D02*
X169771233Y-116785513D01*
X170485519Y-115785513D02*
X169485519Y-115785513D01*
X170485519Y-115214085D02*
X169914090Y-115642656D01*
X169485519Y-115214085D02*
X170056947Y-115785513D01*
X138363205Y-117319857D02*
X138410824Y-117272238D01*
X138410824Y-117272238D02*
X138506062Y-117224619D01*
X138506062Y-117224619D02*
X138744157Y-117224619D01*
X138744157Y-117224619D02*
X138839395Y-117272238D01*
X138839395Y-117272238D02*
X138887014Y-117319857D01*
X138887014Y-117319857D02*
X138934633Y-117415095D01*
X138934633Y-117415095D02*
X138934633Y-117510333D01*
X138934633Y-117510333D02*
X138887014Y-117653190D01*
X138887014Y-117653190D02*
X138315586Y-118224619D01*
X138315586Y-118224619D02*
X138934633Y-118224619D01*
X139315586Y-117319857D02*
X139363205Y-117272238D01*
X139363205Y-117272238D02*
X139458443Y-117224619D01*
X139458443Y-117224619D02*
X139696538Y-117224619D01*
X139696538Y-117224619D02*
X139791776Y-117272238D01*
X139791776Y-117272238D02*
X139839395Y-117319857D01*
X139839395Y-117319857D02*
X139887014Y-117415095D01*
X139887014Y-117415095D02*
X139887014Y-117510333D01*
X139887014Y-117510333D02*
X139839395Y-117653190D01*
X139839395Y-117653190D02*
X139267967Y-118224619D01*
X139267967Y-118224619D02*
X139887014Y-118224619D01*
X140506062Y-117224619D02*
X140601300Y-117224619D01*
X140601300Y-117224619D02*
X140696538Y-117272238D01*
X140696538Y-117272238D02*
X140744157Y-117319857D01*
X140744157Y-117319857D02*
X140791776Y-117415095D01*
X140791776Y-117415095D02*
X140839395Y-117605571D01*
X140839395Y-117605571D02*
X140839395Y-117843666D01*
X140839395Y-117843666D02*
X140791776Y-118034142D01*
X140791776Y-118034142D02*
X140744157Y-118129380D01*
X140744157Y-118129380D02*
X140696538Y-118177000D01*
X140696538Y-118177000D02*
X140601300Y-118224619D01*
X140601300Y-118224619D02*
X140506062Y-118224619D01*
X140506062Y-118224619D02*
X140410824Y-118177000D01*
X140410824Y-118177000D02*
X140363205Y-118129380D01*
X140363205Y-118129380D02*
X140315586Y-118034142D01*
X140315586Y-118034142D02*
X140267967Y-117843666D01*
X140267967Y-117843666D02*
X140267967Y-117605571D01*
X140267967Y-117605571D02*
X140315586Y-117415095D01*
X140315586Y-117415095D02*
X140363205Y-117319857D01*
X140363205Y-117319857D02*
X140410824Y-117272238D01*
X140410824Y-117272238D02*
X140506062Y-117224619D01*
X162850701Y-132304619D02*
X163469748Y-132304619D01*
X163469748Y-132304619D02*
X163136415Y-132685571D01*
X163136415Y-132685571D02*
X163279272Y-132685571D01*
X163279272Y-132685571D02*
X163374510Y-132733190D01*
X163374510Y-132733190D02*
X163422129Y-132780809D01*
X163422129Y-132780809D02*
X163469748Y-132876047D01*
X163469748Y-132876047D02*
X163469748Y-133114142D01*
X163469748Y-133114142D02*
X163422129Y-133209380D01*
X163422129Y-133209380D02*
X163374510Y-133257000D01*
X163374510Y-133257000D02*
X163279272Y-133304619D01*
X163279272Y-133304619D02*
X162993558Y-133304619D01*
X162993558Y-133304619D02*
X162898320Y-133257000D01*
X162898320Y-133257000D02*
X162850701Y-133209380D01*
X163898320Y-133209380D02*
X163945939Y-133257000D01*
X163945939Y-133257000D02*
X163898320Y-133304619D01*
X163898320Y-133304619D02*
X163850701Y-133257000D01*
X163850701Y-133257000D02*
X163898320Y-133209380D01*
X163898320Y-133209380D02*
X163898320Y-133304619D01*
X164279272Y-132304619D02*
X164898319Y-132304619D01*
X164898319Y-132304619D02*
X164564986Y-132685571D01*
X164564986Y-132685571D02*
X164707843Y-132685571D01*
X164707843Y-132685571D02*
X164803081Y-132733190D01*
X164803081Y-132733190D02*
X164850700Y-132780809D01*
X164850700Y-132780809D02*
X164898319Y-132876047D01*
X164898319Y-132876047D02*
X164898319Y-133114142D01*
X164898319Y-133114142D02*
X164850700Y-133209380D01*
X164850700Y-133209380D02*
X164803081Y-133257000D01*
X164803081Y-133257000D02*
X164707843Y-133304619D01*
X164707843Y-133304619D02*
X164422129Y-133304619D01*
X164422129Y-133304619D02*
X164326891Y-133257000D01*
X164326891Y-133257000D02*
X164279272Y-133209380D01*
X165184034Y-132304619D02*
X165517367Y-133304619D01*
X165517367Y-133304619D02*
X165850700Y-132304619D01*
X166231653Y-133257000D02*
X166231653Y-133304619D01*
X166231653Y-133304619D02*
X166184034Y-133399857D01*
X166184034Y-133399857D02*
X166136415Y-133447476D01*
X166612605Y-132399857D02*
X166660224Y-132352238D01*
X166660224Y-132352238D02*
X166755462Y-132304619D01*
X166755462Y-132304619D02*
X166993557Y-132304619D01*
X166993557Y-132304619D02*
X167088795Y-132352238D01*
X167088795Y-132352238D02*
X167136414Y-132399857D01*
X167136414Y-132399857D02*
X167184033Y-132495095D01*
X167184033Y-132495095D02*
X167184033Y-132590333D01*
X167184033Y-132590333D02*
X167136414Y-132733190D01*
X167136414Y-132733190D02*
X166564986Y-133304619D01*
X166564986Y-133304619D02*
X167184033Y-133304619D01*
X168136414Y-133304619D02*
X167564986Y-133304619D01*
X167850700Y-133304619D02*
X167850700Y-132304619D01*
X167850700Y-132304619D02*
X167755462Y-132447476D01*
X167755462Y-132447476D02*
X167660224Y-132542714D01*
X167660224Y-132542714D02*
X167564986Y-132590333D01*
X168612605Y-133257000D02*
X168612605Y-133304619D01*
X168612605Y-133304619D02*
X168564986Y-133399857D01*
X168564986Y-133399857D02*
X168517367Y-133447476D01*
X168993557Y-132399857D02*
X169041176Y-132352238D01*
X169041176Y-132352238D02*
X169136414Y-132304619D01*
X169136414Y-132304619D02*
X169374509Y-132304619D01*
X169374509Y-132304619D02*
X169469747Y-132352238D01*
X169469747Y-132352238D02*
X169517366Y-132399857D01*
X169517366Y-132399857D02*
X169564985Y-132495095D01*
X169564985Y-132495095D02*
X169564985Y-132590333D01*
X169564985Y-132590333D02*
X169517366Y-132733190D01*
X169517366Y-132733190D02*
X168945938Y-133304619D01*
X168945938Y-133304619D02*
X169564985Y-133304619D01*
X169945938Y-132399857D02*
X169993557Y-132352238D01*
X169993557Y-132352238D02*
X170088795Y-132304619D01*
X170088795Y-132304619D02*
X170326890Y-132304619D01*
X170326890Y-132304619D02*
X170422128Y-132352238D01*
X170422128Y-132352238D02*
X170469747Y-132399857D01*
X170469747Y-132399857D02*
X170517366Y-132495095D01*
X170517366Y-132495095D02*
X170517366Y-132590333D01*
X170517366Y-132590333D02*
X170469747Y-132733190D01*
X170469747Y-132733190D02*
X169898319Y-133304619D01*
X169898319Y-133304619D02*
X170517366Y-133304619D01*
X170993557Y-133257000D02*
X170993557Y-133304619D01*
X170993557Y-133304619D02*
X170945938Y-133399857D01*
X170945938Y-133399857D02*
X170898319Y-133447476D01*
X171374509Y-132399857D02*
X171422128Y-132352238D01*
X171422128Y-132352238D02*
X171517366Y-132304619D01*
X171517366Y-132304619D02*
X171755461Y-132304619D01*
X171755461Y-132304619D02*
X171850699Y-132352238D01*
X171850699Y-132352238D02*
X171898318Y-132399857D01*
X171898318Y-132399857D02*
X171945937Y-132495095D01*
X171945937Y-132495095D02*
X171945937Y-132590333D01*
X171945937Y-132590333D02*
X171898318Y-132733190D01*
X171898318Y-132733190D02*
X171326890Y-133304619D01*
X171326890Y-133304619D02*
X171945937Y-133304619D01*
X172279271Y-132304619D02*
X172945937Y-132304619D01*
X172945937Y-132304619D02*
X172517366Y-133304619D01*
X173374509Y-133257000D02*
X173374509Y-133304619D01*
X173374509Y-133304619D02*
X173326890Y-133399857D01*
X173326890Y-133399857D02*
X173279271Y-133447476D01*
X173707842Y-132304619D02*
X174326889Y-132304619D01*
X174326889Y-132304619D02*
X173993556Y-132685571D01*
X173993556Y-132685571D02*
X174136413Y-132685571D01*
X174136413Y-132685571D02*
X174231651Y-132733190D01*
X174231651Y-132733190D02*
X174279270Y-132780809D01*
X174279270Y-132780809D02*
X174326889Y-132876047D01*
X174326889Y-132876047D02*
X174326889Y-133114142D01*
X174326889Y-133114142D02*
X174279270Y-133209380D01*
X174279270Y-133209380D02*
X174231651Y-133257000D01*
X174231651Y-133257000D02*
X174136413Y-133304619D01*
X174136413Y-133304619D02*
X173850699Y-133304619D01*
X173850699Y-133304619D02*
X173755461Y-133257000D01*
X173755461Y-133257000D02*
X173707842Y-133209380D01*
X175231651Y-132304619D02*
X174755461Y-132304619D01*
X174755461Y-132304619D02*
X174707842Y-132780809D01*
X174707842Y-132780809D02*
X174755461Y-132733190D01*
X174755461Y-132733190D02*
X174850699Y-132685571D01*
X174850699Y-132685571D02*
X175088794Y-132685571D01*
X175088794Y-132685571D02*
X175184032Y-132733190D01*
X175184032Y-132733190D02*
X175231651Y-132780809D01*
X175231651Y-132780809D02*
X175279270Y-132876047D01*
X175279270Y-132876047D02*
X175279270Y-133114142D01*
X175279270Y-133114142D02*
X175231651Y-133209380D01*
X175231651Y-133209380D02*
X175184032Y-133257000D01*
X175184032Y-133257000D02*
X175088794Y-133304619D01*
X175088794Y-133304619D02*
X174850699Y-133304619D01*
X174850699Y-133304619D02*
X174755461Y-133257000D01*
X174755461Y-133257000D02*
X174707842Y-133209380D01*
X175755461Y-133257000D02*
X175755461Y-133304619D01*
X175755461Y-133304619D02*
X175707842Y-133399857D01*
X175707842Y-133399857D02*
X175660223Y-133447476D01*
X176707841Y-132352238D02*
X176612603Y-132304619D01*
X176612603Y-132304619D02*
X176469746Y-132304619D01*
X176469746Y-132304619D02*
X176326889Y-132352238D01*
X176326889Y-132352238D02*
X176231651Y-132447476D01*
X176231651Y-132447476D02*
X176184032Y-132542714D01*
X176184032Y-132542714D02*
X176136413Y-132733190D01*
X176136413Y-132733190D02*
X176136413Y-132876047D01*
X176136413Y-132876047D02*
X176184032Y-133066523D01*
X176184032Y-133066523D02*
X176231651Y-133161761D01*
X176231651Y-133161761D02*
X176326889Y-133257000D01*
X176326889Y-133257000D02*
X176469746Y-133304619D01*
X176469746Y-133304619D02*
X176564984Y-133304619D01*
X176564984Y-133304619D02*
X176707841Y-133257000D01*
X176707841Y-133257000D02*
X176755460Y-133209380D01*
X176755460Y-133209380D02*
X176755460Y-132876047D01*
X176755460Y-132876047D02*
X176564984Y-132876047D01*
X177184032Y-133304619D02*
X177184032Y-132304619D01*
X177184032Y-132304619D02*
X177755460Y-133304619D01*
X177755460Y-133304619D02*
X177755460Y-132304619D01*
X178231651Y-133304619D02*
X178231651Y-132304619D01*
X178231651Y-132304619D02*
X178469746Y-132304619D01*
X178469746Y-132304619D02*
X178612603Y-132352238D01*
X178612603Y-132352238D02*
X178707841Y-132447476D01*
X178707841Y-132447476D02*
X178755460Y-132542714D01*
X178755460Y-132542714D02*
X178803079Y-132733190D01*
X178803079Y-132733190D02*
X178803079Y-132876047D01*
X178803079Y-132876047D02*
X178755460Y-133066523D01*
X178755460Y-133066523D02*
X178707841Y-133161761D01*
X178707841Y-133161761D02*
X178612603Y-133257000D01*
X178612603Y-133257000D02*
X178469746Y-133304619D01*
X178469746Y-133304619D02*
X178231651Y-133304619D01*
X120119286Y-91954819D02*
X120785952Y-91954819D01*
X120785952Y-91954819D02*
X120357381Y-92954819D01*
X121595476Y-92288152D02*
X121595476Y-92954819D01*
X121357381Y-91907200D02*
X121119286Y-92621485D01*
X121119286Y-92621485D02*
X121738333Y-92621485D01*
X122119286Y-92954819D02*
X122119286Y-91954819D01*
X122119286Y-92431009D02*
X122690714Y-92431009D01*
X122690714Y-92954819D02*
X122690714Y-91954819D01*
X123738333Y-92859580D02*
X123690714Y-92907200D01*
X123690714Y-92907200D02*
X123547857Y-92954819D01*
X123547857Y-92954819D02*
X123452619Y-92954819D01*
X123452619Y-92954819D02*
X123309762Y-92907200D01*
X123309762Y-92907200D02*
X123214524Y-92811961D01*
X123214524Y-92811961D02*
X123166905Y-92716723D01*
X123166905Y-92716723D02*
X123119286Y-92526247D01*
X123119286Y-92526247D02*
X123119286Y-92383390D01*
X123119286Y-92383390D02*
X123166905Y-92192914D01*
X123166905Y-92192914D02*
X123214524Y-92097676D01*
X123214524Y-92097676D02*
X123309762Y-92002438D01*
X123309762Y-92002438D02*
X123452619Y-91954819D01*
X123452619Y-91954819D02*
X123547857Y-91954819D01*
X123547857Y-91954819D02*
X123690714Y-92002438D01*
X123690714Y-92002438D02*
X123738333Y-92050057D01*
X124690714Y-92954819D02*
X124119286Y-92954819D01*
X124405000Y-92954819D02*
X124405000Y-91954819D01*
X124405000Y-91954819D02*
X124309762Y-92097676D01*
X124309762Y-92097676D02*
X124214524Y-92192914D01*
X124214524Y-92192914D02*
X124119286Y-92240533D01*
X125547857Y-92288152D02*
X125547857Y-92954819D01*
X125309762Y-91907200D02*
X125071667Y-92621485D01*
X125071667Y-92621485D02*
X125690714Y-92621485D01*
X129313205Y-113479857D02*
X129360824Y-113432238D01*
X129360824Y-113432238D02*
X129456062Y-113384619D01*
X129456062Y-113384619D02*
X129694157Y-113384619D01*
X129694157Y-113384619D02*
X129789395Y-113432238D01*
X129789395Y-113432238D02*
X129837014Y-113479857D01*
X129837014Y-113479857D02*
X129884633Y-113575095D01*
X129884633Y-113575095D02*
X129884633Y-113670333D01*
X129884633Y-113670333D02*
X129837014Y-113813190D01*
X129837014Y-113813190D02*
X129265586Y-114384619D01*
X129265586Y-114384619D02*
X129884633Y-114384619D01*
X130265586Y-113479857D02*
X130313205Y-113432238D01*
X130313205Y-113432238D02*
X130408443Y-113384619D01*
X130408443Y-113384619D02*
X130646538Y-113384619D01*
X130646538Y-113384619D02*
X130741776Y-113432238D01*
X130741776Y-113432238D02*
X130789395Y-113479857D01*
X130789395Y-113479857D02*
X130837014Y-113575095D01*
X130837014Y-113575095D02*
X130837014Y-113670333D01*
X130837014Y-113670333D02*
X130789395Y-113813190D01*
X130789395Y-113813190D02*
X130217967Y-114384619D01*
X130217967Y-114384619D02*
X130837014Y-114384619D01*
X131456062Y-113384619D02*
X131551300Y-113384619D01*
X131551300Y-113384619D02*
X131646538Y-113432238D01*
X131646538Y-113432238D02*
X131694157Y-113479857D01*
X131694157Y-113479857D02*
X131741776Y-113575095D01*
X131741776Y-113575095D02*
X131789395Y-113765571D01*
X131789395Y-113765571D02*
X131789395Y-114003666D01*
X131789395Y-114003666D02*
X131741776Y-114194142D01*
X131741776Y-114194142D02*
X131694157Y-114289380D01*
X131694157Y-114289380D02*
X131646538Y-114337000D01*
X131646538Y-114337000D02*
X131551300Y-114384619D01*
X131551300Y-114384619D02*
X131456062Y-114384619D01*
X131456062Y-114384619D02*
X131360824Y-114337000D01*
X131360824Y-114337000D02*
X131313205Y-114289380D01*
X131313205Y-114289380D02*
X131265586Y-114194142D01*
X131265586Y-114194142D02*
X131217967Y-114003666D01*
X131217967Y-114003666D02*
X131217967Y-113765571D01*
X131217967Y-113765571D02*
X131265586Y-113575095D01*
X131265586Y-113575095D02*
X131313205Y-113479857D01*
X131313205Y-113479857D02*
X131360824Y-113432238D01*
X131360824Y-113432238D02*
X131456062Y-113384619D01*
X176900707Y-72738094D02*
X176853088Y-72690475D01*
X176853088Y-72690475D02*
X176805469Y-72595237D01*
X176805469Y-72595237D02*
X176805469Y-72357142D01*
X176805469Y-72357142D02*
X176853088Y-72261904D01*
X176853088Y-72261904D02*
X176900707Y-72214285D01*
X176900707Y-72214285D02*
X176995945Y-72166666D01*
X176995945Y-72166666D02*
X177091183Y-72166666D01*
X177091183Y-72166666D02*
X177234040Y-72214285D01*
X177234040Y-72214285D02*
X177805469Y-72785713D01*
X177805469Y-72785713D02*
X177805469Y-72166666D01*
X176900707Y-71785713D02*
X176853088Y-71738094D01*
X176853088Y-71738094D02*
X176805469Y-71642856D01*
X176805469Y-71642856D02*
X176805469Y-71404761D01*
X176805469Y-71404761D02*
X176853088Y-71309523D01*
X176853088Y-71309523D02*
X176900707Y-71261904D01*
X176900707Y-71261904D02*
X176995945Y-71214285D01*
X176995945Y-71214285D02*
X177091183Y-71214285D01*
X177091183Y-71214285D02*
X177234040Y-71261904D01*
X177234040Y-71261904D02*
X177805469Y-71833332D01*
X177805469Y-71833332D02*
X177805469Y-71214285D01*
X176805469Y-70595237D02*
X176805469Y-70499999D01*
X176805469Y-70499999D02*
X176853088Y-70404761D01*
X176853088Y-70404761D02*
X176900707Y-70357142D01*
X176900707Y-70357142D02*
X176995945Y-70309523D01*
X176995945Y-70309523D02*
X177186421Y-70261904D01*
X177186421Y-70261904D02*
X177424516Y-70261904D01*
X177424516Y-70261904D02*
X177614992Y-70309523D01*
X177614992Y-70309523D02*
X177710230Y-70357142D01*
X177710230Y-70357142D02*
X177757850Y-70404761D01*
X177757850Y-70404761D02*
X177805469Y-70499999D01*
X177805469Y-70499999D02*
X177805469Y-70595237D01*
X177805469Y-70595237D02*
X177757850Y-70690475D01*
X177757850Y-70690475D02*
X177710230Y-70738094D01*
X177710230Y-70738094D02*
X177614992Y-70785713D01*
X177614992Y-70785713D02*
X177424516Y-70833332D01*
X177424516Y-70833332D02*
X177186421Y-70833332D01*
X177186421Y-70833332D02*
X176995945Y-70785713D01*
X176995945Y-70785713D02*
X176900707Y-70738094D01*
X176900707Y-70738094D02*
X176853088Y-70690475D01*
X176853088Y-70690475D02*
X176805469Y-70595237D01*
X138863205Y-128000057D02*
X138910824Y-127952438D01*
X138910824Y-127952438D02*
X139006062Y-127904819D01*
X139006062Y-127904819D02*
X139244157Y-127904819D01*
X139244157Y-127904819D02*
X139339395Y-127952438D01*
X139339395Y-127952438D02*
X139387014Y-128000057D01*
X139387014Y-128000057D02*
X139434633Y-128095295D01*
X139434633Y-128095295D02*
X139434633Y-128190533D01*
X139434633Y-128190533D02*
X139387014Y-128333390D01*
X139387014Y-128333390D02*
X138815586Y-128904819D01*
X138815586Y-128904819D02*
X139434633Y-128904819D01*
X139815586Y-128000057D02*
X139863205Y-127952438D01*
X139863205Y-127952438D02*
X139958443Y-127904819D01*
X139958443Y-127904819D02*
X140196538Y-127904819D01*
X140196538Y-127904819D02*
X140291776Y-127952438D01*
X140291776Y-127952438D02*
X140339395Y-128000057D01*
X140339395Y-128000057D02*
X140387014Y-128095295D01*
X140387014Y-128095295D02*
X140387014Y-128190533D01*
X140387014Y-128190533D02*
X140339395Y-128333390D01*
X140339395Y-128333390D02*
X139767967Y-128904819D01*
X139767967Y-128904819D02*
X140387014Y-128904819D01*
X141006062Y-127904819D02*
X141101300Y-127904819D01*
X141101300Y-127904819D02*
X141196538Y-127952438D01*
X141196538Y-127952438D02*
X141244157Y-128000057D01*
X141244157Y-128000057D02*
X141291776Y-128095295D01*
X141291776Y-128095295D02*
X141339395Y-128285771D01*
X141339395Y-128285771D02*
X141339395Y-128523866D01*
X141339395Y-128523866D02*
X141291776Y-128714342D01*
X141291776Y-128714342D02*
X141244157Y-128809580D01*
X141244157Y-128809580D02*
X141196538Y-128857200D01*
X141196538Y-128857200D02*
X141101300Y-128904819D01*
X141101300Y-128904819D02*
X141006062Y-128904819D01*
X141006062Y-128904819D02*
X140910824Y-128857200D01*
X140910824Y-128857200D02*
X140863205Y-128809580D01*
X140863205Y-128809580D02*
X140815586Y-128714342D01*
X140815586Y-128714342D02*
X140767967Y-128523866D01*
X140767967Y-128523866D02*
X140767967Y-128285771D01*
X140767967Y-128285771D02*
X140815586Y-128095295D01*
X140815586Y-128095295D02*
X140863205Y-128000057D01*
X140863205Y-128000057D02*
X140910824Y-127952438D01*
X140910824Y-127952438D02*
X141006062Y-127904819D01*
X122610223Y-67160809D02*
X122753080Y-67208428D01*
X122753080Y-67208428D02*
X122800699Y-67256047D01*
X122800699Y-67256047D02*
X122848318Y-67351285D01*
X122848318Y-67351285D02*
X122848318Y-67494142D01*
X122848318Y-67494142D02*
X122800699Y-67589380D01*
X122800699Y-67589380D02*
X122753080Y-67637000D01*
X122753080Y-67637000D02*
X122657842Y-67684619D01*
X122657842Y-67684619D02*
X122276890Y-67684619D01*
X122276890Y-67684619D02*
X122276890Y-66684619D01*
X122276890Y-66684619D02*
X122610223Y-66684619D01*
X122610223Y-66684619D02*
X122705461Y-66732238D01*
X122705461Y-66732238D02*
X122753080Y-66779857D01*
X122753080Y-66779857D02*
X122800699Y-66875095D01*
X122800699Y-66875095D02*
X122800699Y-66970333D01*
X122800699Y-66970333D02*
X122753080Y-67065571D01*
X122753080Y-67065571D02*
X122705461Y-67113190D01*
X122705461Y-67113190D02*
X122610223Y-67160809D01*
X122610223Y-67160809D02*
X122276890Y-67160809D01*
X123229271Y-67398904D02*
X123705461Y-67398904D01*
X123134033Y-67684619D02*
X123467366Y-66684619D01*
X123467366Y-66684619D02*
X123800699Y-67684619D01*
X123991176Y-66684619D02*
X124562604Y-66684619D01*
X124276890Y-67684619D02*
X124276890Y-66684619D01*
X125324509Y-67017952D02*
X125324509Y-67684619D01*
X125086414Y-66637000D02*
X124848319Y-67351285D01*
X124848319Y-67351285D02*
X125467366Y-67351285D01*
X126372128Y-67684619D02*
X125800700Y-67684619D01*
X126086414Y-67684619D02*
X126086414Y-66684619D01*
X126086414Y-66684619D02*
X125991176Y-66827476D01*
X125991176Y-66827476D02*
X125895938Y-66922714D01*
X125895938Y-66922714D02*
X125800700Y-66970333D01*
X133405461Y-79724619D02*
X132834033Y-79724619D01*
X133119747Y-79724619D02*
X133119747Y-78724619D01*
X133119747Y-78724619D02*
X133024509Y-78867476D01*
X133024509Y-78867476D02*
X132929271Y-78962714D01*
X132929271Y-78962714D02*
X132834033Y-79010333D01*
X134024509Y-78724619D02*
X134119747Y-78724619D01*
X134119747Y-78724619D02*
X134214985Y-78772238D01*
X134214985Y-78772238D02*
X134262604Y-78819857D01*
X134262604Y-78819857D02*
X134310223Y-78915095D01*
X134310223Y-78915095D02*
X134357842Y-79105571D01*
X134357842Y-79105571D02*
X134357842Y-79343666D01*
X134357842Y-79343666D02*
X134310223Y-79534142D01*
X134310223Y-79534142D02*
X134262604Y-79629380D01*
X134262604Y-79629380D02*
X134214985Y-79677000D01*
X134214985Y-79677000D02*
X134119747Y-79724619D01*
X134119747Y-79724619D02*
X134024509Y-79724619D01*
X134024509Y-79724619D02*
X133929271Y-79677000D01*
X133929271Y-79677000D02*
X133881652Y-79629380D01*
X133881652Y-79629380D02*
X133834033Y-79534142D01*
X133834033Y-79534142D02*
X133786414Y-79343666D01*
X133786414Y-79343666D02*
X133786414Y-79105571D01*
X133786414Y-79105571D02*
X133834033Y-78915095D01*
X133834033Y-78915095D02*
X133881652Y-78819857D01*
X133881652Y-78819857D02*
X133929271Y-78772238D01*
X133929271Y-78772238D02*
X134024509Y-78724619D01*
X134786414Y-79724619D02*
X134786414Y-78724619D01*
X134881652Y-79343666D02*
X135167366Y-79724619D01*
X135167366Y-79057952D02*
X134786414Y-79438904D01*
X177659524Y-56704819D02*
X177659524Y-57514342D01*
X177659524Y-57514342D02*
X177707143Y-57609580D01*
X177707143Y-57609580D02*
X177754762Y-57657200D01*
X177754762Y-57657200D02*
X177850000Y-57704819D01*
X177850000Y-57704819D02*
X178040476Y-57704819D01*
X178040476Y-57704819D02*
X178135714Y-57657200D01*
X178135714Y-57657200D02*
X178183333Y-57609580D01*
X178183333Y-57609580D02*
X178230952Y-57514342D01*
X178230952Y-57514342D02*
X178230952Y-56704819D01*
X178659524Y-57657200D02*
X178802381Y-57704819D01*
X178802381Y-57704819D02*
X179040476Y-57704819D01*
X179040476Y-57704819D02*
X179135714Y-57657200D01*
X179135714Y-57657200D02*
X179183333Y-57609580D01*
X179183333Y-57609580D02*
X179230952Y-57514342D01*
X179230952Y-57514342D02*
X179230952Y-57419104D01*
X179230952Y-57419104D02*
X179183333Y-57323866D01*
X179183333Y-57323866D02*
X179135714Y-57276247D01*
X179135714Y-57276247D02*
X179040476Y-57228628D01*
X179040476Y-57228628D02*
X178850000Y-57181009D01*
X178850000Y-57181009D02*
X178754762Y-57133390D01*
X178754762Y-57133390D02*
X178707143Y-57085771D01*
X178707143Y-57085771D02*
X178659524Y-56990533D01*
X178659524Y-56990533D02*
X178659524Y-56895295D01*
X178659524Y-56895295D02*
X178707143Y-56800057D01*
X178707143Y-56800057D02*
X178754762Y-56752438D01*
X178754762Y-56752438D02*
X178850000Y-56704819D01*
X178850000Y-56704819D02*
X179088095Y-56704819D01*
X179088095Y-56704819D02*
X179230952Y-56752438D01*
X179992857Y-57181009D02*
X180135714Y-57228628D01*
X180135714Y-57228628D02*
X180183333Y-57276247D01*
X180183333Y-57276247D02*
X180230952Y-57371485D01*
X180230952Y-57371485D02*
X180230952Y-57514342D01*
X180230952Y-57514342D02*
X180183333Y-57609580D01*
X180183333Y-57609580D02*
X180135714Y-57657200D01*
X180135714Y-57657200D02*
X180040476Y-57704819D01*
X180040476Y-57704819D02*
X179659524Y-57704819D01*
X179659524Y-57704819D02*
X179659524Y-56704819D01*
X179659524Y-56704819D02*
X179992857Y-56704819D01*
X179992857Y-56704819D02*
X180088095Y-56752438D01*
X180088095Y-56752438D02*
X180135714Y-56800057D01*
X180135714Y-56800057D02*
X180183333Y-56895295D01*
X180183333Y-56895295D02*
X180183333Y-56990533D01*
X180183333Y-56990533D02*
X180135714Y-57085771D01*
X180135714Y-57085771D02*
X180088095Y-57133390D01*
X180088095Y-57133390D02*
X179992857Y-57181009D01*
X179992857Y-57181009D02*
X179659524Y-57181009D01*
X181421429Y-57704819D02*
X181421429Y-56704819D01*
X181421429Y-56704819D02*
X181802381Y-56704819D01*
X181802381Y-56704819D02*
X181897619Y-56752438D01*
X181897619Y-56752438D02*
X181945238Y-56800057D01*
X181945238Y-56800057D02*
X181992857Y-56895295D01*
X181992857Y-56895295D02*
X181992857Y-57038152D01*
X181992857Y-57038152D02*
X181945238Y-57133390D01*
X181945238Y-57133390D02*
X181897619Y-57181009D01*
X181897619Y-57181009D02*
X181802381Y-57228628D01*
X181802381Y-57228628D02*
X181421429Y-57228628D01*
X182611905Y-56704819D02*
X182802381Y-56704819D01*
X182802381Y-56704819D02*
X182897619Y-56752438D01*
X182897619Y-56752438D02*
X182992857Y-56847676D01*
X182992857Y-56847676D02*
X183040476Y-57038152D01*
X183040476Y-57038152D02*
X183040476Y-57371485D01*
X183040476Y-57371485D02*
X182992857Y-57561961D01*
X182992857Y-57561961D02*
X182897619Y-57657200D01*
X182897619Y-57657200D02*
X182802381Y-57704819D01*
X182802381Y-57704819D02*
X182611905Y-57704819D01*
X182611905Y-57704819D02*
X182516667Y-57657200D01*
X182516667Y-57657200D02*
X182421429Y-57561961D01*
X182421429Y-57561961D02*
X182373810Y-57371485D01*
X182373810Y-57371485D02*
X182373810Y-57038152D01*
X182373810Y-57038152D02*
X182421429Y-56847676D01*
X182421429Y-56847676D02*
X182516667Y-56752438D01*
X182516667Y-56752438D02*
X182611905Y-56704819D01*
X183373810Y-56704819D02*
X183611905Y-57704819D01*
X183611905Y-57704819D02*
X183802381Y-56990533D01*
X183802381Y-56990533D02*
X183992857Y-57704819D01*
X183992857Y-57704819D02*
X184230953Y-56704819D01*
X184611905Y-57181009D02*
X184945238Y-57181009D01*
X185088095Y-57704819D02*
X184611905Y-57704819D01*
X184611905Y-57704819D02*
X184611905Y-56704819D01*
X184611905Y-56704819D02*
X185088095Y-56704819D01*
X186088095Y-57704819D02*
X185754762Y-57228628D01*
X185516667Y-57704819D02*
X185516667Y-56704819D01*
X185516667Y-56704819D02*
X185897619Y-56704819D01*
X185897619Y-56704819D02*
X185992857Y-56752438D01*
X185992857Y-56752438D02*
X186040476Y-56800057D01*
X186040476Y-56800057D02*
X186088095Y-56895295D01*
X186088095Y-56895295D02*
X186088095Y-57038152D01*
X186088095Y-57038152D02*
X186040476Y-57133390D01*
X186040476Y-57133390D02*
X185992857Y-57181009D01*
X185992857Y-57181009D02*
X185897619Y-57228628D01*
X185897619Y-57228628D02*
X185516667Y-57228628D01*
D16*
X181712554Y-138762038D02*
X181712554Y-136762038D01*
X181712554Y-136762038D02*
X182379221Y-138190609D01*
X182379221Y-138190609D02*
X183045887Y-136762038D01*
X183045887Y-136762038D02*
X183045887Y-138762038D01*
X183998268Y-138762038D02*
X183998268Y-136762038D01*
X184950649Y-138762038D02*
X184950649Y-136762038D01*
X184950649Y-136762038D02*
X185426839Y-136762038D01*
X185426839Y-136762038D02*
X185712554Y-136857276D01*
X185712554Y-136857276D02*
X185903030Y-137047752D01*
X185903030Y-137047752D02*
X185998268Y-137238228D01*
X185998268Y-137238228D02*
X186093506Y-137619180D01*
X186093506Y-137619180D02*
X186093506Y-137904895D01*
X186093506Y-137904895D02*
X185998268Y-138285847D01*
X185998268Y-138285847D02*
X185903030Y-138476323D01*
X185903030Y-138476323D02*
X185712554Y-138666800D01*
X185712554Y-138666800D02*
X185426839Y-138762038D01*
X185426839Y-138762038D02*
X184950649Y-138762038D01*
X186950649Y-138762038D02*
X186950649Y-136762038D01*
X189807792Y-136762038D02*
X190188745Y-136762038D01*
X190188745Y-136762038D02*
X190379221Y-136857276D01*
X190379221Y-136857276D02*
X190569697Y-137047752D01*
X190569697Y-137047752D02*
X190664935Y-137428704D01*
X190664935Y-137428704D02*
X190664935Y-138095371D01*
X190664935Y-138095371D02*
X190569697Y-138476323D01*
X190569697Y-138476323D02*
X190379221Y-138666800D01*
X190379221Y-138666800D02*
X190188745Y-138762038D01*
X190188745Y-138762038D02*
X189807792Y-138762038D01*
X189807792Y-138762038D02*
X189617316Y-138666800D01*
X189617316Y-138666800D02*
X189426840Y-138476323D01*
X189426840Y-138476323D02*
X189331602Y-138095371D01*
X189331602Y-138095371D02*
X189331602Y-137428704D01*
X189331602Y-137428704D02*
X189426840Y-137047752D01*
X189426840Y-137047752D02*
X189617316Y-136857276D01*
X189617316Y-136857276D02*
X189807792Y-136762038D01*
X191522078Y-136762038D02*
X191522078Y-138381085D01*
X191522078Y-138381085D02*
X191617316Y-138571561D01*
X191617316Y-138571561D02*
X191712554Y-138666800D01*
X191712554Y-138666800D02*
X191903030Y-138762038D01*
X191903030Y-138762038D02*
X192283983Y-138762038D01*
X192283983Y-138762038D02*
X192474459Y-138666800D01*
X192474459Y-138666800D02*
X192569697Y-138571561D01*
X192569697Y-138571561D02*
X192664935Y-138381085D01*
X192664935Y-138381085D02*
X192664935Y-136762038D01*
X193331602Y-136762038D02*
X194474459Y-136762038D01*
X193903030Y-138762038D02*
X193903030Y-136762038D01*
D14*
X113700707Y-100687894D02*
X113653088Y-100640275D01*
X113653088Y-100640275D02*
X113605469Y-100545037D01*
X113605469Y-100545037D02*
X113605469Y-100306942D01*
X113605469Y-100306942D02*
X113653088Y-100211704D01*
X113653088Y-100211704D02*
X113700707Y-100164085D01*
X113700707Y-100164085D02*
X113795945Y-100116466D01*
X113795945Y-100116466D02*
X113891183Y-100116466D01*
X113891183Y-100116466D02*
X114034040Y-100164085D01*
X114034040Y-100164085D02*
X114605469Y-100735513D01*
X114605469Y-100735513D02*
X114605469Y-100116466D01*
X113700707Y-99735513D02*
X113653088Y-99687894D01*
X113653088Y-99687894D02*
X113605469Y-99592656D01*
X113605469Y-99592656D02*
X113605469Y-99354561D01*
X113605469Y-99354561D02*
X113653088Y-99259323D01*
X113653088Y-99259323D02*
X113700707Y-99211704D01*
X113700707Y-99211704D02*
X113795945Y-99164085D01*
X113795945Y-99164085D02*
X113891183Y-99164085D01*
X113891183Y-99164085D02*
X114034040Y-99211704D01*
X114034040Y-99211704D02*
X114605469Y-99783132D01*
X114605469Y-99783132D02*
X114605469Y-99164085D01*
X113605469Y-98545037D02*
X113605469Y-98449799D01*
X113605469Y-98449799D02*
X113653088Y-98354561D01*
X113653088Y-98354561D02*
X113700707Y-98306942D01*
X113700707Y-98306942D02*
X113795945Y-98259323D01*
X113795945Y-98259323D02*
X113986421Y-98211704D01*
X113986421Y-98211704D02*
X114224516Y-98211704D01*
X114224516Y-98211704D02*
X114414992Y-98259323D01*
X114414992Y-98259323D02*
X114510230Y-98306942D01*
X114510230Y-98306942D02*
X114557850Y-98354561D01*
X114557850Y-98354561D02*
X114605469Y-98449799D01*
X114605469Y-98449799D02*
X114605469Y-98545037D01*
X114605469Y-98545037D02*
X114557850Y-98640275D01*
X114557850Y-98640275D02*
X114510230Y-98687894D01*
X114510230Y-98687894D02*
X114414992Y-98735513D01*
X114414992Y-98735513D02*
X114224516Y-98783132D01*
X114224516Y-98783132D02*
X113986421Y-98783132D01*
X113986421Y-98783132D02*
X113795945Y-98735513D01*
X113795945Y-98735513D02*
X113700707Y-98687894D01*
X113700707Y-98687894D02*
X113653088Y-98640275D01*
X113653088Y-98640275D02*
X113605469Y-98545037D01*
X148312605Y-117319857D02*
X148360224Y-117272238D01*
X148360224Y-117272238D02*
X148455462Y-117224619D01*
X148455462Y-117224619D02*
X148693557Y-117224619D01*
X148693557Y-117224619D02*
X148788795Y-117272238D01*
X148788795Y-117272238D02*
X148836414Y-117319857D01*
X148836414Y-117319857D02*
X148884033Y-117415095D01*
X148884033Y-117415095D02*
X148884033Y-117510333D01*
X148884033Y-117510333D02*
X148836414Y-117653190D01*
X148836414Y-117653190D02*
X148264986Y-118224619D01*
X148264986Y-118224619D02*
X148884033Y-118224619D01*
X149264986Y-117319857D02*
X149312605Y-117272238D01*
X149312605Y-117272238D02*
X149407843Y-117224619D01*
X149407843Y-117224619D02*
X149645938Y-117224619D01*
X149645938Y-117224619D02*
X149741176Y-117272238D01*
X149741176Y-117272238D02*
X149788795Y-117319857D01*
X149788795Y-117319857D02*
X149836414Y-117415095D01*
X149836414Y-117415095D02*
X149836414Y-117510333D01*
X149836414Y-117510333D02*
X149788795Y-117653190D01*
X149788795Y-117653190D02*
X149217367Y-118224619D01*
X149217367Y-118224619D02*
X149836414Y-118224619D01*
X150455462Y-117224619D02*
X150550700Y-117224619D01*
X150550700Y-117224619D02*
X150645938Y-117272238D01*
X150645938Y-117272238D02*
X150693557Y-117319857D01*
X150693557Y-117319857D02*
X150741176Y-117415095D01*
X150741176Y-117415095D02*
X150788795Y-117605571D01*
X150788795Y-117605571D02*
X150788795Y-117843666D01*
X150788795Y-117843666D02*
X150741176Y-118034142D01*
X150741176Y-118034142D02*
X150693557Y-118129380D01*
X150693557Y-118129380D02*
X150645938Y-118177000D01*
X150645938Y-118177000D02*
X150550700Y-118224619D01*
X150550700Y-118224619D02*
X150455462Y-118224619D01*
X150455462Y-118224619D02*
X150360224Y-118177000D01*
X150360224Y-118177000D02*
X150312605Y-118129380D01*
X150312605Y-118129380D02*
X150264986Y-118034142D01*
X150264986Y-118034142D02*
X150217367Y-117843666D01*
X150217367Y-117843666D02*
X150217367Y-117605571D01*
X150217367Y-117605571D02*
X150264986Y-117415095D01*
X150264986Y-117415095D02*
X150312605Y-117319857D01*
X150312605Y-117319857D02*
X150360224Y-117272238D01*
X150360224Y-117272238D02*
X150455462Y-117224619D01*
D15*
X145879220Y-133806780D02*
X145831601Y-133854400D01*
X145831601Y-133854400D02*
X145688744Y-133902019D01*
X145688744Y-133902019D02*
X145593506Y-133902019D01*
X145593506Y-133902019D02*
X145450649Y-133854400D01*
X145450649Y-133854400D02*
X145355411Y-133759161D01*
X145355411Y-133759161D02*
X145307792Y-133663923D01*
X145307792Y-133663923D02*
X145260173Y-133473447D01*
X145260173Y-133473447D02*
X145260173Y-133330590D01*
X145260173Y-133330590D02*
X145307792Y-133140114D01*
X145307792Y-133140114D02*
X145355411Y-133044876D01*
X145355411Y-133044876D02*
X145450649Y-132949638D01*
X145450649Y-132949638D02*
X145593506Y-132902019D01*
X145593506Y-132902019D02*
X145688744Y-132902019D01*
X145688744Y-132902019D02*
X145831601Y-132949638D01*
X145831601Y-132949638D02*
X145879220Y-132997257D01*
X146164935Y-132902019D02*
X146498268Y-133902019D01*
X146498268Y-133902019D02*
X146831601Y-132902019D01*
X147926840Y-133902019D02*
X147926840Y-132902019D01*
X147926840Y-132902019D02*
X148307792Y-132902019D01*
X148307792Y-132902019D02*
X148403030Y-132949638D01*
X148403030Y-132949638D02*
X148450649Y-132997257D01*
X148450649Y-132997257D02*
X148498268Y-133092495D01*
X148498268Y-133092495D02*
X148498268Y-133235352D01*
X148498268Y-133235352D02*
X148450649Y-133330590D01*
X148450649Y-133330590D02*
X148403030Y-133378209D01*
X148403030Y-133378209D02*
X148307792Y-133425828D01*
X148307792Y-133425828D02*
X147926840Y-133425828D01*
X149403030Y-133902019D02*
X148926840Y-133902019D01*
X148926840Y-133902019D02*
X148926840Y-132902019D01*
X149688745Y-133616304D02*
X150164935Y-133616304D01*
X149593507Y-133902019D02*
X149926840Y-132902019D01*
X149926840Y-132902019D02*
X150260173Y-133902019D01*
X150783983Y-133425828D02*
X150783983Y-133902019D01*
X150450650Y-132902019D02*
X150783983Y-133425828D01*
X150783983Y-133425828D02*
X151117316Y-132902019D01*
X151450650Y-133521066D02*
X152212555Y-133521066D01*
X152641126Y-133854400D02*
X152783983Y-133902019D01*
X152783983Y-133902019D02*
X153022078Y-133902019D01*
X153022078Y-133902019D02*
X153117316Y-133854400D01*
X153117316Y-133854400D02*
X153164935Y-133806780D01*
X153164935Y-133806780D02*
X153212554Y-133711542D01*
X153212554Y-133711542D02*
X153212554Y-133616304D01*
X153212554Y-133616304D02*
X153164935Y-133521066D01*
X153164935Y-133521066D02*
X153117316Y-133473447D01*
X153117316Y-133473447D02*
X153022078Y-133425828D01*
X153022078Y-133425828D02*
X152831602Y-133378209D01*
X152831602Y-133378209D02*
X152736364Y-133330590D01*
X152736364Y-133330590D02*
X152688745Y-133282971D01*
X152688745Y-133282971D02*
X152641126Y-133187733D01*
X152641126Y-133187733D02*
X152641126Y-133092495D01*
X152641126Y-133092495D02*
X152688745Y-132997257D01*
X152688745Y-132997257D02*
X152736364Y-132949638D01*
X152736364Y-132949638D02*
X152831602Y-132902019D01*
X152831602Y-132902019D02*
X153069697Y-132902019D01*
X153069697Y-132902019D02*
X153212554Y-132949638D01*
X153498269Y-132902019D02*
X154069697Y-132902019D01*
X153783983Y-133902019D02*
X153783983Y-132902019D01*
X154593507Y-132902019D02*
X154783983Y-132902019D01*
X154783983Y-132902019D02*
X154879221Y-132949638D01*
X154879221Y-132949638D02*
X154974459Y-133044876D01*
X154974459Y-133044876D02*
X155022078Y-133235352D01*
X155022078Y-133235352D02*
X155022078Y-133568685D01*
X155022078Y-133568685D02*
X154974459Y-133759161D01*
X154974459Y-133759161D02*
X154879221Y-133854400D01*
X154879221Y-133854400D02*
X154783983Y-133902019D01*
X154783983Y-133902019D02*
X154593507Y-133902019D01*
X154593507Y-133902019D02*
X154498269Y-133854400D01*
X154498269Y-133854400D02*
X154403031Y-133759161D01*
X154403031Y-133759161D02*
X154355412Y-133568685D01*
X154355412Y-133568685D02*
X154355412Y-133235352D01*
X154355412Y-133235352D02*
X154403031Y-133044876D01*
X154403031Y-133044876D02*
X154498269Y-132949638D01*
X154498269Y-132949638D02*
X154593507Y-132902019D01*
X155450650Y-133902019D02*
X155450650Y-132902019D01*
X155450650Y-132902019D02*
X155831602Y-132902019D01*
X155831602Y-132902019D02*
X155926840Y-132949638D01*
X155926840Y-132949638D02*
X155974459Y-132997257D01*
X155974459Y-132997257D02*
X156022078Y-133092495D01*
X156022078Y-133092495D02*
X156022078Y-133235352D01*
X156022078Y-133235352D02*
X155974459Y-133330590D01*
X155974459Y-133330590D02*
X155926840Y-133378209D01*
X155926840Y-133378209D02*
X155831602Y-133425828D01*
X155831602Y-133425828D02*
X155450650Y-133425828D01*
X157403031Y-132902019D02*
X157593507Y-132902019D01*
X157593507Y-132902019D02*
X157688745Y-132949638D01*
X157688745Y-132949638D02*
X157783983Y-133044876D01*
X157783983Y-133044876D02*
X157831602Y-133235352D01*
X157831602Y-133235352D02*
X157831602Y-133568685D01*
X157831602Y-133568685D02*
X157783983Y-133759161D01*
X157783983Y-133759161D02*
X157688745Y-133854400D01*
X157688745Y-133854400D02*
X157593507Y-133902019D01*
X157593507Y-133902019D02*
X157403031Y-133902019D01*
X157403031Y-133902019D02*
X157307793Y-133854400D01*
X157307793Y-133854400D02*
X157212555Y-133759161D01*
X157212555Y-133759161D02*
X157164936Y-133568685D01*
X157164936Y-133568685D02*
X157164936Y-133235352D01*
X157164936Y-133235352D02*
X157212555Y-133044876D01*
X157212555Y-133044876D02*
X157307793Y-132949638D01*
X157307793Y-132949638D02*
X157403031Y-132902019D01*
X158260174Y-132902019D02*
X158260174Y-133711542D01*
X158260174Y-133711542D02*
X158307793Y-133806780D01*
X158307793Y-133806780D02*
X158355412Y-133854400D01*
X158355412Y-133854400D02*
X158450650Y-133902019D01*
X158450650Y-133902019D02*
X158641126Y-133902019D01*
X158641126Y-133902019D02*
X158736364Y-133854400D01*
X158736364Y-133854400D02*
X158783983Y-133806780D01*
X158783983Y-133806780D02*
X158831602Y-133711542D01*
X158831602Y-133711542D02*
X158831602Y-132902019D01*
X159164936Y-132902019D02*
X159736364Y-132902019D01*
X159450650Y-133902019D02*
X159450650Y-132902019D01*
D14*
X123079871Y-77374419D02*
X122508443Y-77374419D01*
X122794157Y-77374419D02*
X122794157Y-76374419D01*
X122794157Y-76374419D02*
X122698919Y-76517276D01*
X122698919Y-76517276D02*
X122603681Y-76612514D01*
X122603681Y-76612514D02*
X122508443Y-76660133D01*
X123698919Y-76374419D02*
X123794157Y-76374419D01*
X123794157Y-76374419D02*
X123889395Y-76422038D01*
X123889395Y-76422038D02*
X123937014Y-76469657D01*
X123937014Y-76469657D02*
X123984633Y-76564895D01*
X123984633Y-76564895D02*
X124032252Y-76755371D01*
X124032252Y-76755371D02*
X124032252Y-76993466D01*
X124032252Y-76993466D02*
X123984633Y-77183942D01*
X123984633Y-77183942D02*
X123937014Y-77279180D01*
X123937014Y-77279180D02*
X123889395Y-77326800D01*
X123889395Y-77326800D02*
X123794157Y-77374419D01*
X123794157Y-77374419D02*
X123698919Y-77374419D01*
X123698919Y-77374419D02*
X123603681Y-77326800D01*
X123603681Y-77326800D02*
X123556062Y-77279180D01*
X123556062Y-77279180D02*
X123508443Y-77183942D01*
X123508443Y-77183942D02*
X123460824Y-76993466D01*
X123460824Y-76993466D02*
X123460824Y-76755371D01*
X123460824Y-76755371D02*
X123508443Y-76564895D01*
X123508443Y-76564895D02*
X123556062Y-76469657D01*
X123556062Y-76469657D02*
X123603681Y-76422038D01*
X123603681Y-76422038D02*
X123698919Y-76374419D01*
X124651300Y-76374419D02*
X124746538Y-76374419D01*
X124746538Y-76374419D02*
X124841776Y-76422038D01*
X124841776Y-76422038D02*
X124889395Y-76469657D01*
X124889395Y-76469657D02*
X124937014Y-76564895D01*
X124937014Y-76564895D02*
X124984633Y-76755371D01*
X124984633Y-76755371D02*
X124984633Y-76993466D01*
X124984633Y-76993466D02*
X124937014Y-77183942D01*
X124937014Y-77183942D02*
X124889395Y-77279180D01*
X124889395Y-77279180D02*
X124841776Y-77326800D01*
X124841776Y-77326800D02*
X124746538Y-77374419D01*
X124746538Y-77374419D02*
X124651300Y-77374419D01*
X124651300Y-77374419D02*
X124556062Y-77326800D01*
X124556062Y-77326800D02*
X124508443Y-77279180D01*
X124508443Y-77279180D02*
X124460824Y-77183942D01*
X124460824Y-77183942D02*
X124413205Y-76993466D01*
X124413205Y-76993466D02*
X124413205Y-76755371D01*
X124413205Y-76755371D02*
X124460824Y-76564895D01*
X124460824Y-76564895D02*
X124508443Y-76469657D01*
X124508443Y-76469657D02*
X124556062Y-76422038D01*
X124556062Y-76422038D02*
X124651300Y-76374419D01*
X125413205Y-77374419D02*
X125413205Y-76374419D01*
X125508443Y-76993466D02*
X125794157Y-77374419D01*
X125794157Y-76707752D02*
X125413205Y-77088704D01*
D15*
X160148270Y-66501819D02*
X160148270Y-65501819D01*
X160148270Y-65501819D02*
X160481603Y-66216104D01*
X160481603Y-66216104D02*
X160814936Y-65501819D01*
X160814936Y-65501819D02*
X160814936Y-66501819D01*
X161291127Y-66501819D02*
X161291127Y-65501819D01*
X161767317Y-66501819D02*
X161767317Y-65501819D01*
X161767317Y-65501819D02*
X162005412Y-65501819D01*
X162005412Y-65501819D02*
X162148269Y-65549438D01*
X162148269Y-65549438D02*
X162243507Y-65644676D01*
X162243507Y-65644676D02*
X162291126Y-65739914D01*
X162291126Y-65739914D02*
X162338745Y-65930390D01*
X162338745Y-65930390D02*
X162338745Y-66073247D01*
X162338745Y-66073247D02*
X162291126Y-66263723D01*
X162291126Y-66263723D02*
X162243507Y-66358961D01*
X162243507Y-66358961D02*
X162148269Y-66454200D01*
X162148269Y-66454200D02*
X162005412Y-66501819D01*
X162005412Y-66501819D02*
X161767317Y-66501819D01*
X162767317Y-66501819D02*
X162767317Y-65501819D01*
X164005412Y-66501819D02*
X164005412Y-65501819D01*
X164481602Y-66501819D02*
X164481602Y-65501819D01*
X164481602Y-65501819D02*
X165053030Y-66501819D01*
X165053030Y-66501819D02*
X165053030Y-65501819D01*
X141898270Y-64702019D02*
X141898270Y-63702019D01*
X141898270Y-63702019D02*
X142231603Y-64416304D01*
X142231603Y-64416304D02*
X142564936Y-63702019D01*
X142564936Y-63702019D02*
X142564936Y-64702019D01*
X143041127Y-64702019D02*
X143041127Y-63702019D01*
X143517317Y-64702019D02*
X143517317Y-63702019D01*
X143517317Y-63702019D02*
X143755412Y-63702019D01*
X143755412Y-63702019D02*
X143898269Y-63749638D01*
X143898269Y-63749638D02*
X143993507Y-63844876D01*
X143993507Y-63844876D02*
X144041126Y-63940114D01*
X144041126Y-63940114D02*
X144088745Y-64130590D01*
X144088745Y-64130590D02*
X144088745Y-64273447D01*
X144088745Y-64273447D02*
X144041126Y-64463923D01*
X144041126Y-64463923D02*
X143993507Y-64559161D01*
X143993507Y-64559161D02*
X143898269Y-64654400D01*
X143898269Y-64654400D02*
X143755412Y-64702019D01*
X143755412Y-64702019D02*
X143517317Y-64702019D01*
X144517317Y-64702019D02*
X144517317Y-63702019D01*
X145755412Y-64702019D02*
X145755412Y-63702019D01*
X146231602Y-64702019D02*
X146231602Y-63702019D01*
X146231602Y-63702019D02*
X146803030Y-64702019D01*
X146803030Y-64702019D02*
X146803030Y-63702019D01*
D14*
X176900707Y-128887894D02*
X176853088Y-128840275D01*
X176853088Y-128840275D02*
X176805469Y-128745037D01*
X176805469Y-128745037D02*
X176805469Y-128506942D01*
X176805469Y-128506942D02*
X176853088Y-128411704D01*
X176853088Y-128411704D02*
X176900707Y-128364085D01*
X176900707Y-128364085D02*
X176995945Y-128316466D01*
X176995945Y-128316466D02*
X177091183Y-128316466D01*
X177091183Y-128316466D02*
X177234040Y-128364085D01*
X177234040Y-128364085D02*
X177805469Y-128935513D01*
X177805469Y-128935513D02*
X177805469Y-128316466D01*
X176900707Y-127935513D02*
X176853088Y-127887894D01*
X176853088Y-127887894D02*
X176805469Y-127792656D01*
X176805469Y-127792656D02*
X176805469Y-127554561D01*
X176805469Y-127554561D02*
X176853088Y-127459323D01*
X176853088Y-127459323D02*
X176900707Y-127411704D01*
X176900707Y-127411704D02*
X176995945Y-127364085D01*
X176995945Y-127364085D02*
X177091183Y-127364085D01*
X177091183Y-127364085D02*
X177234040Y-127411704D01*
X177234040Y-127411704D02*
X177805469Y-127983132D01*
X177805469Y-127983132D02*
X177805469Y-127364085D01*
X176805469Y-126745037D02*
X176805469Y-126649799D01*
X176805469Y-126649799D02*
X176853088Y-126554561D01*
X176853088Y-126554561D02*
X176900707Y-126506942D01*
X176900707Y-126506942D02*
X176995945Y-126459323D01*
X176995945Y-126459323D02*
X177186421Y-126411704D01*
X177186421Y-126411704D02*
X177424516Y-126411704D01*
X177424516Y-126411704D02*
X177614992Y-126459323D01*
X177614992Y-126459323D02*
X177710230Y-126506942D01*
X177710230Y-126506942D02*
X177757850Y-126554561D01*
X177757850Y-126554561D02*
X177805469Y-126649799D01*
X177805469Y-126649799D02*
X177805469Y-126745037D01*
X177805469Y-126745037D02*
X177757850Y-126840275D01*
X177757850Y-126840275D02*
X177710230Y-126887894D01*
X177710230Y-126887894D02*
X177614992Y-126935513D01*
X177614992Y-126935513D02*
X177424516Y-126983132D01*
X177424516Y-126983132D02*
X177186421Y-126983132D01*
X177186421Y-126983132D02*
X176995945Y-126935513D01*
X176995945Y-126935513D02*
X176900707Y-126887894D01*
X176900707Y-126887894D02*
X176853088Y-126840275D01*
X176853088Y-126840275D02*
X176805469Y-126745037D01*
X139112555Y-122783357D02*
X139160174Y-122735738D01*
X139160174Y-122735738D02*
X139255412Y-122688119D01*
X139255412Y-122688119D02*
X139493507Y-122688119D01*
X139493507Y-122688119D02*
X139588745Y-122735738D01*
X139588745Y-122735738D02*
X139636364Y-122783357D01*
X139636364Y-122783357D02*
X139683983Y-122878595D01*
X139683983Y-122878595D02*
X139683983Y-122973833D01*
X139683983Y-122973833D02*
X139636364Y-123116690D01*
X139636364Y-123116690D02*
X139064936Y-123688119D01*
X139064936Y-123688119D02*
X139683983Y-123688119D01*
X140064936Y-122783357D02*
X140112555Y-122735738D01*
X140112555Y-122735738D02*
X140207793Y-122688119D01*
X140207793Y-122688119D02*
X140445888Y-122688119D01*
X140445888Y-122688119D02*
X140541126Y-122735738D01*
X140541126Y-122735738D02*
X140588745Y-122783357D01*
X140588745Y-122783357D02*
X140636364Y-122878595D01*
X140636364Y-122878595D02*
X140636364Y-122973833D01*
X140636364Y-122973833D02*
X140588745Y-123116690D01*
X140588745Y-123116690D02*
X140017317Y-123688119D01*
X140017317Y-123688119D02*
X140636364Y-123688119D01*
X141255412Y-122688119D02*
X141350650Y-122688119D01*
X141350650Y-122688119D02*
X141445888Y-122735738D01*
X141445888Y-122735738D02*
X141493507Y-122783357D01*
X141493507Y-122783357D02*
X141541126Y-122878595D01*
X141541126Y-122878595D02*
X141588745Y-123069071D01*
X141588745Y-123069071D02*
X141588745Y-123307166D01*
X141588745Y-123307166D02*
X141541126Y-123497642D01*
X141541126Y-123497642D02*
X141493507Y-123592880D01*
X141493507Y-123592880D02*
X141445888Y-123640500D01*
X141445888Y-123640500D02*
X141350650Y-123688119D01*
X141350650Y-123688119D02*
X141255412Y-123688119D01*
X141255412Y-123688119D02*
X141160174Y-123640500D01*
X141160174Y-123640500D02*
X141112555Y-123592880D01*
X141112555Y-123592880D02*
X141064936Y-123497642D01*
X141064936Y-123497642D02*
X141017317Y-123307166D01*
X141017317Y-123307166D02*
X141017317Y-123069071D01*
X141017317Y-123069071D02*
X141064936Y-122878595D01*
X141064936Y-122878595D02*
X141112555Y-122783357D01*
X141112555Y-122783357D02*
X141160174Y-122735738D01*
X141160174Y-122735738D02*
X141255412Y-122688119D01*
D16*
X96863254Y-138962038D02*
X96863254Y-136962038D01*
X96863254Y-136962038D02*
X97529921Y-138390609D01*
X97529921Y-138390609D02*
X98196587Y-136962038D01*
X98196587Y-136962038D02*
X98196587Y-138962038D01*
X99148968Y-138962038D02*
X99148968Y-136962038D01*
X100101349Y-138962038D02*
X100101349Y-136962038D01*
X100101349Y-136962038D02*
X100577539Y-136962038D01*
X100577539Y-136962038D02*
X100863254Y-137057276D01*
X100863254Y-137057276D02*
X101053730Y-137247752D01*
X101053730Y-137247752D02*
X101148968Y-137438228D01*
X101148968Y-137438228D02*
X101244206Y-137819180D01*
X101244206Y-137819180D02*
X101244206Y-138104895D01*
X101244206Y-138104895D02*
X101148968Y-138485847D01*
X101148968Y-138485847D02*
X101053730Y-138676323D01*
X101053730Y-138676323D02*
X100863254Y-138866800D01*
X100863254Y-138866800D02*
X100577539Y-138962038D01*
X100577539Y-138962038D02*
X100101349Y-138962038D01*
X102101349Y-138962038D02*
X102101349Y-136962038D01*
X104958492Y-136962038D02*
X105339445Y-136962038D01*
X105339445Y-136962038D02*
X105529921Y-137057276D01*
X105529921Y-137057276D02*
X105720397Y-137247752D01*
X105720397Y-137247752D02*
X105815635Y-137628704D01*
X105815635Y-137628704D02*
X105815635Y-138295371D01*
X105815635Y-138295371D02*
X105720397Y-138676323D01*
X105720397Y-138676323D02*
X105529921Y-138866800D01*
X105529921Y-138866800D02*
X105339445Y-138962038D01*
X105339445Y-138962038D02*
X104958492Y-138962038D01*
X104958492Y-138962038D02*
X104768016Y-138866800D01*
X104768016Y-138866800D02*
X104577540Y-138676323D01*
X104577540Y-138676323D02*
X104482302Y-138295371D01*
X104482302Y-138295371D02*
X104482302Y-137628704D01*
X104482302Y-137628704D02*
X104577540Y-137247752D01*
X104577540Y-137247752D02*
X104768016Y-137057276D01*
X104768016Y-137057276D02*
X104958492Y-136962038D01*
X106672778Y-136962038D02*
X106672778Y-138581085D01*
X106672778Y-138581085D02*
X106768016Y-138771561D01*
X106768016Y-138771561D02*
X106863254Y-138866800D01*
X106863254Y-138866800D02*
X107053730Y-138962038D01*
X107053730Y-138962038D02*
X107434683Y-138962038D01*
X107434683Y-138962038D02*
X107625159Y-138866800D01*
X107625159Y-138866800D02*
X107720397Y-138771561D01*
X107720397Y-138771561D02*
X107815635Y-138581085D01*
X107815635Y-138581085D02*
X107815635Y-136962038D01*
X108482302Y-136962038D02*
X109625159Y-136962038D01*
X109053730Y-138962038D02*
X109053730Y-136962038D01*
D14*
X150960700Y-86004619D02*
X151055938Y-86004619D01*
X151055938Y-86004619D02*
X151151176Y-86052238D01*
X151151176Y-86052238D02*
X151198795Y-86099857D01*
X151198795Y-86099857D02*
X151246414Y-86195095D01*
X151246414Y-86195095D02*
X151294033Y-86385571D01*
X151294033Y-86385571D02*
X151294033Y-86623666D01*
X151294033Y-86623666D02*
X151246414Y-86814142D01*
X151246414Y-86814142D02*
X151198795Y-86909380D01*
X151198795Y-86909380D02*
X151151176Y-86957000D01*
X151151176Y-86957000D02*
X151055938Y-87004619D01*
X151055938Y-87004619D02*
X150960700Y-87004619D01*
X150960700Y-87004619D02*
X150865462Y-86957000D01*
X150865462Y-86957000D02*
X150817843Y-86909380D01*
X150817843Y-86909380D02*
X150770224Y-86814142D01*
X150770224Y-86814142D02*
X150722605Y-86623666D01*
X150722605Y-86623666D02*
X150722605Y-86385571D01*
X150722605Y-86385571D02*
X150770224Y-86195095D01*
X150770224Y-86195095D02*
X150817843Y-86099857D01*
X150817843Y-86099857D02*
X150865462Y-86052238D01*
X150865462Y-86052238D02*
X150960700Y-86004619D01*
X151722605Y-86909380D02*
X151770224Y-86957000D01*
X151770224Y-86957000D02*
X151722605Y-87004619D01*
X151722605Y-87004619D02*
X151674986Y-86957000D01*
X151674986Y-86957000D02*
X151722605Y-86909380D01*
X151722605Y-86909380D02*
X151722605Y-87004619D01*
X152722604Y-87004619D02*
X152151176Y-87004619D01*
X152436890Y-87004619D02*
X152436890Y-86004619D01*
X152436890Y-86004619D02*
X152341652Y-86147476D01*
X152341652Y-86147476D02*
X152246414Y-86242714D01*
X152246414Y-86242714D02*
X152151176Y-86290333D01*
X153579747Y-86337952D02*
X153579747Y-87004619D01*
X153151176Y-86337952D02*
X153151176Y-86861761D01*
X153151176Y-86861761D02*
X153198795Y-86957000D01*
X153198795Y-86957000D02*
X153294033Y-87004619D01*
X153294033Y-87004619D02*
X153436890Y-87004619D01*
X153436890Y-87004619D02*
X153532128Y-86957000D01*
X153532128Y-86957000D02*
X153579747Y-86909380D01*
X153913081Y-86337952D02*
X154294033Y-86337952D01*
X154055938Y-87004619D02*
X154055938Y-86147476D01*
X154055938Y-86147476D02*
X154103557Y-86052238D01*
X154103557Y-86052238D02*
X154198795Y-86004619D01*
X154198795Y-86004619D02*
X154294033Y-86004619D01*
D15*
X119312604Y-133906780D02*
X119264985Y-133954400D01*
X119264985Y-133954400D02*
X119122128Y-134002019D01*
X119122128Y-134002019D02*
X119026890Y-134002019D01*
X119026890Y-134002019D02*
X118884033Y-133954400D01*
X118884033Y-133954400D02*
X118788795Y-133859161D01*
X118788795Y-133859161D02*
X118741176Y-133763923D01*
X118741176Y-133763923D02*
X118693557Y-133573447D01*
X118693557Y-133573447D02*
X118693557Y-133430590D01*
X118693557Y-133430590D02*
X118741176Y-133240114D01*
X118741176Y-133240114D02*
X118788795Y-133144876D01*
X118788795Y-133144876D02*
X118884033Y-133049638D01*
X118884033Y-133049638D02*
X119026890Y-133002019D01*
X119026890Y-133002019D02*
X119122128Y-133002019D01*
X119122128Y-133002019D02*
X119264985Y-133049638D01*
X119264985Y-133049638D02*
X119312604Y-133097257D01*
X119598319Y-133002019D02*
X119931652Y-134002019D01*
X119931652Y-134002019D02*
X120264985Y-133002019D01*
X121931652Y-133906780D02*
X121884033Y-133954400D01*
X121884033Y-133954400D02*
X121741176Y-134002019D01*
X121741176Y-134002019D02*
X121645938Y-134002019D01*
X121645938Y-134002019D02*
X121503081Y-133954400D01*
X121503081Y-133954400D02*
X121407843Y-133859161D01*
X121407843Y-133859161D02*
X121360224Y-133763923D01*
X121360224Y-133763923D02*
X121312605Y-133573447D01*
X121312605Y-133573447D02*
X121312605Y-133430590D01*
X121312605Y-133430590D02*
X121360224Y-133240114D01*
X121360224Y-133240114D02*
X121407843Y-133144876D01*
X121407843Y-133144876D02*
X121503081Y-133049638D01*
X121503081Y-133049638D02*
X121645938Y-133002019D01*
X121645938Y-133002019D02*
X121741176Y-133002019D01*
X121741176Y-133002019D02*
X121884033Y-133049638D01*
X121884033Y-133049638D02*
X121931652Y-133097257D01*
X122836414Y-134002019D02*
X122360224Y-134002019D01*
X122360224Y-134002019D02*
X122360224Y-133002019D01*
X123360224Y-133002019D02*
X123550700Y-133002019D01*
X123550700Y-133002019D02*
X123645938Y-133049638D01*
X123645938Y-133049638D02*
X123741176Y-133144876D01*
X123741176Y-133144876D02*
X123788795Y-133335352D01*
X123788795Y-133335352D02*
X123788795Y-133668685D01*
X123788795Y-133668685D02*
X123741176Y-133859161D01*
X123741176Y-133859161D02*
X123645938Y-133954400D01*
X123645938Y-133954400D02*
X123550700Y-134002019D01*
X123550700Y-134002019D02*
X123360224Y-134002019D01*
X123360224Y-134002019D02*
X123264986Y-133954400D01*
X123264986Y-133954400D02*
X123169748Y-133859161D01*
X123169748Y-133859161D02*
X123122129Y-133668685D01*
X123122129Y-133668685D02*
X123122129Y-133335352D01*
X123122129Y-133335352D02*
X123169748Y-133144876D01*
X123169748Y-133144876D02*
X123264986Y-133049638D01*
X123264986Y-133049638D02*
X123360224Y-133002019D01*
X124788795Y-133906780D02*
X124741176Y-133954400D01*
X124741176Y-133954400D02*
X124598319Y-134002019D01*
X124598319Y-134002019D02*
X124503081Y-134002019D01*
X124503081Y-134002019D02*
X124360224Y-133954400D01*
X124360224Y-133954400D02*
X124264986Y-133859161D01*
X124264986Y-133859161D02*
X124217367Y-133763923D01*
X124217367Y-133763923D02*
X124169748Y-133573447D01*
X124169748Y-133573447D02*
X124169748Y-133430590D01*
X124169748Y-133430590D02*
X124217367Y-133240114D01*
X124217367Y-133240114D02*
X124264986Y-133144876D01*
X124264986Y-133144876D02*
X124360224Y-133049638D01*
X124360224Y-133049638D02*
X124503081Y-133002019D01*
X124503081Y-133002019D02*
X124598319Y-133002019D01*
X124598319Y-133002019D02*
X124741176Y-133049638D01*
X124741176Y-133049638D02*
X124788795Y-133097257D01*
X125217367Y-134002019D02*
X125217367Y-133002019D01*
X125788795Y-134002019D02*
X125360224Y-133430590D01*
X125788795Y-133002019D02*
X125217367Y-133573447D01*
X127169748Y-133002019D02*
X127360224Y-133002019D01*
X127360224Y-133002019D02*
X127455462Y-133049638D01*
X127455462Y-133049638D02*
X127550700Y-133144876D01*
X127550700Y-133144876D02*
X127598319Y-133335352D01*
X127598319Y-133335352D02*
X127598319Y-133668685D01*
X127598319Y-133668685D02*
X127550700Y-133859161D01*
X127550700Y-133859161D02*
X127455462Y-133954400D01*
X127455462Y-133954400D02*
X127360224Y-134002019D01*
X127360224Y-134002019D02*
X127169748Y-134002019D01*
X127169748Y-134002019D02*
X127074510Y-133954400D01*
X127074510Y-133954400D02*
X126979272Y-133859161D01*
X126979272Y-133859161D02*
X126931653Y-133668685D01*
X126931653Y-133668685D02*
X126931653Y-133335352D01*
X126931653Y-133335352D02*
X126979272Y-133144876D01*
X126979272Y-133144876D02*
X127074510Y-133049638D01*
X127074510Y-133049638D02*
X127169748Y-133002019D01*
X128026891Y-133002019D02*
X128026891Y-133811542D01*
X128026891Y-133811542D02*
X128074510Y-133906780D01*
X128074510Y-133906780D02*
X128122129Y-133954400D01*
X128122129Y-133954400D02*
X128217367Y-134002019D01*
X128217367Y-134002019D02*
X128407843Y-134002019D01*
X128407843Y-134002019D02*
X128503081Y-133954400D01*
X128503081Y-133954400D02*
X128550700Y-133906780D01*
X128550700Y-133906780D02*
X128598319Y-133811542D01*
X128598319Y-133811542D02*
X128598319Y-133002019D01*
X128931653Y-133002019D02*
X129503081Y-133002019D01*
X129217367Y-134002019D02*
X129217367Y-133002019D01*
D14*
X165772605Y-104399857D02*
X165820224Y-104352238D01*
X165820224Y-104352238D02*
X165915462Y-104304619D01*
X165915462Y-104304619D02*
X166153557Y-104304619D01*
X166153557Y-104304619D02*
X166248795Y-104352238D01*
X166248795Y-104352238D02*
X166296414Y-104399857D01*
X166296414Y-104399857D02*
X166344033Y-104495095D01*
X166344033Y-104495095D02*
X166344033Y-104590333D01*
X166344033Y-104590333D02*
X166296414Y-104733190D01*
X166296414Y-104733190D02*
X165724986Y-105304619D01*
X165724986Y-105304619D02*
X166344033Y-105304619D01*
X166677367Y-104304619D02*
X167344033Y-104304619D01*
X167344033Y-104304619D02*
X166915462Y-105304619D01*
X167915462Y-104304619D02*
X168010700Y-104304619D01*
X168010700Y-104304619D02*
X168105938Y-104352238D01*
X168105938Y-104352238D02*
X168153557Y-104399857D01*
X168153557Y-104399857D02*
X168201176Y-104495095D01*
X168201176Y-104495095D02*
X168248795Y-104685571D01*
X168248795Y-104685571D02*
X168248795Y-104923666D01*
X168248795Y-104923666D02*
X168201176Y-105114142D01*
X168201176Y-105114142D02*
X168153557Y-105209380D01*
X168153557Y-105209380D02*
X168105938Y-105257000D01*
X168105938Y-105257000D02*
X168010700Y-105304619D01*
X168010700Y-105304619D02*
X167915462Y-105304619D01*
X167915462Y-105304619D02*
X167820224Y-105257000D01*
X167820224Y-105257000D02*
X167772605Y-105209380D01*
X167772605Y-105209380D02*
X167724986Y-105114142D01*
X167724986Y-105114142D02*
X167677367Y-104923666D01*
X167677367Y-104923666D02*
X167677367Y-104685571D01*
X167677367Y-104685571D02*
X167724986Y-104495095D01*
X167724986Y-104495095D02*
X167772605Y-104399857D01*
X167772605Y-104399857D02*
X167820224Y-104352238D01*
X167820224Y-104352238D02*
X167915462Y-104304619D01*
X120312605Y-113479857D02*
X120360224Y-113432238D01*
X120360224Y-113432238D02*
X120455462Y-113384619D01*
X120455462Y-113384619D02*
X120693557Y-113384619D01*
X120693557Y-113384619D02*
X120788795Y-113432238D01*
X120788795Y-113432238D02*
X120836414Y-113479857D01*
X120836414Y-113479857D02*
X120884033Y-113575095D01*
X120884033Y-113575095D02*
X120884033Y-113670333D01*
X120884033Y-113670333D02*
X120836414Y-113813190D01*
X120836414Y-113813190D02*
X120264986Y-114384619D01*
X120264986Y-114384619D02*
X120884033Y-114384619D01*
X121264986Y-113479857D02*
X121312605Y-113432238D01*
X121312605Y-113432238D02*
X121407843Y-113384619D01*
X121407843Y-113384619D02*
X121645938Y-113384619D01*
X121645938Y-113384619D02*
X121741176Y-113432238D01*
X121741176Y-113432238D02*
X121788795Y-113479857D01*
X121788795Y-113479857D02*
X121836414Y-113575095D01*
X121836414Y-113575095D02*
X121836414Y-113670333D01*
X121836414Y-113670333D02*
X121788795Y-113813190D01*
X121788795Y-113813190D02*
X121217367Y-114384619D01*
X121217367Y-114384619D02*
X121836414Y-114384619D01*
X122455462Y-113384619D02*
X122550700Y-113384619D01*
X122550700Y-113384619D02*
X122645938Y-113432238D01*
X122645938Y-113432238D02*
X122693557Y-113479857D01*
X122693557Y-113479857D02*
X122741176Y-113575095D01*
X122741176Y-113575095D02*
X122788795Y-113765571D01*
X122788795Y-113765571D02*
X122788795Y-114003666D01*
X122788795Y-114003666D02*
X122741176Y-114194142D01*
X122741176Y-114194142D02*
X122693557Y-114289380D01*
X122693557Y-114289380D02*
X122645938Y-114337000D01*
X122645938Y-114337000D02*
X122550700Y-114384619D01*
X122550700Y-114384619D02*
X122455462Y-114384619D01*
X122455462Y-114384619D02*
X122360224Y-114337000D01*
X122360224Y-114337000D02*
X122312605Y-114289380D01*
X122312605Y-114289380D02*
X122264986Y-114194142D01*
X122264986Y-114194142D02*
X122217367Y-114003666D01*
X122217367Y-114003666D02*
X122217367Y-113765571D01*
X122217367Y-113765571D02*
X122264986Y-113575095D01*
X122264986Y-113575095D02*
X122312605Y-113479857D01*
X122312605Y-113479857D02*
X122360224Y-113432238D01*
X122360224Y-113432238D02*
X122455462Y-113384619D01*
X120312605Y-118780057D02*
X120360224Y-118732438D01*
X120360224Y-118732438D02*
X120455462Y-118684819D01*
X120455462Y-118684819D02*
X120693557Y-118684819D01*
X120693557Y-118684819D02*
X120788795Y-118732438D01*
X120788795Y-118732438D02*
X120836414Y-118780057D01*
X120836414Y-118780057D02*
X120884033Y-118875295D01*
X120884033Y-118875295D02*
X120884033Y-118970533D01*
X120884033Y-118970533D02*
X120836414Y-119113390D01*
X120836414Y-119113390D02*
X120264986Y-119684819D01*
X120264986Y-119684819D02*
X120884033Y-119684819D01*
X121264986Y-118780057D02*
X121312605Y-118732438D01*
X121312605Y-118732438D02*
X121407843Y-118684819D01*
X121407843Y-118684819D02*
X121645938Y-118684819D01*
X121645938Y-118684819D02*
X121741176Y-118732438D01*
X121741176Y-118732438D02*
X121788795Y-118780057D01*
X121788795Y-118780057D02*
X121836414Y-118875295D01*
X121836414Y-118875295D02*
X121836414Y-118970533D01*
X121836414Y-118970533D02*
X121788795Y-119113390D01*
X121788795Y-119113390D02*
X121217367Y-119684819D01*
X121217367Y-119684819D02*
X121836414Y-119684819D01*
X122455462Y-118684819D02*
X122550700Y-118684819D01*
X122550700Y-118684819D02*
X122645938Y-118732438D01*
X122645938Y-118732438D02*
X122693557Y-118780057D01*
X122693557Y-118780057D02*
X122741176Y-118875295D01*
X122741176Y-118875295D02*
X122788795Y-119065771D01*
X122788795Y-119065771D02*
X122788795Y-119303866D01*
X122788795Y-119303866D02*
X122741176Y-119494342D01*
X122741176Y-119494342D02*
X122693557Y-119589580D01*
X122693557Y-119589580D02*
X122645938Y-119637200D01*
X122645938Y-119637200D02*
X122550700Y-119684819D01*
X122550700Y-119684819D02*
X122455462Y-119684819D01*
X122455462Y-119684819D02*
X122360224Y-119637200D01*
X122360224Y-119637200D02*
X122312605Y-119589580D01*
X122312605Y-119589580D02*
X122264986Y-119494342D01*
X122264986Y-119494342D02*
X122217367Y-119303866D01*
X122217367Y-119303866D02*
X122217367Y-119065771D01*
X122217367Y-119065771D02*
X122264986Y-118875295D01*
X122264986Y-118875295D02*
X122312605Y-118780057D01*
X122312605Y-118780057D02*
X122360224Y-118732438D01*
X122360224Y-118732438D02*
X122455462Y-118684819D01*
X144010223Y-74930809D02*
X144153080Y-74978428D01*
X144153080Y-74978428D02*
X144200699Y-75026047D01*
X144200699Y-75026047D02*
X144248318Y-75121285D01*
X144248318Y-75121285D02*
X144248318Y-75264142D01*
X144248318Y-75264142D02*
X144200699Y-75359380D01*
X144200699Y-75359380D02*
X144153080Y-75407000D01*
X144153080Y-75407000D02*
X144057842Y-75454619D01*
X144057842Y-75454619D02*
X143676890Y-75454619D01*
X143676890Y-75454619D02*
X143676890Y-74454619D01*
X143676890Y-74454619D02*
X144010223Y-74454619D01*
X144010223Y-74454619D02*
X144105461Y-74502238D01*
X144105461Y-74502238D02*
X144153080Y-74549857D01*
X144153080Y-74549857D02*
X144200699Y-74645095D01*
X144200699Y-74645095D02*
X144200699Y-74740333D01*
X144200699Y-74740333D02*
X144153080Y-74835571D01*
X144153080Y-74835571D02*
X144105461Y-74883190D01*
X144105461Y-74883190D02*
X144010223Y-74930809D01*
X144010223Y-74930809D02*
X143676890Y-74930809D01*
X144629271Y-75168904D02*
X145105461Y-75168904D01*
X144534033Y-75454619D02*
X144867366Y-74454619D01*
X144867366Y-74454619D02*
X145200699Y-75454619D01*
X145391176Y-74454619D02*
X145962604Y-74454619D01*
X145676890Y-75454619D02*
X145676890Y-74454619D01*
X146724509Y-74787952D02*
X146724509Y-75454619D01*
X146486414Y-74407000D02*
X146248319Y-75121285D01*
X146248319Y-75121285D02*
X146867366Y-75121285D01*
X147772128Y-75454619D02*
X147200700Y-75454619D01*
X147486414Y-75454619D02*
X147486414Y-74454619D01*
X147486414Y-74454619D02*
X147391176Y-74597476D01*
X147391176Y-74597476D02*
X147295938Y-74692714D01*
X147295938Y-74692714D02*
X147200700Y-74740333D01*
X165305937Y-87254619D02*
X164734509Y-87254619D01*
X165020223Y-87254619D02*
X165020223Y-86254619D01*
X165020223Y-86254619D02*
X164924985Y-86397476D01*
X164924985Y-86397476D02*
X164829747Y-86492714D01*
X164829747Y-86492714D02*
X164734509Y-86540333D01*
X165924985Y-86254619D02*
X166020223Y-86254619D01*
X166020223Y-86254619D02*
X166115461Y-86302238D01*
X166115461Y-86302238D02*
X166163080Y-86349857D01*
X166163080Y-86349857D02*
X166210699Y-86445095D01*
X166210699Y-86445095D02*
X166258318Y-86635571D01*
X166258318Y-86635571D02*
X166258318Y-86873666D01*
X166258318Y-86873666D02*
X166210699Y-87064142D01*
X166210699Y-87064142D02*
X166163080Y-87159380D01*
X166163080Y-87159380D02*
X166115461Y-87207000D01*
X166115461Y-87207000D02*
X166020223Y-87254619D01*
X166020223Y-87254619D02*
X165924985Y-87254619D01*
X165924985Y-87254619D02*
X165829747Y-87207000D01*
X165829747Y-87207000D02*
X165782128Y-87159380D01*
X165782128Y-87159380D02*
X165734509Y-87064142D01*
X165734509Y-87064142D02*
X165686890Y-86873666D01*
X165686890Y-86873666D02*
X165686890Y-86635571D01*
X165686890Y-86635571D02*
X165734509Y-86445095D01*
X165734509Y-86445095D02*
X165782128Y-86349857D01*
X165782128Y-86349857D02*
X165829747Y-86302238D01*
X165829747Y-86302238D02*
X165924985Y-86254619D01*
X166877366Y-86254619D02*
X166972604Y-86254619D01*
X166972604Y-86254619D02*
X167067842Y-86302238D01*
X167067842Y-86302238D02*
X167115461Y-86349857D01*
X167115461Y-86349857D02*
X167163080Y-86445095D01*
X167163080Y-86445095D02*
X167210699Y-86635571D01*
X167210699Y-86635571D02*
X167210699Y-86873666D01*
X167210699Y-86873666D02*
X167163080Y-87064142D01*
X167163080Y-87064142D02*
X167115461Y-87159380D01*
X167115461Y-87159380D02*
X167067842Y-87207000D01*
X167067842Y-87207000D02*
X166972604Y-87254619D01*
X166972604Y-87254619D02*
X166877366Y-87254619D01*
X166877366Y-87254619D02*
X166782128Y-87207000D01*
X166782128Y-87207000D02*
X166734509Y-87159380D01*
X166734509Y-87159380D02*
X166686890Y-87064142D01*
X166686890Y-87064142D02*
X166639271Y-86873666D01*
X166639271Y-86873666D02*
X166639271Y-86635571D01*
X166639271Y-86635571D02*
X166686890Y-86445095D01*
X166686890Y-86445095D02*
X166734509Y-86349857D01*
X166734509Y-86349857D02*
X166782128Y-86302238D01*
X166782128Y-86302238D02*
X166877366Y-86254619D01*
X167639271Y-86587952D02*
X167639271Y-87254619D01*
X167639271Y-86683190D02*
X167686890Y-86635571D01*
X167686890Y-86635571D02*
X167782128Y-86587952D01*
X167782128Y-86587952D02*
X167924985Y-86587952D01*
X167924985Y-86587952D02*
X168020223Y-86635571D01*
X168020223Y-86635571D02*
X168067842Y-86730809D01*
X168067842Y-86730809D02*
X168067842Y-87254619D01*
X168401176Y-86587952D02*
X168782128Y-86587952D01*
X168544033Y-87254619D02*
X168544033Y-86397476D01*
X168544033Y-86397476D02*
X168591652Y-86302238D01*
X168591652Y-86302238D02*
X168686890Y-86254619D01*
X168686890Y-86254619D02*
X168782128Y-86254619D01*
X113470057Y-128738094D02*
X113422438Y-128690475D01*
X113422438Y-128690475D02*
X113374819Y-128595237D01*
X113374819Y-128595237D02*
X113374819Y-128357142D01*
X113374819Y-128357142D02*
X113422438Y-128261904D01*
X113422438Y-128261904D02*
X113470057Y-128214285D01*
X113470057Y-128214285D02*
X113565295Y-128166666D01*
X113565295Y-128166666D02*
X113660533Y-128166666D01*
X113660533Y-128166666D02*
X113803390Y-128214285D01*
X113803390Y-128214285D02*
X114374819Y-128785713D01*
X114374819Y-128785713D02*
X114374819Y-128166666D01*
X113470057Y-127785713D02*
X113422438Y-127738094D01*
X113422438Y-127738094D02*
X113374819Y-127642856D01*
X113374819Y-127642856D02*
X113374819Y-127404761D01*
X113374819Y-127404761D02*
X113422438Y-127309523D01*
X113422438Y-127309523D02*
X113470057Y-127261904D01*
X113470057Y-127261904D02*
X113565295Y-127214285D01*
X113565295Y-127214285D02*
X113660533Y-127214285D01*
X113660533Y-127214285D02*
X113803390Y-127261904D01*
X113803390Y-127261904D02*
X114374819Y-127833332D01*
X114374819Y-127833332D02*
X114374819Y-127214285D01*
X113374819Y-126595237D02*
X113374819Y-126499999D01*
X113374819Y-126499999D02*
X113422438Y-126404761D01*
X113422438Y-126404761D02*
X113470057Y-126357142D01*
X113470057Y-126357142D02*
X113565295Y-126309523D01*
X113565295Y-126309523D02*
X113755771Y-126261904D01*
X113755771Y-126261904D02*
X113993866Y-126261904D01*
X113993866Y-126261904D02*
X114184342Y-126309523D01*
X114184342Y-126309523D02*
X114279580Y-126357142D01*
X114279580Y-126357142D02*
X114327200Y-126404761D01*
X114327200Y-126404761D02*
X114374819Y-126499999D01*
X114374819Y-126499999D02*
X114374819Y-126595237D01*
X114374819Y-126595237D02*
X114327200Y-126690475D01*
X114327200Y-126690475D02*
X114279580Y-126738094D01*
X114279580Y-126738094D02*
X114184342Y-126785713D01*
X114184342Y-126785713D02*
X113993866Y-126833332D01*
X113993866Y-126833332D02*
X113755771Y-126833332D01*
X113755771Y-126833332D02*
X113565295Y-126785713D01*
X113565295Y-126785713D02*
X113470057Y-126738094D01*
X113470057Y-126738094D02*
X113422438Y-126690475D01*
X113422438Y-126690475D02*
X113374819Y-126595237D01*
D15*
X133479270Y-133806780D02*
X133431651Y-133854400D01*
X133431651Y-133854400D02*
X133288794Y-133902019D01*
X133288794Y-133902019D02*
X133193556Y-133902019D01*
X133193556Y-133902019D02*
X133050699Y-133854400D01*
X133050699Y-133854400D02*
X132955461Y-133759161D01*
X132955461Y-133759161D02*
X132907842Y-133663923D01*
X132907842Y-133663923D02*
X132860223Y-133473447D01*
X132860223Y-133473447D02*
X132860223Y-133330590D01*
X132860223Y-133330590D02*
X132907842Y-133140114D01*
X132907842Y-133140114D02*
X132955461Y-133044876D01*
X132955461Y-133044876D02*
X133050699Y-132949638D01*
X133050699Y-132949638D02*
X133193556Y-132902019D01*
X133193556Y-132902019D02*
X133288794Y-132902019D01*
X133288794Y-132902019D02*
X133431651Y-132949638D01*
X133431651Y-132949638D02*
X133479270Y-132997257D01*
X133764985Y-132902019D02*
X134098318Y-133902019D01*
X134098318Y-133902019D02*
X134431651Y-132902019D01*
X136098318Y-133902019D02*
X135764985Y-133425828D01*
X135526890Y-133902019D02*
X135526890Y-132902019D01*
X135526890Y-132902019D02*
X135907842Y-132902019D01*
X135907842Y-132902019D02*
X136003080Y-132949638D01*
X136003080Y-132949638D02*
X136050699Y-132997257D01*
X136050699Y-132997257D02*
X136098318Y-133092495D01*
X136098318Y-133092495D02*
X136098318Y-133235352D01*
X136098318Y-133235352D02*
X136050699Y-133330590D01*
X136050699Y-133330590D02*
X136003080Y-133378209D01*
X136003080Y-133378209D02*
X135907842Y-133425828D01*
X135907842Y-133425828D02*
X135526890Y-133425828D01*
X136526890Y-133378209D02*
X136860223Y-133378209D01*
X137003080Y-133902019D02*
X136526890Y-133902019D01*
X136526890Y-133902019D02*
X136526890Y-132902019D01*
X136526890Y-132902019D02*
X137003080Y-132902019D01*
X137384033Y-133854400D02*
X137526890Y-133902019D01*
X137526890Y-133902019D02*
X137764985Y-133902019D01*
X137764985Y-133902019D02*
X137860223Y-133854400D01*
X137860223Y-133854400D02*
X137907842Y-133806780D01*
X137907842Y-133806780D02*
X137955461Y-133711542D01*
X137955461Y-133711542D02*
X137955461Y-133616304D01*
X137955461Y-133616304D02*
X137907842Y-133521066D01*
X137907842Y-133521066D02*
X137860223Y-133473447D01*
X137860223Y-133473447D02*
X137764985Y-133425828D01*
X137764985Y-133425828D02*
X137574509Y-133378209D01*
X137574509Y-133378209D02*
X137479271Y-133330590D01*
X137479271Y-133330590D02*
X137431652Y-133282971D01*
X137431652Y-133282971D02*
X137384033Y-133187733D01*
X137384033Y-133187733D02*
X137384033Y-133092495D01*
X137384033Y-133092495D02*
X137431652Y-132997257D01*
X137431652Y-132997257D02*
X137479271Y-132949638D01*
X137479271Y-132949638D02*
X137574509Y-132902019D01*
X137574509Y-132902019D02*
X137812604Y-132902019D01*
X137812604Y-132902019D02*
X137955461Y-132949638D01*
X138384033Y-133378209D02*
X138717366Y-133378209D01*
X138860223Y-133902019D02*
X138384033Y-133902019D01*
X138384033Y-133902019D02*
X138384033Y-132902019D01*
X138384033Y-132902019D02*
X138860223Y-132902019D01*
X139145938Y-132902019D02*
X139717366Y-132902019D01*
X139431652Y-133902019D02*
X139431652Y-132902019D01*
X141003081Y-132902019D02*
X141193557Y-132902019D01*
X141193557Y-132902019D02*
X141288795Y-132949638D01*
X141288795Y-132949638D02*
X141384033Y-133044876D01*
X141384033Y-133044876D02*
X141431652Y-133235352D01*
X141431652Y-133235352D02*
X141431652Y-133568685D01*
X141431652Y-133568685D02*
X141384033Y-133759161D01*
X141384033Y-133759161D02*
X141288795Y-133854400D01*
X141288795Y-133854400D02*
X141193557Y-133902019D01*
X141193557Y-133902019D02*
X141003081Y-133902019D01*
X141003081Y-133902019D02*
X140907843Y-133854400D01*
X140907843Y-133854400D02*
X140812605Y-133759161D01*
X140812605Y-133759161D02*
X140764986Y-133568685D01*
X140764986Y-133568685D02*
X140764986Y-133235352D01*
X140764986Y-133235352D02*
X140812605Y-133044876D01*
X140812605Y-133044876D02*
X140907843Y-132949638D01*
X140907843Y-132949638D02*
X141003081Y-132902019D01*
X141860224Y-132902019D02*
X141860224Y-133711542D01*
X141860224Y-133711542D02*
X141907843Y-133806780D01*
X141907843Y-133806780D02*
X141955462Y-133854400D01*
X141955462Y-133854400D02*
X142050700Y-133902019D01*
X142050700Y-133902019D02*
X142241176Y-133902019D01*
X142241176Y-133902019D02*
X142336414Y-133854400D01*
X142336414Y-133854400D02*
X142384033Y-133806780D01*
X142384033Y-133806780D02*
X142431652Y-133711542D01*
X142431652Y-133711542D02*
X142431652Y-132902019D01*
X142764986Y-132902019D02*
X143336414Y-132902019D01*
X143050700Y-133902019D02*
X143050700Y-132902019D01*
D14*
X149619286Y-91954819D02*
X150285952Y-91954819D01*
X150285952Y-91954819D02*
X149857381Y-92954819D01*
X151095476Y-92288152D02*
X151095476Y-92954819D01*
X150857381Y-91907200D02*
X150619286Y-92621485D01*
X150619286Y-92621485D02*
X151238333Y-92621485D01*
X151619286Y-92954819D02*
X151619286Y-91954819D01*
X151619286Y-92431009D02*
X152190714Y-92431009D01*
X152190714Y-92954819D02*
X152190714Y-91954819D01*
X153238333Y-92859580D02*
X153190714Y-92907200D01*
X153190714Y-92907200D02*
X153047857Y-92954819D01*
X153047857Y-92954819D02*
X152952619Y-92954819D01*
X152952619Y-92954819D02*
X152809762Y-92907200D01*
X152809762Y-92907200D02*
X152714524Y-92811961D01*
X152714524Y-92811961D02*
X152666905Y-92716723D01*
X152666905Y-92716723D02*
X152619286Y-92526247D01*
X152619286Y-92526247D02*
X152619286Y-92383390D01*
X152619286Y-92383390D02*
X152666905Y-92192914D01*
X152666905Y-92192914D02*
X152714524Y-92097676D01*
X152714524Y-92097676D02*
X152809762Y-92002438D01*
X152809762Y-92002438D02*
X152952619Y-91954819D01*
X152952619Y-91954819D02*
X153047857Y-91954819D01*
X153047857Y-91954819D02*
X153190714Y-92002438D01*
X153190714Y-92002438D02*
X153238333Y-92050057D01*
X154190714Y-92954819D02*
X153619286Y-92954819D01*
X153905000Y-92954819D02*
X153905000Y-91954819D01*
X153905000Y-91954819D02*
X153809762Y-92097676D01*
X153809762Y-92097676D02*
X153714524Y-92192914D01*
X153714524Y-92192914D02*
X153619286Y-92240533D01*
X155047857Y-92288152D02*
X155047857Y-92954819D01*
X154809762Y-91907200D02*
X154571667Y-92621485D01*
X154571667Y-92621485D02*
X155190714Y-92621485D01*
X176900707Y-86738094D02*
X176853088Y-86690475D01*
X176853088Y-86690475D02*
X176805469Y-86595237D01*
X176805469Y-86595237D02*
X176805469Y-86357142D01*
X176805469Y-86357142D02*
X176853088Y-86261904D01*
X176853088Y-86261904D02*
X176900707Y-86214285D01*
X176900707Y-86214285D02*
X176995945Y-86166666D01*
X176995945Y-86166666D02*
X177091183Y-86166666D01*
X177091183Y-86166666D02*
X177234040Y-86214285D01*
X177234040Y-86214285D02*
X177805469Y-86785713D01*
X177805469Y-86785713D02*
X177805469Y-86166666D01*
X176900707Y-85785713D02*
X176853088Y-85738094D01*
X176853088Y-85738094D02*
X176805469Y-85642856D01*
X176805469Y-85642856D02*
X176805469Y-85404761D01*
X176805469Y-85404761D02*
X176853088Y-85309523D01*
X176853088Y-85309523D02*
X176900707Y-85261904D01*
X176900707Y-85261904D02*
X176995945Y-85214285D01*
X176995945Y-85214285D02*
X177091183Y-85214285D01*
X177091183Y-85214285D02*
X177234040Y-85261904D01*
X177234040Y-85261904D02*
X177805469Y-85833332D01*
X177805469Y-85833332D02*
X177805469Y-85214285D01*
X176805469Y-84595237D02*
X176805469Y-84499999D01*
X176805469Y-84499999D02*
X176853088Y-84404761D01*
X176853088Y-84404761D02*
X176900707Y-84357142D01*
X176900707Y-84357142D02*
X176995945Y-84309523D01*
X176995945Y-84309523D02*
X177186421Y-84261904D01*
X177186421Y-84261904D02*
X177424516Y-84261904D01*
X177424516Y-84261904D02*
X177614992Y-84309523D01*
X177614992Y-84309523D02*
X177710230Y-84357142D01*
X177710230Y-84357142D02*
X177757850Y-84404761D01*
X177757850Y-84404761D02*
X177805469Y-84499999D01*
X177805469Y-84499999D02*
X177805469Y-84595237D01*
X177805469Y-84595237D02*
X177757850Y-84690475D01*
X177757850Y-84690475D02*
X177710230Y-84738094D01*
X177710230Y-84738094D02*
X177614992Y-84785713D01*
X177614992Y-84785713D02*
X177424516Y-84833332D01*
X177424516Y-84833332D02*
X177186421Y-84833332D01*
X177186421Y-84833332D02*
X176995945Y-84785713D01*
X176995945Y-84785713D02*
X176900707Y-84738094D01*
X176900707Y-84738094D02*
X176853088Y-84690475D01*
X176853088Y-84690475D02*
X176805469Y-84595237D01*
X157670223Y-69530809D02*
X157813080Y-69578428D01*
X157813080Y-69578428D02*
X157860699Y-69626047D01*
X157860699Y-69626047D02*
X157908318Y-69721285D01*
X157908318Y-69721285D02*
X157908318Y-69864142D01*
X157908318Y-69864142D02*
X157860699Y-69959380D01*
X157860699Y-69959380D02*
X157813080Y-70007000D01*
X157813080Y-70007000D02*
X157717842Y-70054619D01*
X157717842Y-70054619D02*
X157336890Y-70054619D01*
X157336890Y-70054619D02*
X157336890Y-69054619D01*
X157336890Y-69054619D02*
X157670223Y-69054619D01*
X157670223Y-69054619D02*
X157765461Y-69102238D01*
X157765461Y-69102238D02*
X157813080Y-69149857D01*
X157813080Y-69149857D02*
X157860699Y-69245095D01*
X157860699Y-69245095D02*
X157860699Y-69340333D01*
X157860699Y-69340333D02*
X157813080Y-69435571D01*
X157813080Y-69435571D02*
X157765461Y-69483190D01*
X157765461Y-69483190D02*
X157670223Y-69530809D01*
X157670223Y-69530809D02*
X157336890Y-69530809D01*
X158289271Y-69768904D02*
X158765461Y-69768904D01*
X158194033Y-70054619D02*
X158527366Y-69054619D01*
X158527366Y-69054619D02*
X158860699Y-70054619D01*
X159051176Y-69054619D02*
X159622604Y-69054619D01*
X159336890Y-70054619D02*
X159336890Y-69054619D01*
X160384509Y-69387952D02*
X160384509Y-70054619D01*
X160146414Y-69007000D02*
X159908319Y-69721285D01*
X159908319Y-69721285D02*
X160527366Y-69721285D01*
X161432128Y-70054619D02*
X160860700Y-70054619D01*
X161146414Y-70054619D02*
X161146414Y-69054619D01*
X161146414Y-69054619D02*
X161051176Y-69197476D01*
X161051176Y-69197476D02*
X160955938Y-69292714D01*
X160955938Y-69292714D02*
X160860700Y-69340333D01*
X157670223Y-75030809D02*
X157813080Y-75078428D01*
X157813080Y-75078428D02*
X157860699Y-75126047D01*
X157860699Y-75126047D02*
X157908318Y-75221285D01*
X157908318Y-75221285D02*
X157908318Y-75364142D01*
X157908318Y-75364142D02*
X157860699Y-75459380D01*
X157860699Y-75459380D02*
X157813080Y-75507000D01*
X157813080Y-75507000D02*
X157717842Y-75554619D01*
X157717842Y-75554619D02*
X157336890Y-75554619D01*
X157336890Y-75554619D02*
X157336890Y-74554619D01*
X157336890Y-74554619D02*
X157670223Y-74554619D01*
X157670223Y-74554619D02*
X157765461Y-74602238D01*
X157765461Y-74602238D02*
X157813080Y-74649857D01*
X157813080Y-74649857D02*
X157860699Y-74745095D01*
X157860699Y-74745095D02*
X157860699Y-74840333D01*
X157860699Y-74840333D02*
X157813080Y-74935571D01*
X157813080Y-74935571D02*
X157765461Y-74983190D01*
X157765461Y-74983190D02*
X157670223Y-75030809D01*
X157670223Y-75030809D02*
X157336890Y-75030809D01*
X158289271Y-75268904D02*
X158765461Y-75268904D01*
X158194033Y-75554619D02*
X158527366Y-74554619D01*
X158527366Y-74554619D02*
X158860699Y-75554619D01*
X159051176Y-74554619D02*
X159622604Y-74554619D01*
X159336890Y-75554619D02*
X159336890Y-74554619D01*
X160384509Y-74887952D02*
X160384509Y-75554619D01*
X160146414Y-74507000D02*
X159908319Y-75221285D01*
X159908319Y-75221285D02*
X160527366Y-75221285D01*
X161432128Y-75554619D02*
X160860700Y-75554619D01*
X161146414Y-75554619D02*
X161146414Y-74554619D01*
X161146414Y-74554619D02*
X161051176Y-74697476D01*
X161051176Y-74697476D02*
X160955938Y-74792714D01*
X160955938Y-74792714D02*
X160860700Y-74840333D01*
X181034819Y-62630952D02*
X181034819Y-63107142D01*
X181034819Y-63107142D02*
X181511009Y-63154761D01*
X181511009Y-63154761D02*
X181463390Y-63107142D01*
X181463390Y-63107142D02*
X181415771Y-63011904D01*
X181415771Y-63011904D02*
X181415771Y-62773809D01*
X181415771Y-62773809D02*
X181463390Y-62678571D01*
X181463390Y-62678571D02*
X181511009Y-62630952D01*
X181511009Y-62630952D02*
X181606247Y-62583333D01*
X181606247Y-62583333D02*
X181844342Y-62583333D01*
X181844342Y-62583333D02*
X181939580Y-62630952D01*
X181939580Y-62630952D02*
X181987200Y-62678571D01*
X181987200Y-62678571D02*
X182034819Y-62773809D01*
X182034819Y-62773809D02*
X182034819Y-63011904D01*
X182034819Y-63011904D02*
X181987200Y-63107142D01*
X181987200Y-63107142D02*
X181939580Y-63154761D01*
X181939580Y-62154761D02*
X181987200Y-62107142D01*
X181987200Y-62107142D02*
X182034819Y-62154761D01*
X182034819Y-62154761D02*
X181987200Y-62202380D01*
X181987200Y-62202380D02*
X181939580Y-62154761D01*
X181939580Y-62154761D02*
X182034819Y-62154761D01*
X182034819Y-61154762D02*
X182034819Y-61726190D01*
X182034819Y-61440476D02*
X181034819Y-61440476D01*
X181034819Y-61440476D02*
X181177676Y-61535714D01*
X181177676Y-61535714D02*
X181272914Y-61630952D01*
X181272914Y-61630952D02*
X181320533Y-61726190D01*
X182034819Y-60726190D02*
X181034819Y-60726190D01*
X181653866Y-60630952D02*
X182034819Y-60345238D01*
X181368152Y-60345238D02*
X181749104Y-60726190D01*
X176534819Y-62630952D02*
X176534819Y-63107142D01*
X176534819Y-63107142D02*
X177011009Y-63154761D01*
X177011009Y-63154761D02*
X176963390Y-63107142D01*
X176963390Y-63107142D02*
X176915771Y-63011904D01*
X176915771Y-63011904D02*
X176915771Y-62773809D01*
X176915771Y-62773809D02*
X176963390Y-62678571D01*
X176963390Y-62678571D02*
X177011009Y-62630952D01*
X177011009Y-62630952D02*
X177106247Y-62583333D01*
X177106247Y-62583333D02*
X177344342Y-62583333D01*
X177344342Y-62583333D02*
X177439580Y-62630952D01*
X177439580Y-62630952D02*
X177487200Y-62678571D01*
X177487200Y-62678571D02*
X177534819Y-62773809D01*
X177534819Y-62773809D02*
X177534819Y-63011904D01*
X177534819Y-63011904D02*
X177487200Y-63107142D01*
X177487200Y-63107142D02*
X177439580Y-63154761D01*
X177439580Y-62154761D02*
X177487200Y-62107142D01*
X177487200Y-62107142D02*
X177534819Y-62154761D01*
X177534819Y-62154761D02*
X177487200Y-62202380D01*
X177487200Y-62202380D02*
X177439580Y-62154761D01*
X177439580Y-62154761D02*
X177534819Y-62154761D01*
X177534819Y-61154762D02*
X177534819Y-61726190D01*
X177534819Y-61440476D02*
X176534819Y-61440476D01*
X176534819Y-61440476D02*
X176677676Y-61535714D01*
X176677676Y-61535714D02*
X176772914Y-61630952D01*
X176772914Y-61630952D02*
X176820533Y-61726190D01*
X177534819Y-60726190D02*
X176534819Y-60726190D01*
X177153866Y-60630952D02*
X177534819Y-60345238D01*
X176868152Y-60345238D02*
X177249104Y-60726190D01*
X113700707Y-72687894D02*
X113653088Y-72640275D01*
X113653088Y-72640275D02*
X113605469Y-72545037D01*
X113605469Y-72545037D02*
X113605469Y-72306942D01*
X113605469Y-72306942D02*
X113653088Y-72211704D01*
X113653088Y-72211704D02*
X113700707Y-72164085D01*
X113700707Y-72164085D02*
X113795945Y-72116466D01*
X113795945Y-72116466D02*
X113891183Y-72116466D01*
X113891183Y-72116466D02*
X114034040Y-72164085D01*
X114034040Y-72164085D02*
X114605469Y-72735513D01*
X114605469Y-72735513D02*
X114605469Y-72116466D01*
X113700707Y-71735513D02*
X113653088Y-71687894D01*
X113653088Y-71687894D02*
X113605469Y-71592656D01*
X113605469Y-71592656D02*
X113605469Y-71354561D01*
X113605469Y-71354561D02*
X113653088Y-71259323D01*
X113653088Y-71259323D02*
X113700707Y-71211704D01*
X113700707Y-71211704D02*
X113795945Y-71164085D01*
X113795945Y-71164085D02*
X113891183Y-71164085D01*
X113891183Y-71164085D02*
X114034040Y-71211704D01*
X114034040Y-71211704D02*
X114605469Y-71783132D01*
X114605469Y-71783132D02*
X114605469Y-71164085D01*
X113605469Y-70545037D02*
X113605469Y-70449799D01*
X113605469Y-70449799D02*
X113653088Y-70354561D01*
X113653088Y-70354561D02*
X113700707Y-70306942D01*
X113700707Y-70306942D02*
X113795945Y-70259323D01*
X113795945Y-70259323D02*
X113986421Y-70211704D01*
X113986421Y-70211704D02*
X114224516Y-70211704D01*
X114224516Y-70211704D02*
X114414992Y-70259323D01*
X114414992Y-70259323D02*
X114510230Y-70306942D01*
X114510230Y-70306942D02*
X114557850Y-70354561D01*
X114557850Y-70354561D02*
X114605469Y-70449799D01*
X114605469Y-70449799D02*
X114605469Y-70545037D01*
X114605469Y-70545037D02*
X114557850Y-70640275D01*
X114557850Y-70640275D02*
X114510230Y-70687894D01*
X114510230Y-70687894D02*
X114414992Y-70735513D01*
X114414992Y-70735513D02*
X114224516Y-70783132D01*
X114224516Y-70783132D02*
X113986421Y-70783132D01*
X113986421Y-70783132D02*
X113795945Y-70735513D01*
X113795945Y-70735513D02*
X113700707Y-70687894D01*
X113700707Y-70687894D02*
X113653088Y-70640275D01*
X113653088Y-70640275D02*
X113605469Y-70545037D01*
X166282128Y-108417952D02*
X166282128Y-109084619D01*
X166044033Y-108037000D02*
X165805938Y-108751285D01*
X165805938Y-108751285D02*
X166424985Y-108751285D01*
X166805938Y-108989380D02*
X166853557Y-109037000D01*
X166853557Y-109037000D02*
X166805938Y-109084619D01*
X166805938Y-109084619D02*
X166758319Y-109037000D01*
X166758319Y-109037000D02*
X166805938Y-108989380D01*
X166805938Y-108989380D02*
X166805938Y-109084619D01*
X167186890Y-108084619D02*
X167853556Y-108084619D01*
X167853556Y-108084619D02*
X167424985Y-109084619D01*
X168234509Y-109084619D02*
X168234509Y-108084619D01*
X168329747Y-108703666D02*
X168615461Y-109084619D01*
X168615461Y-108417952D02*
X168234509Y-108798904D01*
X169627527Y-82087752D02*
X169627527Y-82754419D01*
X169389432Y-81706800D02*
X169151337Y-82421085D01*
X169151337Y-82421085D02*
X169770384Y-82421085D01*
X170056099Y-81754419D02*
X170722765Y-81754419D01*
X170722765Y-81754419D02*
X170294194Y-82754419D01*
X171532289Y-82087752D02*
X171532289Y-82754419D01*
X171103718Y-82087752D02*
X171103718Y-82611561D01*
X171103718Y-82611561D02*
X171151337Y-82706800D01*
X171151337Y-82706800D02*
X171246575Y-82754419D01*
X171246575Y-82754419D02*
X171389432Y-82754419D01*
X171389432Y-82754419D02*
X171484670Y-82706800D01*
X171484670Y-82706800D02*
X171532289Y-82659180D01*
X171865623Y-82087752D02*
X172246575Y-82087752D01*
X172008480Y-82754419D02*
X172008480Y-81897276D01*
X172008480Y-81897276D02*
X172056099Y-81802038D01*
X172056099Y-81802038D02*
X172151337Y-81754419D01*
X172151337Y-81754419D02*
X172246575Y-81754419D01*
X131386414Y-73189857D02*
X131434033Y-73142238D01*
X131434033Y-73142238D02*
X131529271Y-73094619D01*
X131529271Y-73094619D02*
X131767366Y-73094619D01*
X131767366Y-73094619D02*
X131862604Y-73142238D01*
X131862604Y-73142238D02*
X131910223Y-73189857D01*
X131910223Y-73189857D02*
X131957842Y-73285095D01*
X131957842Y-73285095D02*
X131957842Y-73380333D01*
X131957842Y-73380333D02*
X131910223Y-73523190D01*
X131910223Y-73523190D02*
X131338795Y-74094619D01*
X131338795Y-74094619D02*
X131957842Y-74094619D01*
X132386414Y-74094619D02*
X132386414Y-73094619D01*
X132386414Y-73094619D02*
X132957842Y-74094619D01*
X132957842Y-74094619D02*
X132957842Y-73094619D01*
X133338795Y-73094619D02*
X133957842Y-73094619D01*
X133957842Y-73094619D02*
X133624509Y-73475571D01*
X133624509Y-73475571D02*
X133767366Y-73475571D01*
X133767366Y-73475571D02*
X133862604Y-73523190D01*
X133862604Y-73523190D02*
X133910223Y-73570809D01*
X133910223Y-73570809D02*
X133957842Y-73666047D01*
X133957842Y-73666047D02*
X133957842Y-73904142D01*
X133957842Y-73904142D02*
X133910223Y-73999380D01*
X133910223Y-73999380D02*
X133862604Y-74047000D01*
X133862604Y-74047000D02*
X133767366Y-74094619D01*
X133767366Y-74094619D02*
X133481652Y-74094619D01*
X133481652Y-74094619D02*
X133386414Y-74047000D01*
X133386414Y-74047000D02*
X133338795Y-73999380D01*
X134434033Y-74094619D02*
X134624509Y-74094619D01*
X134624509Y-74094619D02*
X134719747Y-74047000D01*
X134719747Y-74047000D02*
X134767366Y-73999380D01*
X134767366Y-73999380D02*
X134862604Y-73856523D01*
X134862604Y-73856523D02*
X134910223Y-73666047D01*
X134910223Y-73666047D02*
X134910223Y-73285095D01*
X134910223Y-73285095D02*
X134862604Y-73189857D01*
X134862604Y-73189857D02*
X134814985Y-73142238D01*
X134814985Y-73142238D02*
X134719747Y-73094619D01*
X134719747Y-73094619D02*
X134529271Y-73094619D01*
X134529271Y-73094619D02*
X134434033Y-73142238D01*
X134434033Y-73142238D02*
X134386414Y-73189857D01*
X134386414Y-73189857D02*
X134338795Y-73285095D01*
X134338795Y-73285095D02*
X134338795Y-73523190D01*
X134338795Y-73523190D02*
X134386414Y-73618428D01*
X134386414Y-73618428D02*
X134434033Y-73666047D01*
X134434033Y-73666047D02*
X134529271Y-73713666D01*
X134529271Y-73713666D02*
X134719747Y-73713666D01*
X134719747Y-73713666D02*
X134814985Y-73666047D01*
X134814985Y-73666047D02*
X134862604Y-73618428D01*
X134862604Y-73618428D02*
X134910223Y-73523190D01*
X135529271Y-73094619D02*
X135624509Y-73094619D01*
X135624509Y-73094619D02*
X135719747Y-73142238D01*
X135719747Y-73142238D02*
X135767366Y-73189857D01*
X135767366Y-73189857D02*
X135814985Y-73285095D01*
X135814985Y-73285095D02*
X135862604Y-73475571D01*
X135862604Y-73475571D02*
X135862604Y-73713666D01*
X135862604Y-73713666D02*
X135814985Y-73904142D01*
X135814985Y-73904142D02*
X135767366Y-73999380D01*
X135767366Y-73999380D02*
X135719747Y-74047000D01*
X135719747Y-74047000D02*
X135624509Y-74094619D01*
X135624509Y-74094619D02*
X135529271Y-74094619D01*
X135529271Y-74094619D02*
X135434033Y-74047000D01*
X135434033Y-74047000D02*
X135386414Y-73999380D01*
X135386414Y-73999380D02*
X135338795Y-73904142D01*
X135338795Y-73904142D02*
X135291176Y-73713666D01*
X135291176Y-73713666D02*
X135291176Y-73475571D01*
X135291176Y-73475571D02*
X135338795Y-73285095D01*
X135338795Y-73285095D02*
X135386414Y-73189857D01*
X135386414Y-73189857D02*
X135434033Y-73142238D01*
X135434033Y-73142238D02*
X135529271Y-73094619D01*
X136719747Y-73427952D02*
X136719747Y-74094619D01*
X136481652Y-73047000D02*
X136243557Y-73761285D01*
X136243557Y-73761285D02*
X136862604Y-73761285D01*
X129363205Y-118979857D02*
X129410824Y-118932238D01*
X129410824Y-118932238D02*
X129506062Y-118884619D01*
X129506062Y-118884619D02*
X129744157Y-118884619D01*
X129744157Y-118884619D02*
X129839395Y-118932238D01*
X129839395Y-118932238D02*
X129887014Y-118979857D01*
X129887014Y-118979857D02*
X129934633Y-119075095D01*
X129934633Y-119075095D02*
X129934633Y-119170333D01*
X129934633Y-119170333D02*
X129887014Y-119313190D01*
X129887014Y-119313190D02*
X129315586Y-119884619D01*
X129315586Y-119884619D02*
X129934633Y-119884619D01*
X130315586Y-118979857D02*
X130363205Y-118932238D01*
X130363205Y-118932238D02*
X130458443Y-118884619D01*
X130458443Y-118884619D02*
X130696538Y-118884619D01*
X130696538Y-118884619D02*
X130791776Y-118932238D01*
X130791776Y-118932238D02*
X130839395Y-118979857D01*
X130839395Y-118979857D02*
X130887014Y-119075095D01*
X130887014Y-119075095D02*
X130887014Y-119170333D01*
X130887014Y-119170333D02*
X130839395Y-119313190D01*
X130839395Y-119313190D02*
X130267967Y-119884619D01*
X130267967Y-119884619D02*
X130887014Y-119884619D01*
X131506062Y-118884619D02*
X131601300Y-118884619D01*
X131601300Y-118884619D02*
X131696538Y-118932238D01*
X131696538Y-118932238D02*
X131744157Y-118979857D01*
X131744157Y-118979857D02*
X131791776Y-119075095D01*
X131791776Y-119075095D02*
X131839395Y-119265571D01*
X131839395Y-119265571D02*
X131839395Y-119503666D01*
X131839395Y-119503666D02*
X131791776Y-119694142D01*
X131791776Y-119694142D02*
X131744157Y-119789380D01*
X131744157Y-119789380D02*
X131696538Y-119837000D01*
X131696538Y-119837000D02*
X131601300Y-119884619D01*
X131601300Y-119884619D02*
X131506062Y-119884619D01*
X131506062Y-119884619D02*
X131410824Y-119837000D01*
X131410824Y-119837000D02*
X131363205Y-119789380D01*
X131363205Y-119789380D02*
X131315586Y-119694142D01*
X131315586Y-119694142D02*
X131267967Y-119503666D01*
X131267967Y-119503666D02*
X131267967Y-119265571D01*
X131267967Y-119265571D02*
X131315586Y-119075095D01*
X131315586Y-119075095D02*
X131363205Y-118979857D01*
X131363205Y-118979857D02*
X131410824Y-118932238D01*
X131410824Y-118932238D02*
X131506062Y-118884619D01*
X165022128Y-122412000D02*
X165164985Y-122459619D01*
X165164985Y-122459619D02*
X165403080Y-122459619D01*
X165403080Y-122459619D02*
X165498318Y-122412000D01*
X165498318Y-122412000D02*
X165545937Y-122364380D01*
X165545937Y-122364380D02*
X165593556Y-122269142D01*
X165593556Y-122269142D02*
X165593556Y-122173904D01*
X165593556Y-122173904D02*
X165545937Y-122078666D01*
X165545937Y-122078666D02*
X165498318Y-122031047D01*
X165498318Y-122031047D02*
X165403080Y-121983428D01*
X165403080Y-121983428D02*
X165212604Y-121935809D01*
X165212604Y-121935809D02*
X165117366Y-121888190D01*
X165117366Y-121888190D02*
X165069747Y-121840571D01*
X165069747Y-121840571D02*
X165022128Y-121745333D01*
X165022128Y-121745333D02*
X165022128Y-121650095D01*
X165022128Y-121650095D02*
X165069747Y-121554857D01*
X165069747Y-121554857D02*
X165117366Y-121507238D01*
X165117366Y-121507238D02*
X165212604Y-121459619D01*
X165212604Y-121459619D02*
X165450699Y-121459619D01*
X165450699Y-121459619D02*
X165593556Y-121507238D01*
X166022128Y-122459619D02*
X166022128Y-121459619D01*
X166022128Y-121459619D02*
X166403080Y-121459619D01*
X166403080Y-121459619D02*
X166498318Y-121507238D01*
X166498318Y-121507238D02*
X166545937Y-121554857D01*
X166545937Y-121554857D02*
X166593556Y-121650095D01*
X166593556Y-121650095D02*
X166593556Y-121792952D01*
X166593556Y-121792952D02*
X166545937Y-121888190D01*
X166545937Y-121888190D02*
X166498318Y-121935809D01*
X166498318Y-121935809D02*
X166403080Y-121983428D01*
X166403080Y-121983428D02*
X166022128Y-121983428D01*
X167022128Y-121935809D02*
X167355461Y-121935809D01*
X167498318Y-122459619D02*
X167022128Y-122459619D01*
X167022128Y-122459619D02*
X167022128Y-121459619D01*
X167022128Y-121459619D02*
X167498318Y-121459619D01*
X167879271Y-122173904D02*
X168355461Y-122173904D01*
X167784033Y-122459619D02*
X168117366Y-121459619D01*
X168117366Y-121459619D02*
X168450699Y-122459619D01*
X168784033Y-122459619D02*
X168784033Y-121459619D01*
X169355461Y-122459619D02*
X168926890Y-121888190D01*
X169355461Y-121459619D02*
X168784033Y-122031047D01*
X169784033Y-121935809D02*
X170117366Y-121935809D01*
X170260223Y-122459619D02*
X169784033Y-122459619D01*
X169784033Y-122459619D02*
X169784033Y-121459619D01*
X169784033Y-121459619D02*
X170260223Y-121459619D01*
X171260223Y-122459619D02*
X170926890Y-121983428D01*
X170688795Y-122459619D02*
X170688795Y-121459619D01*
X170688795Y-121459619D02*
X171069747Y-121459619D01*
X171069747Y-121459619D02*
X171164985Y-121507238D01*
X171164985Y-121507238D02*
X171212604Y-121554857D01*
X171212604Y-121554857D02*
X171260223Y-121650095D01*
X171260223Y-121650095D02*
X171260223Y-121792952D01*
X171260223Y-121792952D02*
X171212604Y-121888190D01*
X171212604Y-121888190D02*
X171164985Y-121935809D01*
X171164985Y-121935809D02*
X171069747Y-121983428D01*
X171069747Y-121983428D02*
X170688795Y-121983428D01*
X172641176Y-121459619D02*
X172831652Y-121459619D01*
X172831652Y-121459619D02*
X172926890Y-121507238D01*
X172926890Y-121507238D02*
X173022128Y-121602476D01*
X173022128Y-121602476D02*
X173069747Y-121792952D01*
X173069747Y-121792952D02*
X173069747Y-122126285D01*
X173069747Y-122126285D02*
X173022128Y-122316761D01*
X173022128Y-122316761D02*
X172926890Y-122412000D01*
X172926890Y-122412000D02*
X172831652Y-122459619D01*
X172831652Y-122459619D02*
X172641176Y-122459619D01*
X172641176Y-122459619D02*
X172545938Y-122412000D01*
X172545938Y-122412000D02*
X172450700Y-122316761D01*
X172450700Y-122316761D02*
X172403081Y-122126285D01*
X172403081Y-122126285D02*
X172403081Y-121792952D01*
X172403081Y-121792952D02*
X172450700Y-121602476D01*
X172450700Y-121602476D02*
X172545938Y-121507238D01*
X172545938Y-121507238D02*
X172641176Y-121459619D01*
X173498319Y-121459619D02*
X173498319Y-122269142D01*
X173498319Y-122269142D02*
X173545938Y-122364380D01*
X173545938Y-122364380D02*
X173593557Y-122412000D01*
X173593557Y-122412000D02*
X173688795Y-122459619D01*
X173688795Y-122459619D02*
X173879271Y-122459619D01*
X173879271Y-122459619D02*
X173974509Y-122412000D01*
X173974509Y-122412000D02*
X174022128Y-122364380D01*
X174022128Y-122364380D02*
X174069747Y-122269142D01*
X174069747Y-122269142D02*
X174069747Y-121459619D01*
X174403081Y-121459619D02*
X174974509Y-121459619D01*
X174688795Y-122459619D02*
X174688795Y-121459619D01*
X165148745Y-92004619D02*
X164958269Y-92004619D01*
X164958269Y-92004619D02*
X164863031Y-92052238D01*
X164863031Y-92052238D02*
X164815412Y-92099857D01*
X164815412Y-92099857D02*
X164720174Y-92242714D01*
X164720174Y-92242714D02*
X164672555Y-92433190D01*
X164672555Y-92433190D02*
X164672555Y-92814142D01*
X164672555Y-92814142D02*
X164720174Y-92909380D01*
X164720174Y-92909380D02*
X164767793Y-92957000D01*
X164767793Y-92957000D02*
X164863031Y-93004619D01*
X164863031Y-93004619D02*
X165053507Y-93004619D01*
X165053507Y-93004619D02*
X165148745Y-92957000D01*
X165148745Y-92957000D02*
X165196364Y-92909380D01*
X165196364Y-92909380D02*
X165243983Y-92814142D01*
X165243983Y-92814142D02*
X165243983Y-92576047D01*
X165243983Y-92576047D02*
X165196364Y-92480809D01*
X165196364Y-92480809D02*
X165148745Y-92433190D01*
X165148745Y-92433190D02*
X165053507Y-92385571D01*
X165053507Y-92385571D02*
X164863031Y-92385571D01*
X164863031Y-92385571D02*
X164767793Y-92433190D01*
X164767793Y-92433190D02*
X164720174Y-92480809D01*
X164720174Y-92480809D02*
X164672555Y-92576047D01*
X165672555Y-93004619D02*
X165672555Y-92004619D01*
X165672555Y-92004619D02*
X166243983Y-93004619D01*
X166243983Y-93004619D02*
X166243983Y-92004619D01*
X167243983Y-93004619D02*
X166672555Y-93004619D01*
X166958269Y-93004619D02*
X166958269Y-92004619D01*
X166958269Y-92004619D02*
X166863031Y-92147476D01*
X166863031Y-92147476D02*
X166767793Y-92242714D01*
X166767793Y-92242714D02*
X166672555Y-92290333D01*
X167577317Y-92004619D02*
X168196364Y-92004619D01*
X168196364Y-92004619D02*
X167863031Y-92385571D01*
X167863031Y-92385571D02*
X168005888Y-92385571D01*
X168005888Y-92385571D02*
X168101126Y-92433190D01*
X168101126Y-92433190D02*
X168148745Y-92480809D01*
X168148745Y-92480809D02*
X168196364Y-92576047D01*
X168196364Y-92576047D02*
X168196364Y-92814142D01*
X168196364Y-92814142D02*
X168148745Y-92909380D01*
X168148745Y-92909380D02*
X168101126Y-92957000D01*
X168101126Y-92957000D02*
X168005888Y-93004619D01*
X168005888Y-93004619D02*
X167720174Y-93004619D01*
X167720174Y-93004619D02*
X167624936Y-92957000D01*
X167624936Y-92957000D02*
X167577317Y-92909380D01*
X168767793Y-92433190D02*
X168672555Y-92385571D01*
X168672555Y-92385571D02*
X168624936Y-92337952D01*
X168624936Y-92337952D02*
X168577317Y-92242714D01*
X168577317Y-92242714D02*
X168577317Y-92195095D01*
X168577317Y-92195095D02*
X168624936Y-92099857D01*
X168624936Y-92099857D02*
X168672555Y-92052238D01*
X168672555Y-92052238D02*
X168767793Y-92004619D01*
X168767793Y-92004619D02*
X168958269Y-92004619D01*
X168958269Y-92004619D02*
X169053507Y-92052238D01*
X169053507Y-92052238D02*
X169101126Y-92099857D01*
X169101126Y-92099857D02*
X169148745Y-92195095D01*
X169148745Y-92195095D02*
X169148745Y-92242714D01*
X169148745Y-92242714D02*
X169101126Y-92337952D01*
X169101126Y-92337952D02*
X169053507Y-92385571D01*
X169053507Y-92385571D02*
X168958269Y-92433190D01*
X168958269Y-92433190D02*
X168767793Y-92433190D01*
X168767793Y-92433190D02*
X168672555Y-92480809D01*
X168672555Y-92480809D02*
X168624936Y-92528428D01*
X168624936Y-92528428D02*
X168577317Y-92623666D01*
X168577317Y-92623666D02*
X168577317Y-92814142D01*
X168577317Y-92814142D02*
X168624936Y-92909380D01*
X168624936Y-92909380D02*
X168672555Y-92957000D01*
X168672555Y-92957000D02*
X168767793Y-93004619D01*
X168767793Y-93004619D02*
X168958269Y-93004619D01*
X168958269Y-93004619D02*
X169053507Y-92957000D01*
X169053507Y-92957000D02*
X169101126Y-92909380D01*
X169101126Y-92909380D02*
X169148745Y-92814142D01*
X169148745Y-92814142D02*
X169148745Y-92623666D01*
X169148745Y-92623666D02*
X169101126Y-92528428D01*
X169101126Y-92528428D02*
X169053507Y-92480809D01*
X169053507Y-92480809D02*
X168958269Y-92433190D01*
X144110223Y-69530809D02*
X144253080Y-69578428D01*
X144253080Y-69578428D02*
X144300699Y-69626047D01*
X144300699Y-69626047D02*
X144348318Y-69721285D01*
X144348318Y-69721285D02*
X144348318Y-69864142D01*
X144348318Y-69864142D02*
X144300699Y-69959380D01*
X144300699Y-69959380D02*
X144253080Y-70007000D01*
X144253080Y-70007000D02*
X144157842Y-70054619D01*
X144157842Y-70054619D02*
X143776890Y-70054619D01*
X143776890Y-70054619D02*
X143776890Y-69054619D01*
X143776890Y-69054619D02*
X144110223Y-69054619D01*
X144110223Y-69054619D02*
X144205461Y-69102238D01*
X144205461Y-69102238D02*
X144253080Y-69149857D01*
X144253080Y-69149857D02*
X144300699Y-69245095D01*
X144300699Y-69245095D02*
X144300699Y-69340333D01*
X144300699Y-69340333D02*
X144253080Y-69435571D01*
X144253080Y-69435571D02*
X144205461Y-69483190D01*
X144205461Y-69483190D02*
X144110223Y-69530809D01*
X144110223Y-69530809D02*
X143776890Y-69530809D01*
X144729271Y-69768904D02*
X145205461Y-69768904D01*
X144634033Y-70054619D02*
X144967366Y-69054619D01*
X144967366Y-69054619D02*
X145300699Y-70054619D01*
X145491176Y-69054619D02*
X146062604Y-69054619D01*
X145776890Y-70054619D02*
X145776890Y-69054619D01*
X146824509Y-69387952D02*
X146824509Y-70054619D01*
X146586414Y-69007000D02*
X146348319Y-69721285D01*
X146348319Y-69721285D02*
X146967366Y-69721285D01*
X147872128Y-70054619D02*
X147300700Y-70054619D01*
X147586414Y-70054619D02*
X147586414Y-69054619D01*
X147586414Y-69054619D02*
X147491176Y-69197476D01*
X147491176Y-69197476D02*
X147395938Y-69292714D01*
X147395938Y-69292714D02*
X147300700Y-69340333D01*
X165785519Y-116114085D02*
X165785519Y-116685513D01*
X165785519Y-116399799D02*
X164785519Y-116399799D01*
X164785519Y-116399799D02*
X164928376Y-116495037D01*
X164928376Y-116495037D02*
X165023614Y-116590275D01*
X165023614Y-116590275D02*
X165071233Y-116685513D01*
X165785519Y-115685513D02*
X164785519Y-115685513D01*
X165785519Y-115114085D02*
X165214090Y-115542656D01*
X164785519Y-115114085D02*
X165356947Y-115685513D01*
X121460700Y-85754619D02*
X121555938Y-85754619D01*
X121555938Y-85754619D02*
X121651176Y-85802238D01*
X121651176Y-85802238D02*
X121698795Y-85849857D01*
X121698795Y-85849857D02*
X121746414Y-85945095D01*
X121746414Y-85945095D02*
X121794033Y-86135571D01*
X121794033Y-86135571D02*
X121794033Y-86373666D01*
X121794033Y-86373666D02*
X121746414Y-86564142D01*
X121746414Y-86564142D02*
X121698795Y-86659380D01*
X121698795Y-86659380D02*
X121651176Y-86707000D01*
X121651176Y-86707000D02*
X121555938Y-86754619D01*
X121555938Y-86754619D02*
X121460700Y-86754619D01*
X121460700Y-86754619D02*
X121365462Y-86707000D01*
X121365462Y-86707000D02*
X121317843Y-86659380D01*
X121317843Y-86659380D02*
X121270224Y-86564142D01*
X121270224Y-86564142D02*
X121222605Y-86373666D01*
X121222605Y-86373666D02*
X121222605Y-86135571D01*
X121222605Y-86135571D02*
X121270224Y-85945095D01*
X121270224Y-85945095D02*
X121317843Y-85849857D01*
X121317843Y-85849857D02*
X121365462Y-85802238D01*
X121365462Y-85802238D02*
X121460700Y-85754619D01*
X122222605Y-86659380D02*
X122270224Y-86707000D01*
X122270224Y-86707000D02*
X122222605Y-86754619D01*
X122222605Y-86754619D02*
X122174986Y-86707000D01*
X122174986Y-86707000D02*
X122222605Y-86659380D01*
X122222605Y-86659380D02*
X122222605Y-86754619D01*
X123222604Y-86754619D02*
X122651176Y-86754619D01*
X122936890Y-86754619D02*
X122936890Y-85754619D01*
X122936890Y-85754619D02*
X122841652Y-85897476D01*
X122841652Y-85897476D02*
X122746414Y-85992714D01*
X122746414Y-85992714D02*
X122651176Y-86040333D01*
X124079747Y-86087952D02*
X124079747Y-86754619D01*
X123651176Y-86087952D02*
X123651176Y-86611761D01*
X123651176Y-86611761D02*
X123698795Y-86707000D01*
X123698795Y-86707000D02*
X123794033Y-86754619D01*
X123794033Y-86754619D02*
X123936890Y-86754619D01*
X123936890Y-86754619D02*
X124032128Y-86707000D01*
X124032128Y-86707000D02*
X124079747Y-86659380D01*
X124413081Y-86087952D02*
X124794033Y-86087952D01*
X124555938Y-86754619D02*
X124555938Y-85897476D01*
X124555938Y-85897476D02*
X124603557Y-85802238D01*
X124603557Y-85802238D02*
X124698795Y-85754619D01*
X124698795Y-85754619D02*
X124794033Y-85754619D01*
X161185519Y-116214085D02*
X161185519Y-116785513D01*
X161185519Y-116499799D02*
X160185519Y-116499799D01*
X160185519Y-116499799D02*
X160328376Y-116595037D01*
X160328376Y-116595037D02*
X160423614Y-116690275D01*
X160423614Y-116690275D02*
X160471233Y-116785513D01*
X161185519Y-115785513D02*
X160185519Y-115785513D01*
X161185519Y-115214085D02*
X160614090Y-115642656D01*
X160185519Y-115214085D02*
X160756947Y-115785513D01*
X136316300Y-85784819D02*
X136411538Y-85784819D01*
X136411538Y-85784819D02*
X136506776Y-85832438D01*
X136506776Y-85832438D02*
X136554395Y-85880057D01*
X136554395Y-85880057D02*
X136602014Y-85975295D01*
X136602014Y-85975295D02*
X136649633Y-86165771D01*
X136649633Y-86165771D02*
X136649633Y-86403866D01*
X136649633Y-86403866D02*
X136602014Y-86594342D01*
X136602014Y-86594342D02*
X136554395Y-86689580D01*
X136554395Y-86689580D02*
X136506776Y-86737200D01*
X136506776Y-86737200D02*
X136411538Y-86784819D01*
X136411538Y-86784819D02*
X136316300Y-86784819D01*
X136316300Y-86784819D02*
X136221062Y-86737200D01*
X136221062Y-86737200D02*
X136173443Y-86689580D01*
X136173443Y-86689580D02*
X136125824Y-86594342D01*
X136125824Y-86594342D02*
X136078205Y-86403866D01*
X136078205Y-86403866D02*
X136078205Y-86165771D01*
X136078205Y-86165771D02*
X136125824Y-85975295D01*
X136125824Y-85975295D02*
X136173443Y-85880057D01*
X136173443Y-85880057D02*
X136221062Y-85832438D01*
X136221062Y-85832438D02*
X136316300Y-85784819D01*
X137078205Y-86689580D02*
X137125824Y-86737200D01*
X137125824Y-86737200D02*
X137078205Y-86784819D01*
X137078205Y-86784819D02*
X137030586Y-86737200D01*
X137030586Y-86737200D02*
X137078205Y-86689580D01*
X137078205Y-86689580D02*
X137078205Y-86784819D01*
X138078204Y-86784819D02*
X137506776Y-86784819D01*
X137792490Y-86784819D02*
X137792490Y-85784819D01*
X137792490Y-85784819D02*
X137697252Y-85927676D01*
X137697252Y-85927676D02*
X137602014Y-86022914D01*
X137602014Y-86022914D02*
X137506776Y-86070533D01*
X138935347Y-86118152D02*
X138935347Y-86784819D01*
X138506776Y-86118152D02*
X138506776Y-86641961D01*
X138506776Y-86641961D02*
X138554395Y-86737200D01*
X138554395Y-86737200D02*
X138649633Y-86784819D01*
X138649633Y-86784819D02*
X138792490Y-86784819D01*
X138792490Y-86784819D02*
X138887728Y-86737200D01*
X138887728Y-86737200D02*
X138935347Y-86689580D01*
X139268681Y-86118152D02*
X139649633Y-86118152D01*
X139411538Y-86784819D02*
X139411538Y-85927676D01*
X139411538Y-85927676D02*
X139459157Y-85832438D01*
X139459157Y-85832438D02*
X139554395Y-85784819D01*
X139554395Y-85784819D02*
X139649633Y-85784819D01*
D17*
%TO.C,J21*%
X160930700Y-123004800D02*
X158170700Y-123004800D01*
X160930700Y-125654800D02*
X160930700Y-123004800D01*
X160930700Y-125654800D02*
X158170700Y-125654800D01*
X158170700Y-125654800D02*
X158170700Y-123004800D01*
X160930700Y-126924800D02*
X160930700Y-128304800D01*
X160930700Y-128304800D02*
X159550700Y-128304800D01*
%TO.C,J6*%
X181440000Y-121822400D02*
X181440000Y-113262400D01*
X181440000Y-121822400D02*
X183950000Y-121822400D01*
X183750000Y-110102400D02*
X194969200Y-110102400D01*
X186950000Y-121822400D02*
X194969200Y-121822400D01*
%TO.C,R20*%
X132521300Y-127269800D02*
X128681300Y-127269800D01*
X132521300Y-125429800D02*
X128681300Y-125429800D01*
%TO.C,R14*%
X111080000Y-111620000D02*
X111080000Y-115460000D01*
X112920000Y-111620000D02*
X112920000Y-115460000D01*
%TO.C,R22*%
X178330000Y-101670000D02*
X178330000Y-97830000D01*
X180170000Y-101670000D02*
X180170000Y-97830000D01*
%TO.C,R10*%
X123470700Y-125429800D02*
X119630700Y-125429800D01*
X123470700Y-127269800D02*
X119630700Y-127269800D01*
%TO.C,R18*%
X147630700Y-120429800D02*
X151470700Y-120429800D01*
X147630700Y-122269800D02*
X151470700Y-122269800D01*
%TO.C,R21*%
X178330000Y-115670000D02*
X178330000Y-111830000D01*
X180170000Y-115670000D02*
X180170000Y-111830000D01*
%TO.C,J15*%
X112695700Y-146229800D02*
X112695700Y-143469800D01*
X110045700Y-146229800D02*
X112695700Y-146229800D01*
X110045700Y-146229800D02*
X110045700Y-143469800D01*
X110045700Y-143469800D02*
X112695700Y-143469800D01*
X108775700Y-146229800D02*
X107395700Y-146229800D01*
X107395700Y-146229800D02*
X107395700Y-144849800D01*
%TO.C,R12*%
X111080000Y-83620000D02*
X111080000Y-87460000D01*
X112920000Y-83620000D02*
X112920000Y-87460000D01*
%TO.C,U1*%
X136955700Y-111280000D02*
G75*
G02*
X138955700Y-111280000I1000000J0D01*
G01*
X140605700Y-111280000D02*
X140605700Y-93380000D01*
X140605700Y-93380000D02*
X135305700Y-93380000D01*
X138955700Y-111280000D02*
X140605700Y-111280000D01*
X135305700Y-111280000D02*
X136955700Y-111280000D01*
X135305700Y-93380000D02*
X135305700Y-111280000D01*
%TO.C,R31*%
X126071300Y-78929800D02*
X122231300Y-78929800D01*
X126071300Y-80769800D02*
X122231300Y-80769800D01*
%TO.C,J23*%
X123640000Y-60700000D02*
X123640000Y-49480800D01*
X135360000Y-57500000D02*
X135360000Y-49480800D01*
X135360000Y-63010000D02*
X126800000Y-63010000D01*
X135360000Y-63010000D02*
X135360000Y-60500000D01*
%TO.C,R28*%
X171030700Y-114079800D02*
X171030700Y-117919800D01*
X172870700Y-114079800D02*
X172870700Y-117919800D01*
%TO.C,R16*%
X137681300Y-114929800D02*
X141521300Y-114929800D01*
X137681300Y-116769800D02*
X141521300Y-116769800D01*
%TO.C,J19*%
X163020700Y-136529800D02*
X163020700Y-135149800D01*
X164400700Y-136529800D02*
X163020700Y-136529800D01*
X165670700Y-133769800D02*
X178480700Y-133769800D01*
X165670700Y-136529800D02*
X165670700Y-133769800D01*
X165670700Y-136529800D02*
X178480700Y-136529800D01*
X178480700Y-136529800D02*
X178480700Y-133769800D01*
%TO.C,U2*%
X120255000Y-93500000D02*
X120255000Y-111400000D01*
X120255000Y-111400000D02*
X121905000Y-111400000D01*
X123905000Y-111400000D02*
X125555000Y-111400000D01*
X125555000Y-93500000D02*
X120255000Y-93500000D01*
X125555000Y-111400000D02*
X125555000Y-93500000D01*
X121905000Y-111400000D02*
G75*
G02*
X123905000Y-111400000I1000000J0D01*
G01*
%TO.C,R1*%
X132471300Y-116769800D02*
X128631300Y-116769800D01*
X132471300Y-114929800D02*
X128631300Y-114929800D01*
%TO.C,J7*%
X181440000Y-107784900D02*
X181440000Y-99224900D01*
X181440000Y-107784900D02*
X183950000Y-107784900D01*
X183750000Y-96064900D02*
X194969200Y-96064900D01*
X186950000Y-107784900D02*
X194969200Y-107784900D01*
%TO.C,R24*%
X178330000Y-73420000D02*
X178330000Y-69580000D01*
X180170000Y-73420000D02*
X180170000Y-69580000D01*
%TO.C,R7*%
X142021300Y-127269800D02*
X138181300Y-127269800D01*
X142021300Y-125429800D02*
X138181300Y-125429800D01*
%TO.C,D6*%
X121530700Y-69349800D02*
X122180700Y-69349800D01*
X125580700Y-70469800D02*
X125580700Y-68229800D01*
X125700700Y-70469800D02*
X125700700Y-68229800D01*
X125820700Y-70469800D02*
X125820700Y-68229800D01*
X127070700Y-69349800D02*
X126420700Y-69349800D01*
X126420700Y-70469800D02*
X122180700Y-70469800D01*
X122180700Y-68229800D01*
X126420700Y-68229800D01*
X126420700Y-70469800D01*
%TO.C,R30*%
X132080700Y-76429800D02*
X135920700Y-76429800D01*
X132080700Y-78269800D02*
X135920700Y-78269800D01*
%TO.C,J13*%
X176505000Y-49000000D02*
X176505000Y-46270000D01*
X176505000Y-52600000D02*
X176505000Y-51700000D01*
X185575000Y-55680000D02*
X176625000Y-55680000D01*
X185695000Y-46270000D02*
X176505000Y-46270000D01*
X185695000Y-49000000D02*
X185695000Y-46270000D01*
X185695000Y-52600000D02*
X185695000Y-51700000D01*
%TO.C,J5*%
X181440000Y-135860000D02*
X181440000Y-127300000D01*
X181440000Y-135860000D02*
X183950000Y-135860000D01*
X183750000Y-124140000D02*
X194969200Y-124140000D01*
X186950000Y-135860000D02*
X194969200Y-135860000D01*
%TO.C,J1*%
X104250700Y-81989800D02*
X96231500Y-81989800D01*
X107450700Y-93709800D02*
X96231500Y-93709800D01*
X109760700Y-81989800D02*
X107250700Y-81989800D01*
X109760700Y-81989800D02*
X109760700Y-90549800D01*
%TO.C,R13*%
X111080000Y-97620000D02*
X111080000Y-101460000D01*
X112920000Y-97620000D02*
X112920000Y-101460000D01*
%TO.C,R17*%
X147630700Y-114929800D02*
X151470700Y-114929800D01*
X147630700Y-116769800D02*
X151470700Y-116769800D01*
%TO.C,J18*%
X146640000Y-134640000D02*
X146640000Y-137150000D01*
X146640000Y-134640000D02*
X155200000Y-134640000D01*
X146640000Y-140150000D02*
X146640000Y-148169200D01*
X158360000Y-136950000D02*
X158360000Y-148169200D01*
%TO.C,R29*%
X122231300Y-74079600D02*
X126071300Y-74079600D01*
X122231300Y-75919600D02*
X126071300Y-75919600D01*
D18*
%TO.C,J12*%
X152500000Y-64749800D02*
X152500000Y-48949800D01*
X156000000Y-64749800D02*
X152500000Y-64749800D01*
X172500000Y-48949800D02*
X152500000Y-48949800D01*
X172500000Y-48949800D02*
X172500000Y-64749800D01*
X172500000Y-64749800D02*
X169000000Y-64749800D01*
D15*
X151836000Y-61543800D02*
G75*
G02*
X151636000Y-61543800I-100000J0D01*
G01*
X151636000Y-61543800D02*
G75*
G02*
X151836000Y-61543800I100000J0D01*
G01*
D17*
%TO.C,J20*%
X138640000Y-60700000D02*
X138640000Y-49480800D01*
X150360000Y-57500000D02*
X150360000Y-49480800D01*
X150360000Y-63010000D02*
X141800000Y-63010000D01*
X150360000Y-63010000D02*
X150360000Y-60500000D01*
%TO.C,R15*%
X178330000Y-129670000D02*
X178330000Y-125830000D01*
X180170000Y-129670000D02*
X180170000Y-125830000D01*
%TO.C,J3*%
X104250700Y-96089800D02*
X96231500Y-96089800D01*
X107450700Y-107809800D02*
X96231500Y-107809800D01*
X109760700Y-96089800D02*
X107250700Y-96089800D01*
X109760700Y-96089800D02*
X109760700Y-104649800D01*
%TO.C,R6*%
X142021300Y-122269800D02*
X138181300Y-122269800D01*
X142021300Y-120429800D02*
X138181300Y-120429800D01*
%TO.C,J24*%
X104250700Y-67989800D02*
X96231500Y-67989800D01*
X107450700Y-79709800D02*
X96231500Y-79709800D01*
X109760700Y-67989800D02*
X107250700Y-67989800D01*
X109760700Y-67989800D02*
X109760700Y-76549800D01*
%TO.C,J16*%
X173280700Y-68419800D02*
X173280700Y-69799800D01*
X171900700Y-68419800D02*
X173280700Y-68419800D01*
X170630700Y-71179800D02*
X167980700Y-71179800D01*
X170630700Y-68419800D02*
X170630700Y-71179800D01*
X170630700Y-68419800D02*
X167980700Y-68419800D01*
X167980700Y-68419800D02*
X167980700Y-71179800D01*
%TO.C,C6*%
X155080700Y-90669800D02*
X149840700Y-90669800D01*
X155080700Y-90332800D02*
X155080700Y-90669800D01*
X155080700Y-87929800D02*
X155080700Y-88266800D01*
X149840700Y-90669800D02*
X149840700Y-90332800D01*
X149840700Y-88266800D02*
X149840700Y-87929800D01*
X149840700Y-87929800D02*
X155080700Y-87929800D01*
%TO.C,J17*%
X129910700Y-136999800D02*
X129910700Y-148219000D01*
X118190700Y-140199800D02*
X118190700Y-148219000D01*
X118190700Y-134689800D02*
X126750700Y-134689800D01*
X118190700Y-134689800D02*
X118190700Y-137199800D01*
%TO.C,R4*%
X165190700Y-107569800D02*
X169030700Y-107569800D01*
X165190700Y-105729800D02*
X169030700Y-105729800D01*
%TO.C,R8*%
X123470700Y-116769800D02*
X119630700Y-116769800D01*
X123470700Y-114929800D02*
X119630700Y-114929800D01*
%TO.C,R9*%
X123470700Y-122070000D02*
X119630700Y-122070000D01*
X123470700Y-120230000D02*
X119630700Y-120230000D01*
%TO.C,J8*%
X181440000Y-93747300D02*
X181440000Y-85187300D01*
X181440000Y-93747300D02*
X183950000Y-93747300D01*
X183750000Y-82027300D02*
X194969200Y-82027300D01*
X186950000Y-93747300D02*
X194969200Y-93747300D01*
%TO.C,D4*%
X148380700Y-77349800D02*
X147730700Y-77349800D01*
X144330700Y-76229800D02*
X144330700Y-78469800D01*
X144210700Y-76229800D02*
X144210700Y-78469800D01*
X144090700Y-76229800D02*
X144090700Y-78469800D01*
X142840700Y-77349800D02*
X143490700Y-77349800D01*
X143490700Y-76229800D02*
X147730700Y-76229800D01*
X147730700Y-78469800D01*
X143490700Y-78469800D01*
X143490700Y-76229800D01*
%TO.C,C3*%
X164090700Y-87929800D02*
X169330700Y-87929800D01*
X164090700Y-88266800D02*
X164090700Y-87929800D01*
X164090700Y-90669800D02*
X164090700Y-90332800D01*
X169330700Y-87929800D02*
X169330700Y-88266800D01*
X169330700Y-90332800D02*
X169330700Y-90669800D01*
X169330700Y-90669800D02*
X164090700Y-90669800D01*
%TO.C,R25*%
X111080000Y-129420000D02*
X111080000Y-125580000D01*
X112920000Y-129420000D02*
X112920000Y-125580000D01*
%TO.C,J2*%
X132190700Y-134690000D02*
X132190700Y-137200000D01*
X132190700Y-134690000D02*
X140750700Y-134690000D01*
X132190700Y-140200000D02*
X132190700Y-148219200D01*
X143910700Y-137000000D02*
X143910700Y-148219200D01*
%TO.C,U4*%
X151405000Y-111400000D02*
G75*
G02*
X153405000Y-111400000I1000000J0D01*
G01*
X155055000Y-111400000D02*
X155055000Y-93500000D01*
X155055000Y-93500000D02*
X149755000Y-93500000D01*
X153405000Y-111400000D02*
X155055000Y-111400000D01*
X149755000Y-111400000D02*
X151405000Y-111400000D01*
X149755000Y-93500000D02*
X149755000Y-111400000D01*
%TO.C,SW1*%
X107000000Y-59350000D02*
X107000000Y-54150000D01*
X109050000Y-53400000D02*
X118950000Y-53400000D01*
X118950000Y-60100000D02*
X109050000Y-60100000D01*
X121000000Y-54150000D02*
X121000000Y-59350000D01*
X121300000Y-59750000D02*
X121300000Y-61050000D01*
X121300000Y-61050000D02*
X120000000Y-61050000D01*
%TO.C,R23*%
X178330000Y-87420000D02*
X178330000Y-83580000D01*
X180170000Y-87420000D02*
X180170000Y-83580000D01*
%TO.C,D1*%
X156460700Y-72099800D02*
X157110700Y-72099800D01*
X157710700Y-70979800D02*
X157710700Y-73219800D01*
X157830700Y-70979800D02*
X157830700Y-73219800D01*
X157950700Y-70979800D02*
X157950700Y-73219800D01*
X162000700Y-72099800D02*
X161350700Y-72099800D01*
X157110700Y-70979800D02*
X161350700Y-70979800D01*
X161350700Y-73219800D01*
X157110700Y-73219800D01*
X157110700Y-70979800D01*
%TO.C,D3*%
X156460700Y-77349800D02*
X157110700Y-77349800D01*
X157710700Y-76229800D02*
X157710700Y-78469800D01*
X157830700Y-76229800D02*
X157830700Y-78469800D01*
X157950700Y-76229800D02*
X157950700Y-78469800D01*
X162000700Y-77349800D02*
X161350700Y-77349800D01*
X157110700Y-76229800D02*
X161350700Y-76229800D01*
X161350700Y-78469800D01*
X157110700Y-78469800D01*
X157110700Y-76229800D01*
%TO.C,J4*%
X104250700Y-110089800D02*
X96231500Y-110089800D01*
X107450700Y-121809800D02*
X96231500Y-121809800D01*
X109760700Y-110089800D02*
X107250700Y-110089800D01*
X109760700Y-110089800D02*
X109760700Y-118649800D01*
%TO.C,R2*%
X182580000Y-59830000D02*
X182580000Y-63670000D01*
X184420000Y-59830000D02*
X184420000Y-63670000D01*
%TO.C,R3*%
X178080000Y-59830000D02*
X178080000Y-63670000D01*
X179920000Y-59830000D02*
X179920000Y-63670000D01*
%TO.C,J9*%
X181440000Y-79709800D02*
X181440000Y-71149800D01*
X181440000Y-79709800D02*
X183950000Y-79709800D01*
X183750000Y-67989800D02*
X194969200Y-67989800D01*
X186950000Y-79709800D02*
X194969200Y-79709800D01*
%TO.C,J10*%
X104199800Y-124140000D02*
X96180600Y-124140000D01*
X107399800Y-135860000D02*
X96180600Y-135860000D01*
X109709800Y-124140000D02*
X107199800Y-124140000D01*
X109709800Y-124140000D02*
X109709800Y-132700000D01*
%TO.C,J14*%
X165460700Y-143429800D02*
X165460700Y-142049800D01*
X166840700Y-143429800D02*
X165460700Y-143429800D01*
X168110700Y-140669800D02*
X175840700Y-140669800D01*
X168110700Y-143429800D02*
X168110700Y-140669800D01*
X168110700Y-143429800D02*
X175840700Y-143429800D01*
X175840700Y-143429800D02*
X175840700Y-140669800D01*
%TO.C,R11*%
X111080000Y-69620000D02*
X111080000Y-73460000D01*
X112920000Y-69620000D02*
X112920000Y-73460000D01*
%TO.C,R5*%
X169130700Y-111469800D02*
X165290700Y-111469800D01*
X169130700Y-109629800D02*
X165290700Y-109629800D01*
%TO.C,C4*%
X167705800Y-78732800D02*
X167705800Y-78166800D01*
X167745800Y-78966800D02*
X167745800Y-77932800D01*
X167785800Y-79126800D02*
X167785800Y-77772800D01*
X167825800Y-79254800D02*
X167825800Y-77644800D01*
X167865800Y-79363800D02*
X167865800Y-77535800D01*
X167905800Y-79460800D02*
X167905800Y-77438800D01*
X167945800Y-79547800D02*
X167945800Y-77351800D01*
X167985800Y-79626800D02*
X167985800Y-77272800D01*
X168025800Y-79700800D02*
X168025800Y-77198800D01*
X168065800Y-79768800D02*
X168065800Y-77130800D01*
X168105800Y-79832800D02*
X168105800Y-77066800D01*
X168145800Y-79892800D02*
X168145800Y-77006800D01*
X168185800Y-79948800D02*
X168185800Y-76950800D01*
X168225800Y-80002800D02*
X168225800Y-76896800D01*
X168265800Y-80053800D02*
X168265800Y-76845800D01*
X168305800Y-77409800D02*
X168305800Y-76797800D01*
X168305800Y-80101800D02*
X168305800Y-79489800D01*
X168345800Y-77409800D02*
X168345800Y-76750800D01*
X168345800Y-80148800D02*
X168345800Y-79489800D01*
X168385800Y-77409800D02*
X168385800Y-76706800D01*
X168385800Y-80192800D02*
X168385800Y-79489800D01*
X168425800Y-77409800D02*
X168425800Y-76664800D01*
X168425800Y-80234800D02*
X168425800Y-79489800D01*
X168465800Y-77409800D02*
X168465800Y-76624800D01*
X168465800Y-80274800D02*
X168465800Y-79489800D01*
X168505800Y-77409800D02*
X168505800Y-76585800D01*
X168505800Y-80313800D02*
X168505800Y-79489800D01*
X168545800Y-77409800D02*
X168545800Y-76548800D01*
X168545800Y-80350800D02*
X168545800Y-79489800D01*
X168585800Y-77409800D02*
X168585800Y-76513800D01*
X168585800Y-80385800D02*
X168585800Y-79489800D01*
X168625800Y-77409800D02*
X168625800Y-76479800D01*
X168625800Y-80419800D02*
X168625800Y-79489800D01*
X168665800Y-77409800D02*
X168665800Y-76446800D01*
X168665800Y-80452800D02*
X168665800Y-79489800D01*
X168705800Y-77409800D02*
X168705800Y-76414800D01*
X168705800Y-80484800D02*
X168705800Y-79489800D01*
X168745800Y-77409800D02*
X168745800Y-76384800D01*
X168745800Y-80514800D02*
X168745800Y-79489800D01*
X168785800Y-77409800D02*
X168785800Y-76355800D01*
X168785800Y-80543800D02*
X168785800Y-79489800D01*
X168825800Y-77409800D02*
X168825800Y-76327800D01*
X168825800Y-80571800D02*
X168825800Y-79489800D01*
X168865800Y-77409800D02*
X168865800Y-76300800D01*
X168865800Y-80598800D02*
X168865800Y-79489800D01*
X168905800Y-77409800D02*
X168905800Y-76274800D01*
X168905800Y-80624800D02*
X168905800Y-79489800D01*
X168945800Y-77409800D02*
X168945800Y-76250800D01*
X168945800Y-80648800D02*
X168945800Y-79489800D01*
X168985800Y-77409800D02*
X168985800Y-76226800D01*
X168985800Y-80672800D02*
X168985800Y-79489800D01*
X169025800Y-77409800D02*
X169025800Y-76203800D01*
X169025800Y-80695800D02*
X169025800Y-79489800D01*
X169065800Y-77409800D02*
X169065800Y-76181800D01*
X169065800Y-80717800D02*
X169065800Y-79489800D01*
X169105800Y-77409800D02*
X169105800Y-76160800D01*
X169105800Y-80738800D02*
X169105800Y-79489800D01*
X169145800Y-77409800D02*
X169145800Y-76140800D01*
X169145800Y-80758800D02*
X169145800Y-79489800D01*
X169185800Y-77409800D02*
X169185800Y-76120800D01*
X169185800Y-80778800D02*
X169185800Y-79489800D01*
X169225800Y-77409800D02*
X169225800Y-76102800D01*
X169225800Y-80796800D02*
X169225800Y-79489800D01*
X169265800Y-77409800D02*
X169265800Y-76084800D01*
X169265800Y-80814800D02*
X169265800Y-79489800D01*
X169305800Y-77409800D02*
X169305800Y-76067800D01*
X169305800Y-80831800D02*
X169305800Y-79489800D01*
X169345800Y-77409800D02*
X169345800Y-76051800D01*
X169345800Y-80847800D02*
X169345800Y-79489800D01*
X169385800Y-77409800D02*
X169385800Y-76036800D01*
X169385800Y-80862800D02*
X169385800Y-79489800D01*
X169425800Y-77409800D02*
X169425800Y-76021800D01*
X169425800Y-80877800D02*
X169425800Y-79489800D01*
X169465800Y-77409800D02*
X169465800Y-76007800D01*
X169465800Y-80891800D02*
X169465800Y-79489800D01*
X169505800Y-77409800D02*
X169505800Y-75994800D01*
X169505800Y-80904800D02*
X169505800Y-79489800D01*
X169545800Y-77409800D02*
X169545800Y-75982800D01*
X169545800Y-80916800D02*
X169545800Y-79489800D01*
X169585800Y-77409800D02*
X169585800Y-75970800D01*
X169585800Y-80928800D02*
X169585800Y-79489800D01*
X169625800Y-77409800D02*
X169625800Y-75959800D01*
X169625800Y-80939800D02*
X169625800Y-79489800D01*
X169665800Y-77409800D02*
X169665800Y-75948800D01*
X169665800Y-80950800D02*
X169665800Y-79489800D01*
X169705800Y-77409800D02*
X169705800Y-75939800D01*
X169705800Y-80959800D02*
X169705800Y-79489800D01*
X169745800Y-77409800D02*
X169745800Y-75930800D01*
X169745800Y-80968800D02*
X169745800Y-79489800D01*
X169785800Y-77409800D02*
X169785800Y-75921800D01*
X169785800Y-80977800D02*
X169785800Y-79489800D01*
X169825800Y-77409800D02*
X169825800Y-75913800D01*
X169825800Y-80985800D02*
X169825800Y-79489800D01*
X169865800Y-77409800D02*
X169865800Y-75906800D01*
X169865800Y-80992800D02*
X169865800Y-79489800D01*
X169905800Y-77409800D02*
X169905800Y-75900800D01*
X169905800Y-80998800D02*
X169905800Y-79489800D01*
X169945800Y-77409800D02*
X169945800Y-75894800D01*
X169945800Y-81004800D02*
X169945800Y-79489800D01*
X169985800Y-77409800D02*
X169985800Y-75889800D01*
X169985800Y-81009800D02*
X169985800Y-79489800D01*
X170025800Y-77409800D02*
X170025800Y-75884800D01*
X170025800Y-81014800D02*
X170025800Y-79489800D01*
X170065800Y-77409800D02*
X170065800Y-75880800D01*
X170065800Y-81018800D02*
X170065800Y-79489800D01*
X170105800Y-77409800D02*
X170105800Y-75877800D01*
X170105800Y-81021800D02*
X170105800Y-79489800D01*
X170145800Y-77409800D02*
X170145800Y-75874800D01*
X170145800Y-81024800D02*
X170145800Y-79489800D01*
X170185800Y-77409800D02*
X170185800Y-75872800D01*
X170185800Y-81026800D02*
X170185800Y-79489800D01*
X170225800Y-77409800D02*
X170225800Y-75870800D01*
X170225800Y-81028800D02*
X170225800Y-79489800D01*
X170265800Y-77409800D02*
X170265800Y-75869800D01*
X170265800Y-81029800D02*
X170265800Y-79489800D01*
X170305800Y-77409800D02*
X170305800Y-75869800D01*
X170305800Y-81029800D02*
X170305800Y-79489800D01*
X172860575Y-80174800D02*
X172860575Y-79674800D01*
X173110575Y-79924800D02*
X172610575Y-79924800D01*
X172925800Y-78449800D02*
G75*
G02*
X167685800Y-78449800I-2620000J0D01*
G01*
X167685800Y-78449800D02*
G75*
G02*
X172925800Y-78449800I2620000J0D01*
G01*
%TO.C,Q1*%
X132300700Y-72699800D02*
X135900700Y-72699800D01*
X132262222Y-72688278D02*
G75*
G02*
X134100700Y-68249799I1838478J1838478D01*
G01*
X134100700Y-68249800D02*
G75*
G02*
X135939178Y-72688278I0J-2600000D01*
G01*
%TO.C,R19*%
X132521300Y-122269800D02*
X128681300Y-122269800D01*
X132521300Y-120429800D02*
X128681300Y-120429800D01*
%TO.C,J22*%
X171330700Y-123004800D02*
X168570700Y-123004800D01*
X171330700Y-125654800D02*
X171330700Y-123004800D01*
X171330700Y-125654800D02*
X168570700Y-125654800D01*
X168570700Y-125654800D02*
X168570700Y-123004800D01*
X171330700Y-126924800D02*
X171330700Y-128304800D01*
X171330700Y-128304800D02*
X169950700Y-128304800D01*
%TO.C,U3*%
X164265000Y-93469800D02*
X164265000Y-103749800D01*
X164265000Y-103749800D02*
X169565000Y-103749800D01*
X165915000Y-93469800D02*
X164265000Y-93469800D01*
X169565000Y-93469800D02*
X167915000Y-93469800D01*
X169565000Y-103749800D02*
X169565000Y-93469800D01*
X167915000Y-93469800D02*
G75*
G02*
X165915000Y-93469800I-1000000J0D01*
G01*
%TO.C,D2*%
X142840700Y-72099800D02*
X143490700Y-72099800D01*
X144090700Y-70979800D02*
X144090700Y-73219800D01*
X144210700Y-70979800D02*
X144210700Y-73219800D01*
X144330700Y-70979800D02*
X144330700Y-73219800D01*
X148380700Y-72099800D02*
X147730700Y-72099800D01*
X143490700Y-70979800D02*
X147730700Y-70979800D01*
X147730700Y-73219800D01*
X143490700Y-73219800D01*
X143490700Y-70979800D01*
%TO.C,R27*%
X166330700Y-113979800D02*
X166330700Y-117819800D01*
X168170700Y-113979800D02*
X168170700Y-117819800D01*
%TO.C,C1*%
X120340700Y-87929800D02*
X125580700Y-87929800D01*
X120340700Y-88266800D02*
X120340700Y-87929800D01*
X120340700Y-90669800D02*
X120340700Y-90332800D01*
X125580700Y-87929800D02*
X125580700Y-88266800D01*
X125580700Y-90332800D02*
X125580700Y-90669800D01*
X125580700Y-90669800D02*
X120340700Y-90669800D01*
%TO.C,R26*%
X161730700Y-114079800D02*
X161730700Y-117919800D01*
X163570700Y-114079800D02*
X163570700Y-117919800D01*
%TO.C,C2*%
X135196300Y-87960000D02*
X140436300Y-87960000D01*
X135196300Y-88297000D02*
X135196300Y-87960000D01*
X135196300Y-90700000D02*
X135196300Y-90363000D01*
X140436300Y-87960000D02*
X140436300Y-88297000D01*
X140436300Y-90363000D02*
X140436300Y-90700000D01*
X140436300Y-90700000D02*
X135196300Y-90700000D01*
%TD*%
M02*
