M48
; DRILL file {KiCad 9.0.7-9.0.7~ubuntu24.04.1} date 2026-02-14T17:14:47-0500
; FORMAT={-:-/ absolute / metric / decimal}
; #@! TF.CreationDate,2026-02-14T17:14:47-05:00
; #@! TF.GenerationSoftware,Kicad,Pcbnew,9.0.7-9.0.7~ubuntu24.04.1
; #@! TF.FileFunction,Plated,1,2,PTH
FMAT,2
METRIC
; #@! TA.AperFunction,Plated,PTH,ViaDrill
T1C0.300
; #@! TA.AperFunction,Plated,PTH,ComponentDrill
T2C0.400
; #@! TA.AperFunction,Plated,PTH,ComponentDrill
T3C0.500
; #@! TA.AperFunction,Plated,PTH,ComponentDrill
T4C0.600
; #@! TA.AperFunction,Plated,PTH,ComponentDrill
T5C0.700
; #@! TA.AperFunction,Plated,PTH,ComponentDrill
T6C0.750
; #@! TA.AperFunction,Plated,PTH,ComponentDrill
T7C0.800
; #@! TA.AperFunction,Plated,PTH,ComponentDrill
T8C0.900
; #@! TA.AperFunction,Plated,PTH,ComponentDrill
T9C1.000
; #@! TA.AperFunction,Plated,PTH,ComponentDrill
T10C1.200
; #@! TA.AperFunction,Plated,PTH,ComponentDrill
T11C1.300
; #@! TA.AperFunction,Plated,PTH,ComponentDrill
T12C3.200
%
G90
G05
T1
X102.818Y-59.063
X113.051Y-89.752
X123.448Y-135.688
X128.614Y-106.176
X129.074Y-125.254
X129.342Y-97.47
X131.366Y-118.005
X135.021Y-82.863
X135.452Y-79.477
X137.913Y-123.479
X147.025Y-126.847
X155.753Y-120.84
X158.359Y-120.717
X160.955Y-113.245
X164.835Y-70.515
X170.602Y-82.64
X170.892Y-103.982
X173.893Y-132.741
X179.644Y-120.953
X182.39Y-108.951
T2
X178.125Y-53.65
X178.125Y-55.0
X178.975Y-53.65
X178.975Y-55.0
X179.825Y-53.65
X179.825Y-55.0
X180.675Y-53.65
X180.675Y-55.0
X181.525Y-53.65
X181.525Y-55.0
X182.375Y-53.65
X182.375Y-55.0
X183.225Y-53.65
X183.225Y-55.0
X184.075Y-53.65
X184.075Y-55.0
T3
X98.151Y-53.85
X98.151Y-143.85
X98.854Y-52.153
X98.854Y-55.547
X98.854Y-142.153
X98.854Y-145.547
X100.551Y-51.45
X100.551Y-56.25
X100.551Y-141.45
X100.551Y-146.25
X102.248Y-52.153
X102.248Y-55.547
X102.248Y-142.153
X102.248Y-145.547
X102.951Y-53.85
X102.951Y-143.85
X188.151Y-53.85
X188.151Y-143.85
X188.854Y-52.153
X188.854Y-55.547
X188.854Y-142.153
X188.854Y-145.547
X190.551Y-51.45
X190.551Y-56.25
X190.551Y-141.45
X190.551Y-146.25
X192.248Y-52.153
X192.248Y-55.547
X192.248Y-142.153
X192.248Y-145.547
X192.951Y-53.85
X192.951Y-143.85
T5
X112.0Y-69.0
X112.0Y-74.08
X112.0Y-83.0
X112.0Y-88.08
X112.0Y-97.0
X112.0Y-102.08
X112.0Y-111.0
X112.0Y-116.08
X112.0Y-124.96
X112.0Y-130.04
X119.011Y-115.85
X119.011Y-121.15
X119.011Y-126.35
X121.611Y-75.0
X121.611Y-79.85
X124.091Y-115.85
X124.091Y-121.15
X124.091Y-126.35
X126.691Y-75.0
X126.691Y-79.85
X128.011Y-115.85
X128.061Y-121.35
X128.061Y-126.35
X131.461Y-77.35
X133.091Y-115.85
X133.141Y-121.35
X133.141Y-126.35
X136.541Y-77.35
X137.061Y-115.85
X137.561Y-121.35
X137.561Y-126.35
X142.141Y-115.85
X142.641Y-121.35
X142.641Y-126.35
X147.011Y-115.85
X147.011Y-121.35
X152.091Y-115.85
X152.091Y-121.35
X162.651Y-113.46
X162.651Y-118.54
X164.571Y-106.65
X164.671Y-110.55
X167.251Y-113.36
X167.251Y-118.44
X169.651Y-106.65
X169.751Y-110.55
X171.951Y-113.46
X171.951Y-118.54
X179.0Y-59.21
X179.0Y-64.29
X179.25Y-68.96
X179.25Y-74.04
X179.25Y-82.96
X179.25Y-88.04
X179.25Y-97.21
X179.25Y-102.29
X179.25Y-111.21
X179.25Y-116.29
X179.25Y-125.21
X179.25Y-130.29
X183.5Y-59.21
X183.5Y-64.29
T6
X132.831Y-70.85
X134.101Y-70.85
X135.371Y-70.85
T7
X119.095Y-94.83
X119.095Y-97.37
X119.095Y-99.91
X119.095Y-102.45
X119.095Y-104.99
X119.095Y-107.53
X119.095Y-110.07
X120.461Y-89.3
X120.491Y-69.35
X125.461Y-89.3
X126.715Y-94.83
X126.715Y-97.37
X126.715Y-99.91
X126.715Y-102.45
X126.715Y-104.99
X126.715Y-107.53
X126.715Y-110.07
X128.111Y-69.35
X134.146Y-94.71
X134.146Y-97.25
X134.146Y-99.79
X134.146Y-102.33
X134.146Y-104.87
X134.146Y-107.41
X134.146Y-109.95
X135.316Y-89.33
X140.316Y-89.33
X141.766Y-94.71
X141.766Y-97.25
X141.766Y-99.79
X141.766Y-102.33
X141.766Y-104.87
X141.766Y-107.41
X141.766Y-109.95
X141.801Y-72.1
X141.801Y-77.35
X148.595Y-94.83
X148.595Y-97.37
X148.595Y-99.91
X148.595Y-102.45
X148.595Y-104.99
X148.595Y-107.53
X148.595Y-110.07
X149.421Y-72.1
X149.421Y-77.35
X149.961Y-89.3
X154.961Y-89.3
X155.421Y-72.1
X155.421Y-77.35
X156.215Y-94.83
X156.215Y-97.37
X156.215Y-99.91
X156.215Y-102.45
X156.215Y-104.99
X156.215Y-107.53
X156.215Y-110.07
X163.041Y-72.1
X163.041Y-77.35
X163.105Y-94.8
X163.105Y-97.34
X163.105Y-99.88
X163.105Y-102.42
X164.211Y-89.3
X169.211Y-89.3
X169.306Y-78.45
X170.725Y-94.8
X170.725Y-97.34
X170.725Y-99.88
X170.725Y-102.42
X171.306Y-78.45
T8
X110.0Y-55.5
X110.0Y-58.0
X114.0Y-55.5
X114.0Y-58.0
X118.0Y-55.5
X118.0Y-58.0
T9
X108.776Y-144.85
X111.316Y-144.85
X159.551Y-124.385
X159.551Y-126.925
X164.401Y-135.15
X166.841Y-142.05
X166.941Y-135.15
X169.361Y-69.8
X169.381Y-142.05
X169.481Y-135.15
X169.951Y-124.385
X169.951Y-126.925
X171.901Y-69.8
X171.921Y-142.05
X172.021Y-135.15
X174.461Y-142.05
X174.561Y-135.15
X177.101Y-135.15
T10
X108.0Y-53.75
X108.0Y-59.75
X120.0Y-53.75
X120.0Y-59.75
T11
X155.0Y-61.45
X157.5Y-63.95
X160.0Y-51.45
X162.5Y-61.45
X165.0Y-51.45
X167.5Y-63.95
X170.0Y-61.45
T12
X100.551Y-53.85
X100.551Y-143.85
X190.551Y-53.85
X190.551Y-143.85
T4
G00X176.775Y-51.04
M15
G01X176.775Y-50.24
M16
G05
G00X176.775Y-54.77
M15
G01X176.775Y-53.27
M16
G05
G00X185.425Y-51.04
M15
G01X185.425Y-50.24
M16
G05
G00X185.425Y-54.77
M15
G01X185.425Y-53.27
M16
G05
T9
G00X97.4Y-129.5
M15
G01X97.4Y-130.5
M16
G05
G00X97.451Y-73.35
M15
G01X97.451Y-74.35
M16
G05
G00X97.451Y-87.35
M15
G01X97.451Y-88.35
M16
G05
G00X97.451Y-101.45
M15
G01X97.451Y-102.45
M16
G05
G00X97.451Y-115.45
M15
G01X97.451Y-116.45
M16
G05
G00X100.4Y-134.5
M15
G01X101.4Y-134.5
M16
G05
G00X100.451Y-78.35
M15
G01X101.451Y-78.35
M16
G05
G00X100.451Y-92.35
M15
G01X101.451Y-92.35
M16
G05
G00X100.451Y-106.45
M15
G01X101.451Y-106.45
M16
G05
G00X100.451Y-120.45
M15
G01X101.451Y-120.45
M16
G05
G00X103.5Y-127.5
M15
G01X104.5Y-127.5
M16
G05
G00X103.551Y-71.35
M15
G01X104.551Y-71.35
M16
G05
G00X103.551Y-85.35
M15
G01X104.551Y-85.35
M16
G05
G00X103.551Y-99.45
M15
G01X104.551Y-99.45
M16
G05
G00X103.551Y-113.45
M15
G01X104.551Y-113.45
M16
G05
G00X105.2Y-125.0
M15
G01X106.2Y-125.0
M16
G05
G00X105.251Y-68.85
M15
G01X106.251Y-68.85
M16
G05
G00X105.251Y-82.85
M15
G01X106.251Y-82.85
M16
G05
G00X105.251Y-96.95
M15
G01X106.251Y-96.95
M16
G05
G00X105.251Y-110.95
M15
G01X106.251Y-110.95
M16
G05
G00X108.5Y-134.7
M15
G01X108.5Y-133.7
M16
G05
G00X108.551Y-78.55
M15
G01X108.551Y-77.55
M16
G05
G00X108.551Y-92.55
M15
G01X108.551Y-91.55
M16
G05
G00X108.551Y-106.65
M15
G01X108.551Y-105.65
M16
G05
G00X108.551Y-120.65
M15
G01X108.551Y-119.65
M16
G05
G00X119.051Y-139.2
M15
G01X119.051Y-138.2
M16
G05
G00X121.551Y-140.9
M15
G01X121.551Y-139.9
M16
G05
G00X123.551Y-147.0
M15
G01X124.551Y-147.0
M16
G05
G00X125.0Y-53.7
M15
G01X125.0Y-54.7
M16
G05
G00X124.8Y-61.8
M15
G01X125.8Y-61.8
M16
G05
G00X128.751Y-135.9
M15
G01X127.751Y-135.9
M16
G05
G00X128.551Y-144.0
M15
G01X128.551Y-143.0
M16
G05
G00X130.0Y-50.7
M15
G01X129.0Y-50.7
M16
G05
G00X132.0Y-56.8
M15
G01X132.0Y-57.8
M16
G05
G00X133.051Y-139.2
M15
G01X133.051Y-138.2
M16
G05
G00X134.5Y-58.5
M15
G01X134.5Y-59.5
M16
G05
G00X135.551Y-140.9
M15
G01X135.551Y-139.9
M16
G05
G00X137.551Y-147.0
M15
G01X138.551Y-147.0
M16
G05
G00X140.0Y-53.7
M15
G01X140.0Y-54.7
M16
G05
G00X139.8Y-61.8
M15
G01X140.8Y-61.8
M16
G05
G00X142.751Y-135.9
M15
G01X141.751Y-135.9
M16
G05
G00X142.551Y-144.0
M15
G01X142.551Y-143.0
M16
G05
G00X145.0Y-50.7
M15
G01X144.0Y-50.7
M16
G05
G00X147.0Y-56.8
M15
G01X147.0Y-57.8
M16
G05
G00X147.5Y-139.15
M15
G01X147.5Y-138.15
M16
G05
G00X149.5Y-58.5
M15
G01X149.5Y-59.5
M16
G05
G00X150.0Y-140.85
M15
G01X150.0Y-139.85
M16
G05
G00X152.0Y-146.95
M15
G01X153.0Y-146.95
M16
G05
G00X157.2Y-135.85
M15
G01X156.2Y-135.85
M16
G05
G00X157.0Y-143.95
M15
G01X157.0Y-142.95
M16
G05
G00X182.65Y-69.15
M15
G01X182.65Y-70.15
M16
G05
G00X182.65Y-83.187
M15
G01X182.65Y-84.187
M16
G05
G00X182.65Y-97.225
M15
G01X182.65Y-98.225
M16
G05
G00X182.65Y-111.262
M15
G01X182.65Y-112.262
M16
G05
G00X182.65Y-125.3
M15
G01X182.65Y-126.3
M16
G05
G00X185.95Y-78.85
M15
G01X184.95Y-78.85
M16
G05
G00X185.95Y-92.887
M15
G01X184.95Y-92.887
M16
G05
G00X185.95Y-106.925
M15
G01X184.95Y-106.925
M16
G05
G00X185.95Y-120.962
M15
G01X184.95Y-120.962
M16
G05
G00X185.95Y-135.0
M15
G01X184.95Y-135.0
M16
G05
G00X187.65Y-76.35
M15
G01X186.65Y-76.35
M16
G05
G00X187.65Y-90.387
M15
G01X186.65Y-90.387
M16
G05
G00X187.65Y-104.425
M15
G01X186.65Y-104.425
M16
G05
G00X187.65Y-118.462
M15
G01X186.65Y-118.462
M16
G05
G00X187.65Y-132.5
M15
G01X186.65Y-132.5
M16
G05
G00X190.75Y-69.35
M15
G01X189.75Y-69.35
M16
G05
G00X190.75Y-83.387
M15
G01X189.75Y-83.387
M16
G05
G00X190.75Y-97.425
M15
G01X189.75Y-97.425
M16
G05
G00X190.75Y-111.462
M15
G01X189.75Y-111.462
M16
G05
G00X190.75Y-125.5
M15
G01X189.75Y-125.5
M16
G05
G00X193.75Y-74.35
M15
G01X193.75Y-73.35
M16
G05
G00X193.75Y-88.387
M15
G01X193.75Y-87.387
M16
G05
G00X193.75Y-102.425
M15
G01X193.75Y-101.425
M16
G05
G00X193.75Y-116.462
M15
G01X193.75Y-115.462
M16
G05
G00X193.75Y-130.5
M15
G01X193.75Y-129.5
M16
G05
M30
